M48
;Layer_Color=9474304
;FILE_FORMAT=4:3
METRIC,TZ
;TYPE=PLATED
T1F00S00C0.305
T2F00S00C0.900
T3F00S00C1.000
T4F00S00C1.067
T5F00S00C2.500
%
T01
X119380Y43688
X124206
X123317Y46228
Y50038
X125857Y58420
X128397Y57277
X130580Y57580
Y62580
X135580
Y57580
X141080Y55080
X148580
Y60080
Y65080
X145580Y62580
X139827Y64262
X139446Y69850
X139540Y73660
X140970
X137795
X130355Y70398
X127775Y71628
X124080Y73080
X121412Y72771
X119456Y69240
X120580Y62580
X125580
X133604Y46482
Y43434
X139557Y43831
X139573Y45847
X148580Y49080
X115580Y57580
X110580
Y62580
X111887Y64643
X114427
X118237Y70104
X110580Y73080
X102616Y71628
X98425Y66167
X97080Y65330
X94080Y65378
X91186Y64262
X88138
X85090
X85080Y65288
X81580Y65324
X92964Y60706
Y59436
X97584Y57404
X99480
X105580Y57580
Y62580
X103505Y50292
X99441Y50546
X97536Y50292
X95580Y43580
X78080
X71882Y50673
X73279Y54704
X71628Y59436
X71580Y65080
Y70080
X78080Y67080
T02
X80090Y45212
X82590
X85090
X87590
X90090
X92590
Y54864
X90090
X87590
X85090
X82590
X80090
X81580Y74080
X84080
X91080
X93580
X96080
X98580
X79080
T03
X119220Y76080
X121760
X124300
X126840
X129380
X131920
X134460
X137000
X139540
X142080
X116680
X114140
X111600
X109060
X106520
X103980
X76330Y64080
X73830
T04
X120760Y52340
X123300
X125840
X128380
X130920
X133460
X136000
X138540
X141080
X143620
X146160
Y67580
X143620
X141080
X138540
X136000
X133460
X130920
X128380
X125840
X123300
X120760
X118220
X115680
X113140
X110600
X108060
X105520
Y52340
X108060
X110600
X113140
X115680
X118220
T05
X147580Y44580
Y75580
X72580
Y44580
M30
