G04 Layer_Color=65535*
%FSLAX43Y43*%
%MOMM*%
G71*
G01*
G75*
%ADD23C,0.254*%
%ADD28C,0.178*%
%ADD36C,0.127*%
%ADD37C,0.250*%
%ADD38C,0.305*%
%ADD39C,0.200*%
%ADD40C,0.150*%
G36*
X111252Y49784D02*
X111252Y42628D01*
X96282Y42628D01*
X96282Y49784D01*
X111252Y49784D01*
D02*
G37*
D23*
X108060Y56785D02*
G03*
X108060Y56785I-1270J0D01*
G01*
X102980Y60595D02*
X110600D01*
Y65675D01*
X102980D02*
X110600D01*
X102980Y60595D02*
Y65675D01*
X104250Y54880D02*
X109330D01*
Y58690D01*
X104250D02*
X109330D01*
X104250Y54880D02*
Y58690D01*
X101710Y51070D02*
X149970D01*
Y68850D01*
X101710D02*
X149970D01*
X101710Y51070D02*
Y68850D01*
X149970Y54880D02*
X152510D01*
Y65040D01*
X149970D02*
X152510D01*
X116315Y54245D02*
Y56785D01*
Y54245D02*
X117585D01*
Y56785D01*
X116315D02*
X117585D01*
X118220D02*
X119490D01*
Y54245D02*
Y56785D01*
X118220Y54245D02*
X119490D01*
X118220D02*
Y56785D01*
X135365Y61230D02*
X136635D01*
Y58690D02*
Y61230D01*
X135365Y58690D02*
X136635D01*
X135365D02*
Y61230D01*
X70080Y42080D02*
X150080D01*
Y78080D01*
X70080D02*
X150080D01*
X70080Y42080D02*
Y78080D01*
X102080Y51080D02*
X150080D01*
Y69080D01*
X116459Y49530D02*
Y47752D01*
Y49530D02*
X117136Y47752D01*
X117813Y49530D02*
X117136Y47752D01*
X117813Y49530D02*
Y47752D01*
X118829Y49530D02*
X118660Y49445D01*
X118491Y49276D01*
X118406Y49106D01*
X118321Y48852D01*
Y48429D01*
X118406Y48175D01*
X118491Y48006D01*
X118660Y47837D01*
X118829Y47752D01*
X119168D01*
X119337Y47837D01*
X119506Y48006D01*
X119591Y48175D01*
X119676Y48429D01*
Y48852D01*
X119591Y49106D01*
X119506Y49276D01*
X119337Y49445D01*
X119168Y49530D01*
X118829D01*
X120683D02*
Y47752D01*
X120090Y49530D02*
X121275D01*
X121995D02*
X121826Y49445D01*
X121656Y49276D01*
X121572Y49106D01*
X121487Y48852D01*
Y48429D01*
X121572Y48175D01*
X121656Y48006D01*
X121826Y47837D01*
X121995Y47752D01*
X122334D01*
X122503Y47837D01*
X122672Y48006D01*
X122757Y48175D01*
X122841Y48429D01*
Y48852D01*
X122757Y49106D01*
X122672Y49276D01*
X122503Y49445D01*
X122334Y49530D01*
X121995D01*
X123256D02*
Y47752D01*
Y49530D02*
X124018D01*
X124272Y49445D01*
X124357Y49360D01*
X124441Y49191D01*
Y49022D01*
X124357Y48852D01*
X124272Y48768D01*
X124018Y48683D01*
X123256D01*
X123849D02*
X124441Y47752D01*
X126236Y49530D02*
Y47752D01*
Y49530D02*
X126913Y47752D01*
X127590Y49530D02*
X126913Y47752D01*
X127590Y49530D02*
Y47752D01*
X128606Y49530D02*
X128437Y49445D01*
X128267Y49276D01*
X128183Y49106D01*
X128098Y48852D01*
Y48429D01*
X128183Y48175D01*
X128267Y48006D01*
X128437Y47837D01*
X128606Y47752D01*
X128945D01*
X129114Y47837D01*
X129283Y48006D01*
X129368Y48175D01*
X129453Y48429D01*
Y48852D01*
X129368Y49106D01*
X129283Y49276D01*
X129114Y49445D01*
X128945Y49530D01*
X128606D01*
X129867D02*
Y47752D01*
Y49530D02*
X131052Y47752D01*
Y49530D02*
Y47752D01*
X131543Y49530D02*
Y47752D01*
X132508Y49530D02*
Y47752D01*
X131916Y49530D02*
X133101D01*
X133820D02*
X133651Y49445D01*
X133482Y49276D01*
X133397Y49106D01*
X133313Y48852D01*
Y48429D01*
X133397Y48175D01*
X133482Y48006D01*
X133651Y47837D01*
X133820Y47752D01*
X134159D01*
X134328Y47837D01*
X134498Y48006D01*
X134582Y48175D01*
X134667Y48429D01*
Y48852D01*
X134582Y49106D01*
X134498Y49276D01*
X134328Y49445D01*
X134159Y49530D01*
X133820D01*
X135082D02*
Y47752D01*
Y49530D02*
X135844D01*
X136097Y49445D01*
X136182Y49360D01*
X136267Y49191D01*
Y49022D01*
X136182Y48852D01*
X136097Y48768D01*
X135844Y48683D01*
X135082D01*
X135674D02*
X136267Y47752D01*
X138061Y49530D02*
Y47752D01*
Y49530D02*
X138823D01*
X139077Y49445D01*
X139162Y49360D01*
X139246Y49191D01*
Y49022D01*
X139162Y48852D01*
X139077Y48768D01*
X138823Y48683D01*
X138061D01*
X138654D02*
X139246Y47752D01*
X140745Y49530D02*
X139644D01*
Y47752D01*
X140745D01*
X139644Y48683D02*
X140321D01*
X141041Y49530D02*
X141718Y47752D01*
X142395Y49530D02*
X141718Y47752D01*
X145375D02*
X144698Y49530D01*
X144021Y47752D01*
X144275Y48345D02*
X145121D01*
X79502Y51308D02*
Y49530D01*
Y51308D02*
X80264D01*
X80518Y51223D01*
X80602Y51138D01*
X80687Y50969D01*
Y50800D01*
X80602Y50630D01*
X80518Y50546D01*
X80264Y50461D01*
X79502D01*
X80095D02*
X80687Y49530D01*
X82042Y51308D02*
Y49530D01*
Y51308D02*
X82804D01*
X83058Y51223D01*
X83142Y51138D01*
X83227Y50969D01*
Y50800D01*
X83142Y50630D01*
X83058Y50546D01*
X82804Y50461D01*
X82042D02*
X82804D01*
X83058Y50376D01*
X83142Y50292D01*
X83227Y50123D01*
Y49869D01*
X83142Y49699D01*
X83058Y49615D01*
X82804Y49530D01*
X82042D01*
X84836Y51308D02*
Y49530D01*
Y51308D02*
X85598D01*
X85852Y51223D01*
X85936Y51138D01*
X86021Y50969D01*
Y50800D01*
X85936Y50630D01*
X85852Y50546D01*
X85598Y50461D01*
X84836D02*
X85598D01*
X85852Y50376D01*
X85936Y50292D01*
X86021Y50123D01*
Y49869D01*
X85936Y49699D01*
X85852Y49615D01*
X85598Y49530D01*
X84836D01*
X87122Y51308D02*
X87799Y50461D01*
Y49530D01*
X88476Y51308D02*
X87799Y50461D01*
X89916Y51308D02*
X89747Y51223D01*
X89577Y51054D01*
X89493Y50884D01*
X89408Y50630D01*
Y50207D01*
X89493Y49953D01*
X89577Y49784D01*
X89747Y49615D01*
X89916Y49530D01*
X90254D01*
X90424Y49615D01*
X90593Y49784D01*
X90678Y49953D01*
X90762Y50207D01*
Y50630D01*
X90678Y50884D01*
X90593Y51054D01*
X90424Y51223D01*
X90254Y51308D01*
X89916D01*
X91948D02*
Y49530D01*
Y51308D02*
X92710D01*
X92964Y51223D01*
X93048Y51138D01*
X93133Y50969D01*
Y50800D01*
X93048Y50630D01*
X92964Y50546D01*
X92710Y50461D01*
X91948D02*
X92710D01*
X92964Y50376D01*
X93048Y50292D01*
X93133Y50123D01*
Y49869D01*
X93048Y49699D01*
X92964Y49615D01*
X92710Y49530D01*
X91948D01*
X93531Y50715D02*
Y49530D01*
Y50207D02*
X93616Y50461D01*
X93785Y50630D01*
X93954Y50715D01*
X94208D01*
D28*
X87960Y68326D02*
X91161D01*
X87960D02*
Y69850D01*
X91161D01*
Y68326D02*
Y69850D01*
X87976Y65024D02*
X91177D01*
X87976D02*
Y66548D01*
X91177D01*
Y65024D02*
Y66548D01*
X84201Y64770D02*
X91948D01*
Y64516D02*
Y64770D01*
X116138Y58233D02*
X117661D01*
X116138D02*
Y58886D01*
X116210Y59103D01*
X116283Y59176D01*
X116428Y59249D01*
X116573D01*
X116718Y59176D01*
X116791Y59103D01*
X116863Y58886D01*
Y58233D01*
Y58741D02*
X117661Y59249D01*
X116138Y59590D02*
X117661Y60605D01*
X116138D02*
X117661Y59590D01*
X95312Y65285D02*
Y64438D01*
X95481Y64269D01*
X95820D01*
X95989Y64438D01*
Y65285D01*
X96328Y64269D02*
X96666D01*
X96497D01*
Y65285D01*
X96328Y65115D01*
X131064Y45212D02*
Y46228D01*
X131572D01*
X131741Y46058D01*
Y45720D01*
X131572Y45551D01*
X131064D01*
X131403D02*
X131741Y45212D01*
X132080D02*
X132418D01*
X132249D01*
Y46228D01*
X132080Y46058D01*
X132926Y45212D02*
X133265D01*
X133095D01*
Y46228D01*
X132926Y46058D01*
X88815Y71120D02*
X88477D01*
X88646D01*
Y70273D01*
X88477Y70104D01*
X88307D01*
X88138Y70273D01*
X89831Y71120D02*
X89154D01*
Y70104D01*
X89831D01*
X89154Y70612D02*
X89492D01*
X90846Y70104D02*
X90169D01*
X90846Y70781D01*
Y70950D01*
X90677Y71120D01*
X90339D01*
X90169Y70950D01*
X99991Y71120D02*
X99653D01*
X99822D01*
Y70273D01*
X99653Y70104D01*
X99483D01*
X99314Y70273D01*
X101007Y71120D02*
X100330D01*
Y70612D01*
X100668Y70781D01*
X100838D01*
X101007Y70612D01*
Y70273D01*
X100838Y70104D01*
X100499D01*
X100330Y70273D01*
X72305Y69088D02*
X71967D01*
X72136D01*
Y68241D01*
X71967Y68072D01*
X71797D01*
X71628Y68241D01*
X72644Y68072D02*
X72982D01*
X72813D01*
Y69088D01*
X72644Y68918D01*
X77131Y71120D02*
X76793D01*
X76962D01*
Y70273D01*
X76793Y70104D01*
X76623D01*
X76454Y70273D01*
X78147Y70104D02*
X77470D01*
X78147Y70781D01*
Y70950D01*
X77978Y71120D01*
X77639D01*
X77470Y70950D01*
X77385Y50038D02*
X77047D01*
X77216D01*
Y49191D01*
X77047Y49022D01*
X76877D01*
X76708Y49191D01*
X77724Y49868D02*
X77893Y50038D01*
X78232D01*
X78401Y49868D01*
Y49699D01*
X78232Y49530D01*
X78062D01*
X78232D01*
X78401Y49361D01*
Y49191D01*
X78232Y49022D01*
X77893D01*
X77724Y49191D01*
X116332Y45720D02*
Y44704D01*
X116840D01*
X117009Y44873D01*
Y45550D01*
X116840Y45720D01*
X116332D01*
X117348Y44704D02*
X117686D01*
X117517D01*
Y45720D01*
X117348Y45550D01*
X118194D02*
X118363Y45720D01*
X118702D01*
X118871Y45550D01*
Y44873D01*
X118702Y44704D01*
X118363D01*
X118194Y44873D01*
Y45550D01*
X83820Y68834D02*
X82804D01*
Y68326D01*
X82973Y68157D01*
X83650D01*
X83820Y68326D01*
Y68834D01*
X82804Y67310D02*
X83820D01*
X83312Y67818D01*
Y67141D01*
X80348Y60537D02*
X80518Y60706D01*
Y61045D01*
X80348Y61214D01*
X79671D01*
X79502Y61045D01*
Y60706D01*
X79671Y60537D01*
X79502Y60198D02*
Y59860D01*
Y60029D01*
X80518D01*
X80348Y60198D01*
X141139Y70315D02*
X140970Y70485D01*
X140631D01*
X140462Y70315D01*
Y69638D01*
X140631Y69469D01*
X140970D01*
X141139Y69638D01*
X142155Y70485D02*
X141478D01*
Y69977D01*
X141816Y70146D01*
X141986D01*
X142155Y69977D01*
Y69638D01*
X141986Y69469D01*
X141647D01*
X141478Y69638D01*
X102235Y52832D02*
Y51985D01*
X102404Y51816D01*
X102743D01*
X102912Y51985D01*
Y52832D01*
X103928Y51816D02*
X103251D01*
X103928Y52493D01*
Y52662D01*
X103759Y52832D01*
X103420D01*
X103251Y52662D01*
X111186Y61070D02*
X112710D01*
X111549Y62478D02*
X111404Y62405D01*
X111259Y62260D01*
X111186Y62115D01*
Y61825D01*
X111259Y61679D01*
X111404Y61534D01*
X111549Y61462D01*
X111767Y61389D01*
X112130D01*
X112347Y61462D01*
X112492Y61534D01*
X112637Y61679D01*
X112710Y61825D01*
Y62115D01*
X112637Y62260D01*
X112492Y62405D01*
X112347Y62478D01*
X111404Y63921D02*
X111259Y63776D01*
X111186Y63559D01*
Y63268D01*
X111259Y63051D01*
X111404Y62906D01*
X111549D01*
X111694Y62978D01*
X111767Y63051D01*
X111839Y63196D01*
X111984Y63631D01*
X112057Y63776D01*
X112130Y63849D01*
X112275Y63921D01*
X112492D01*
X112637Y63776D01*
X112710Y63559D01*
Y63268D01*
X112637Y63051D01*
X112492Y62906D01*
X111984Y64262D02*
Y64915D01*
X111912Y65133D01*
X111839Y65206D01*
X111694Y65278D01*
X111477D01*
X111331Y65206D01*
X111259Y65133D01*
X111186Y64915D01*
Y64262D01*
X112710D01*
X110346Y54880D02*
X111870D01*
X110346D02*
Y55533D01*
X110419Y55751D01*
X110491Y55823D01*
X110637Y55896D01*
X110782D01*
X110927Y55823D01*
X110999Y55751D01*
X111072Y55533D01*
Y54880D01*
Y55388D02*
X111870Y55896D01*
X110564Y57253D02*
X110419Y57107D01*
X110346Y56890D01*
Y56600D01*
X110419Y56382D01*
X110564Y56237D01*
X110709D01*
X110854Y56309D01*
X110927Y56382D01*
X110999Y56527D01*
X111144Y56962D01*
X111217Y57107D01*
X111290Y57180D01*
X111435Y57253D01*
X111652D01*
X111797Y57107D01*
X111870Y56890D01*
Y56600D01*
X111797Y56382D01*
X111652Y56237D01*
X110346Y58101D02*
X111870D01*
X110346Y57594D02*
Y58609D01*
X118347Y58563D02*
X119871D01*
X118347Y58055D02*
Y59071D01*
Y59252D02*
X119871Y60268D01*
X118347D02*
X119871Y59252D01*
X137143Y58436D02*
X138667D01*
Y59307D01*
X137143Y60417D02*
Y59474D01*
X138667D01*
Y60417D01*
X137869Y59474D02*
Y60054D01*
X137143Y60671D02*
X138667D01*
X137143D02*
Y61179D01*
X137216Y61396D01*
X137361Y61541D01*
X137506Y61614D01*
X137724Y61687D01*
X138087D01*
X138304Y61614D01*
X138449Y61541D01*
X138594Y61396D01*
X138667Y61179D01*
Y60671D01*
X140208Y43688D02*
Y44704D01*
X140716D01*
X140885Y44534D01*
Y44196D01*
X140716Y44027D01*
X140208D01*
X140547D02*
X140885Y43688D01*
X141224D02*
X141562D01*
X141393D01*
Y44704D01*
X141224Y44534D01*
X142747Y43688D02*
X142070D01*
X142747Y44365D01*
Y44534D01*
X142578Y44704D01*
X142239D01*
X142070Y44534D01*
X133350Y74295D02*
Y73618D01*
Y73956D01*
X132334D01*
Y73279D02*
X133350D01*
Y72771D01*
X133180Y72602D01*
X132842D01*
X132673Y72771D01*
Y73279D01*
X133180Y72264D02*
X133350Y72094D01*
Y71756D01*
X133180Y71587D01*
X133011D01*
X132842Y71756D01*
X132673Y71587D01*
X132503D01*
X132334Y71756D01*
Y72094D01*
X132503Y72264D01*
X132673D01*
X132842Y72094D01*
X133011Y72264D01*
X133180D01*
X132842Y72094D02*
Y71756D01*
X77216Y47752D02*
X76200D01*
X77216D02*
X76200Y47365D01*
X77216Y46978D02*
X76200Y47365D01*
X77216Y46978D02*
X76200D01*
X77216Y46398D02*
X77167Y46494D01*
X77071Y46591D01*
X76974Y46639D01*
X76829Y46688D01*
X76587D01*
X76442Y46639D01*
X76345Y46591D01*
X76248Y46494D01*
X76200Y46398D01*
Y46204D01*
X76248Y46107D01*
X76345Y46011D01*
X76442Y45962D01*
X76587Y45914D01*
X76829D01*
X76974Y45962D01*
X77071Y46011D01*
X77167Y46107D01*
X77216Y46204D01*
Y46398D01*
Y45338D02*
X76200D01*
X77216Y45677D02*
Y45000D01*
Y44589D02*
X77167Y44685D01*
X77071Y44782D01*
X76974Y44830D01*
X76829Y44879D01*
X76587D01*
X76442Y44830D01*
X76345Y44782D01*
X76248Y44685D01*
X76200Y44589D01*
Y44395D01*
X76248Y44298D01*
X76345Y44202D01*
X76442Y44153D01*
X76587Y44105D01*
X76829D01*
X76974Y44153D01*
X77071Y44202D01*
X77167Y44298D01*
X77216Y44395D01*
Y44589D01*
Y43868D02*
X76200D01*
X77216D02*
Y43433D01*
X77167Y43287D01*
X77119Y43239D01*
X77022Y43191D01*
X76926D01*
X76829Y43239D01*
X76780Y43287D01*
X76732Y43433D01*
Y43868D01*
Y43529D02*
X76200Y43191D01*
X77216Y57658D02*
X76200D01*
X77216D02*
X76200Y57271D01*
X77216Y56884D02*
X76200Y57271D01*
X77216Y56884D02*
X76200D01*
X77216Y56304D02*
X77167Y56400D01*
X77071Y56497D01*
X76974Y56545D01*
X76829Y56594D01*
X76587D01*
X76442Y56545D01*
X76345Y56497D01*
X76248Y56400D01*
X76200Y56304D01*
Y56110D01*
X76248Y56013D01*
X76345Y55917D01*
X76442Y55868D01*
X76587Y55820D01*
X76829D01*
X76974Y55868D01*
X77071Y55917D01*
X77167Y56013D01*
X77216Y56110D01*
Y56304D01*
Y55244D02*
X76200D01*
X77216Y55583D02*
Y54906D01*
Y54495D02*
X77167Y54591D01*
X77071Y54688D01*
X76974Y54736D01*
X76829Y54785D01*
X76587D01*
X76442Y54736D01*
X76345Y54688D01*
X76248Y54591D01*
X76200Y54495D01*
Y54301D01*
X76248Y54204D01*
X76345Y54108D01*
X76442Y54059D01*
X76587Y54011D01*
X76829D01*
X76974Y54059D01*
X77071Y54108D01*
X77167Y54204D01*
X77216Y54301D01*
Y54495D01*
Y53774D02*
X76200D01*
X77216D02*
Y53339D01*
X77167Y53193D01*
X77119Y53145D01*
X77022Y53097D01*
X76926D01*
X76829Y53145D01*
X76780Y53193D01*
X76732Y53339D01*
Y53774D01*
Y53435D02*
X76200Y53097D01*
X72148Y60071D02*
X71761Y61087D01*
X71374Y60071D01*
X71519Y60410D02*
X72003D01*
X73110Y60845D02*
X73062Y60942D01*
X72965Y61038D01*
X72869Y61087D01*
X72675D01*
X72578Y61038D01*
X72482Y60942D01*
X72433Y60845D01*
X72385Y60700D01*
Y60458D01*
X72433Y60313D01*
X72482Y60216D01*
X72578Y60119D01*
X72675Y60071D01*
X72869D01*
X72965Y60119D01*
X73062Y60216D01*
X73110Y60313D01*
X74871Y60942D02*
X74774Y61038D01*
X74629Y61087D01*
X74436D01*
X74291Y61038D01*
X74194Y60942D01*
Y60845D01*
X74242Y60748D01*
X74291Y60700D01*
X74387Y60651D01*
X74678Y60555D01*
X74774Y60506D01*
X74823Y60458D01*
X74871Y60361D01*
Y60216D01*
X74774Y60119D01*
X74629Y60071D01*
X74436D01*
X74291Y60119D01*
X74194Y60216D01*
X75727Y61087D02*
X75099D01*
Y60071D01*
X75727D01*
X75099Y60603D02*
X75485D01*
X75897Y61087D02*
Y60071D01*
Y61087D02*
X76574Y60071D01*
Y61087D02*
Y60071D01*
X77532Y60942D02*
X77435Y61038D01*
X77290Y61087D01*
X77096D01*
X76951Y61038D01*
X76854Y60942D01*
Y60845D01*
X76903Y60748D01*
X76951Y60700D01*
X77048Y60651D01*
X77338Y60555D01*
X77435Y60506D01*
X77483Y60458D01*
X77532Y60361D01*
Y60216D01*
X77435Y60119D01*
X77290Y60071D01*
X77096D01*
X76951Y60119D01*
X76854Y60216D01*
X78388Y61087D02*
X77759D01*
Y60071D01*
X78388D01*
X77759Y60603D02*
X78146D01*
X102489Y75565D02*
X101473D01*
X102247Y75304D02*
X102295D01*
X102392Y75255D01*
X102440Y75207D01*
X102489Y75110D01*
Y74917D01*
X102440Y74820D01*
X102392Y74772D01*
X102295Y74723D01*
X102199D01*
X102102Y74772D01*
X101957Y74868D01*
X101473Y75352D01*
Y74675D01*
X102247Y73722D02*
X102344Y73770D01*
X102440Y73867D01*
X102489Y73964D01*
Y74157D01*
X102440Y74254D01*
X102344Y74351D01*
X102247Y74399D01*
X102102Y74448D01*
X101860D01*
X101715Y74399D01*
X101618Y74351D01*
X101521Y74254D01*
X101473Y74157D01*
Y73964D01*
X101521Y73867D01*
X101618Y73770D01*
X101715Y73722D01*
X76200Y77343D02*
X75184D01*
X76200D02*
Y76908D01*
X76151Y76763D01*
X76103Y76714D01*
X76006Y76666D01*
X75910D01*
X75813Y76714D01*
X75764Y76763D01*
X75716Y76908D01*
Y77343D02*
Y76908D01*
X75668Y76763D01*
X75619Y76714D01*
X75523Y76666D01*
X75377D01*
X75281Y76714D01*
X75232Y76763D01*
X75184Y76908D01*
Y77343D01*
X76200Y76438D02*
X75474D01*
X75329Y76390D01*
X75232Y76293D01*
X75184Y76148D01*
Y76052D01*
X75232Y75906D01*
X75329Y75810D01*
X75474Y75761D01*
X76200D01*
Y75142D02*
X75184D01*
X76200Y75481D02*
Y74804D01*
Y74344D02*
X75184D01*
X76200Y74683D02*
Y74005D01*
Y73594D02*
X76151Y73691D01*
X76055Y73788D01*
X75958Y73836D01*
X75813Y73885D01*
X75571D01*
X75426Y73836D01*
X75329Y73788D01*
X75232Y73691D01*
X75184Y73594D01*
Y73401D01*
X75232Y73304D01*
X75329Y73207D01*
X75426Y73159D01*
X75571Y73111D01*
X75813D01*
X75958Y73159D01*
X76055Y73207D01*
X76151Y73304D01*
X76200Y73401D01*
Y73594D01*
Y72874D02*
X75184D01*
X76200D02*
X75184Y72196D01*
X76200D02*
X75184D01*
X76055Y71239D02*
X76151Y71335D01*
X76200Y71480D01*
Y71674D01*
X76151Y71819D01*
X76055Y71916D01*
X75958D01*
X75861Y71867D01*
X75813Y71819D01*
X75764Y71722D01*
X75668Y71432D01*
X75619Y71335D01*
X75571Y71287D01*
X75474Y71239D01*
X75329D01*
X75232Y71335D01*
X75184Y71480D01*
Y71674D01*
X75232Y71819D01*
X75329Y71916D01*
X143129Y73715D02*
Y74198D01*
X142693Y74247D01*
X142742Y74198D01*
X142790Y74053D01*
Y73908D01*
X142742Y73763D01*
X142645Y73666D01*
X142500Y73618D01*
X142403D01*
X142258Y73666D01*
X142161Y73763D01*
X142113Y73908D01*
Y74053D01*
X142161Y74198D01*
X142210Y74247D01*
X142306Y74295D01*
X143129Y73390D02*
X142113Y73004D01*
X143129Y72617D02*
X142113Y73004D01*
X130937Y44704D02*
Y43688D01*
X131517D01*
X132354Y44462D02*
X132306Y44559D01*
X132209Y44655D01*
X132112Y44704D01*
X131919D01*
X131822Y44655D01*
X131725Y44559D01*
X131677Y44462D01*
X131629Y44317D01*
Y44075D01*
X131677Y43930D01*
X131725Y43833D01*
X131822Y43736D01*
X131919Y43688D01*
X132112D01*
X132209Y43736D01*
X132306Y43833D01*
X132354Y43930D01*
X132640Y44704D02*
Y43688D01*
Y44704D02*
X132978D01*
X133123Y44655D01*
X133220Y44559D01*
X133268Y44462D01*
X133317Y44317D01*
Y44075D01*
X133268Y43930D01*
X133220Y43833D01*
X133123Y43736D01*
X132978Y43688D01*
X132640D01*
X72208Y49040D02*
X72136Y49185D01*
X71991Y49330D01*
X71846Y49403D01*
X71555D01*
X71410Y49330D01*
X71265Y49185D01*
X71193Y49040D01*
X71120Y48822D01*
Y48459D01*
X71193Y48242D01*
X71265Y48097D01*
X71410Y47952D01*
X71555Y47879D01*
X71846D01*
X71991Y47952D01*
X72136Y48097D01*
X72208Y48242D01*
Y48459D01*
X71846D02*
X72208D01*
X72557Y49403D02*
Y47879D01*
Y49403D02*
X73572Y47879D01*
Y49403D02*
Y47879D01*
X73993Y49403D02*
Y47879D01*
Y49403D02*
X74501D01*
X74719Y49330D01*
X74864Y49185D01*
X74936Y49040D01*
X75009Y48822D01*
Y48459D01*
X74936Y48242D01*
X74864Y48097D01*
X74719Y47952D01*
X74501Y47879D01*
X73993D01*
X100922Y68411D02*
X101092Y68580D01*
Y68919D01*
X100922Y69088D01*
X100245D01*
X100076Y68919D01*
Y68580D01*
X100245Y68411D01*
X100076Y67395D02*
Y68072D01*
X100753Y67395D01*
X100922D01*
X101092Y67564D01*
Y67903D01*
X100922Y68072D01*
X129455Y73744D02*
X129286Y73914D01*
X128947D01*
X128778Y73744D01*
Y73067D01*
X128947Y72898D01*
X129286D01*
X129455Y73067D01*
X130302Y72898D02*
Y73914D01*
X129794Y73406D01*
X130471D01*
X119676Y73744D02*
X119507Y73914D01*
X119168D01*
X118999Y73744D01*
Y73067D01*
X119168Y72898D01*
X119507D01*
X119676Y73067D01*
X120015Y73744D02*
X120184Y73914D01*
X120523D01*
X120692Y73744D01*
Y73575D01*
X120523Y73406D01*
X120353D01*
X120523D01*
X120692Y73237D01*
Y73067D01*
X120523Y72898D01*
X120184D01*
X120015Y73067D01*
X124714Y45720D02*
Y44704D01*
X125222D01*
X125391Y44873D01*
Y45550D01*
X125222Y45720D01*
X124714D01*
X125730Y44704D02*
X126068D01*
X125899D01*
Y45720D01*
X125730Y45550D01*
X126576Y44704D02*
X126915D01*
X126745D01*
Y45720D01*
X126576Y45550D01*
X80264Y68834D02*
X79248D01*
Y68326D01*
X79417Y68157D01*
X80094D01*
X80264Y68326D01*
Y68834D01*
X80094Y67818D02*
X80264Y67649D01*
Y67310D01*
X80094Y67141D01*
X79925D01*
X79756Y67310D01*
Y67480D01*
Y67310D01*
X79587Y67141D01*
X79417D01*
X79248Y67310D01*
Y67649D01*
X79417Y67818D01*
X80518Y64643D02*
X79502D01*
Y64135D01*
X79671Y63966D01*
X80348D01*
X80518Y64135D01*
Y64643D01*
Y62950D02*
Y63627D01*
X80010D01*
X80179Y63289D01*
Y63119D01*
X80010Y62950D01*
X79671D01*
X79502Y63119D01*
Y63458D01*
X79671Y63627D01*
X82042Y64643D02*
X81026D01*
Y64135D01*
X81195Y63966D01*
X81872D01*
X82042Y64135D01*
Y64643D01*
Y62950D02*
X81872Y63289D01*
X81534Y63627D01*
X81195D01*
X81026Y63458D01*
Y63119D01*
X81195Y62950D01*
X81365D01*
X81534Y63119D01*
Y63627D01*
X83566Y64643D02*
X82550D01*
Y64135D01*
X82719Y63966D01*
X83396D01*
X83566Y64135D01*
Y64643D01*
Y63627D02*
Y62950D01*
X83396D01*
X82719Y63627D01*
X82550D01*
X73533Y53213D02*
Y52197D01*
X74041D01*
X74210Y52366D01*
Y53043D01*
X74041Y53213D01*
X73533D01*
X75226Y52197D02*
X74549D01*
X75226Y52874D01*
Y53043D01*
X75057Y53213D01*
X74718D01*
X74549Y53043D01*
X71247Y53213D02*
Y52197D01*
X71755D01*
X71924Y52366D01*
Y53043D01*
X71755Y53213D01*
X71247D01*
X72263Y52197D02*
X72601D01*
X72432D01*
Y53213D01*
X72263Y53043D01*
X99568Y69342D02*
X98552D01*
Y68834D01*
X98721Y68665D01*
X99398D01*
X99568Y68834D01*
Y69342D01*
X98721Y68326D02*
X98552Y68157D01*
Y67818D01*
X98721Y67649D01*
X99398D01*
X99568Y67818D01*
Y68157D01*
X99398Y68326D01*
X99229D01*
X99060Y68157D01*
Y67649D01*
X92710Y69342D02*
X91694D01*
Y68834D01*
X91863Y68665D01*
X92540D01*
X92710Y68834D01*
Y69342D01*
X92540Y68326D02*
X92710Y68157D01*
Y67818D01*
X92540Y67649D01*
X92371D01*
X92202Y67818D01*
X92033Y67649D01*
X91863D01*
X91694Y67818D01*
Y68157D01*
X91863Y68326D01*
X92033D01*
X92202Y68157D01*
X92371Y68326D01*
X92540D01*
X92202Y68157D02*
Y67818D01*
X77385Y51943D02*
X77047D01*
X77216D01*
Y51096D01*
X77047Y50927D01*
X76877D01*
X76708Y51096D01*
X78232Y50927D02*
Y51943D01*
X77724Y51435D01*
X78401D01*
X89069Y67818D02*
X88731D01*
X88900D01*
Y66971D01*
X88731Y66802D01*
X88561D01*
X88392Y66971D01*
X90085Y67818D02*
X89408D01*
Y66802D01*
X90085D01*
X89408Y67310D02*
X89746D01*
X90423Y66802D02*
X90762D01*
X90593D01*
Y67818D01*
X90423Y67648D01*
X103632Y72898D02*
Y73914D01*
X104140D01*
X104309Y73744D01*
Y73406D01*
X104140Y73237D01*
X103632D01*
X103971D02*
X104309Y72898D01*
X104648Y73744D02*
X104817Y73914D01*
X105156D01*
X105325Y73744D01*
Y73575D01*
X105156Y73406D01*
X104986D01*
X105156D01*
X105325Y73237D01*
Y73067D01*
X105156Y72898D01*
X104817D01*
X104648Y73067D01*
X97028Y53594D02*
X98044D01*
Y53086D01*
X97874Y52917D01*
X97536D01*
X97367Y53086D01*
Y53594D01*
Y53255D02*
X97028Y52917D01*
Y52578D02*
Y52240D01*
Y52409D01*
X98044D01*
X97874Y52578D01*
X99060Y53594D02*
X100076D01*
Y53086D01*
X99906Y52917D01*
X99568D01*
X99399Y53086D01*
Y53594D01*
Y53255D02*
X99060Y52917D01*
Y51901D02*
Y52578D01*
X99737Y51901D01*
X99906D01*
X100076Y52070D01*
Y52409D01*
X99906Y52578D01*
X113030Y72898D02*
Y73914D01*
X113538D01*
X113707Y73744D01*
Y73406D01*
X113538Y73237D01*
X113030D01*
X113369D02*
X113707Y72898D01*
X114723Y73914D02*
X114046D01*
Y73406D01*
X114384Y73575D01*
X114554D01*
X114723Y73406D01*
Y73067D01*
X114554Y72898D01*
X114215D01*
X114046Y73067D01*
X106934Y72898D02*
Y73914D01*
X107442D01*
X107611Y73744D01*
Y73406D01*
X107442Y73237D01*
X106934D01*
X107273D02*
X107611Y72898D01*
X108458D02*
Y73914D01*
X107950Y73406D01*
X108627D01*
X125222Y72898D02*
Y73914D01*
X125730D01*
X125899Y73744D01*
Y73406D01*
X125730Y73237D01*
X125222D01*
X125561D02*
X125899Y72898D01*
X126238Y73067D02*
X126407Y72898D01*
X126746D01*
X126915Y73067D01*
Y73744D01*
X126746Y73914D01*
X126407D01*
X126238Y73744D01*
Y73575D01*
X126407Y73406D01*
X126915D01*
X113792Y44704D02*
Y45720D01*
X114300D01*
X114469Y45550D01*
Y45212D01*
X114300Y45043D01*
X113792D01*
X114131D02*
X114469Y44704D01*
X115485Y45720D02*
X115146Y45550D01*
X114808Y45212D01*
Y44873D01*
X114977Y44704D01*
X115316D01*
X115485Y44873D01*
Y45043D01*
X115316Y45212D01*
X114808D01*
X127508Y44704D02*
Y45720D01*
X128016D01*
X128185Y45550D01*
Y45212D01*
X128016Y45043D01*
X127508D01*
X127847D02*
X128185Y44704D01*
X128524D02*
X128862D01*
X128693D01*
Y45720D01*
X128524Y45550D01*
X129370D02*
X129539Y45720D01*
X129878D01*
X130047Y45550D01*
Y44873D01*
X129878Y44704D01*
X129539D01*
X129370Y44873D01*
Y45550D01*
X116078Y72898D02*
Y73914D01*
X116586D01*
X116755Y73744D01*
Y73406D01*
X116586Y73237D01*
X116078D01*
X116417D02*
X116755Y72898D01*
X117094Y73914D02*
X117771D01*
Y73744D01*
X117094Y73067D01*
Y72898D01*
X121920D02*
Y73914D01*
X122428D01*
X122597Y73744D01*
Y73406D01*
X122428Y73237D01*
X121920D01*
X122259D02*
X122597Y72898D01*
X122936Y73744D02*
X123105Y73914D01*
X123444D01*
X123613Y73744D01*
Y73575D01*
X123444Y73406D01*
X123613Y73237D01*
Y73067D01*
X123444Y72898D01*
X123105D01*
X122936Y73067D01*
Y73237D01*
X123105Y73406D01*
X122936Y73575D01*
Y73744D01*
X123105Y73406D02*
X123444D01*
X149352Y72390D02*
Y71713D01*
Y72051D01*
X148336D01*
Y71374D02*
X149352D01*
Y70866D01*
X149182Y70697D01*
X148844D01*
X148675Y70866D01*
Y71374D01*
X149352Y70359D02*
Y69682D01*
X149182D01*
X148505Y70359D01*
X148336D01*
X136398Y74295D02*
Y73618D01*
Y73956D01*
X135382D01*
Y73279D02*
X136398D01*
Y72771D01*
X136228Y72602D01*
X135890D01*
X135721Y72771D01*
Y73279D01*
X136398Y71587D02*
Y72264D01*
X135890D01*
X136059Y71925D01*
Y71756D01*
X135890Y71587D01*
X135551D01*
X135382Y71756D01*
Y72094D01*
X135551Y72264D01*
X112776Y48768D02*
Y48091D01*
Y48429D01*
X111760D01*
Y47752D02*
X112776D01*
Y47244D01*
X112606Y47075D01*
X112268D01*
X112099Y47244D01*
Y47752D01*
X111760Y46060D02*
Y46737D01*
X112437Y46060D01*
X112606D01*
X112776Y46229D01*
Y46567D01*
X112606Y46737D01*
X114554Y48768D02*
Y48091D01*
Y48429D01*
X113538D01*
Y47752D02*
X114554D01*
Y47244D01*
X114384Y47075D01*
X114046D01*
X113877Y47244D01*
Y47752D01*
X114384Y46737D02*
X114554Y46567D01*
Y46229D01*
X114384Y46060D01*
X114215D01*
X114046Y46229D01*
Y46398D01*
Y46229D01*
X113877Y46060D01*
X113707D01*
X113538Y46229D01*
Y46567D01*
X113707Y46737D01*
X73152Y51181D02*
X73829D01*
X73491D01*
Y50165D01*
X74168D02*
Y51181D01*
X74676D01*
X74845Y51011D01*
Y50673D01*
X74676Y50504D01*
X74168D01*
X75183Y50165D02*
X75522D01*
X75353D01*
Y51181D01*
X75183Y51011D01*
X147955Y72390D02*
Y71713D01*
Y72051D01*
X146939D01*
Y71374D02*
X147955D01*
Y70866D01*
X147785Y70697D01*
X147447D01*
X147278Y70866D01*
Y71374D01*
X147955Y69682D02*
X147785Y70020D01*
X147447Y70359D01*
X147108D01*
X146939Y70189D01*
Y69851D01*
X147108Y69682D01*
X147278D01*
X147447Y69851D01*
Y70359D01*
X134874Y74295D02*
Y73618D01*
Y73956D01*
X133858D01*
Y73279D02*
X134874D01*
Y72771D01*
X134704Y72602D01*
X134366D01*
X134197Y72771D01*
Y73279D01*
X133858Y71756D02*
X134874D01*
X134366Y72264D01*
Y71587D01*
X118509Y63119D02*
X117928Y64643D01*
X117348Y63119D01*
X117566Y63627D02*
X118291D01*
X118864Y64643D02*
Y63119D01*
Y64643D02*
X119517D01*
X119735Y64570D01*
X119808Y64498D01*
X119880Y64352D01*
Y64207D01*
X119808Y64062D01*
X119735Y63990D01*
X119517Y63917D01*
X118864D01*
X119372D02*
X119880Y63119D01*
X120221Y64643D02*
Y63119D01*
Y64643D02*
X120729D01*
X120947Y64570D01*
X121092Y64425D01*
X121164Y64280D01*
X121237Y64062D01*
Y63699D01*
X121164Y63482D01*
X121092Y63337D01*
X120947Y63192D01*
X120729Y63119D01*
X120221D01*
X121578Y64643D02*
Y63554D01*
X121651Y63337D01*
X121796Y63192D01*
X122013Y63119D01*
X122158D01*
X122376Y63192D01*
X122521Y63337D01*
X122594Y63554D01*
Y64643D01*
X123015D02*
Y63119D01*
X123334Y64643D02*
Y63119D01*
Y64643D02*
X124350Y63119D01*
Y64643D02*
Y63119D01*
X125206Y64643D02*
X125061Y64570D01*
X124916Y64425D01*
X124843Y64280D01*
X124770Y64062D01*
Y63699D01*
X124843Y63482D01*
X124916Y63337D01*
X125061Y63192D01*
X125206Y63119D01*
X125496D01*
X125641Y63192D01*
X125786Y63337D01*
X125859Y63482D01*
X125931Y63699D01*
Y64062D01*
X125859Y64280D01*
X125786Y64425D01*
X125641Y64570D01*
X125496Y64643D01*
X125206D01*
X127484D02*
Y63119D01*
Y64643D02*
X128064Y63119D01*
X128645Y64643D02*
X128064Y63119D01*
X128645Y64643D02*
Y63119D01*
X129080Y64643D02*
Y63119D01*
X130488Y64280D02*
X130415Y64425D01*
X130270Y64570D01*
X130125Y64643D01*
X129835D01*
X129690Y64570D01*
X129545Y64425D01*
X129472Y64280D01*
X129400Y64062D01*
Y63699D01*
X129472Y63482D01*
X129545Y63337D01*
X129690Y63192D01*
X129835Y63119D01*
X130125D01*
X130270Y63192D01*
X130415Y63337D01*
X130488Y63482D01*
X130916Y64643D02*
Y63119D01*
Y64643D02*
X131569D01*
X131787Y64570D01*
X131859Y64498D01*
X131932Y64352D01*
Y64207D01*
X131859Y64062D01*
X131787Y63990D01*
X131569Y63917D01*
X130916D01*
X131424D02*
X131932Y63119D01*
X132708Y64643D02*
X132563Y64570D01*
X132418Y64425D01*
X132345Y64280D01*
X132273Y64062D01*
Y63699D01*
X132345Y63482D01*
X132418Y63337D01*
X132563Y63192D01*
X132708Y63119D01*
X132998D01*
X133143Y63192D01*
X133289Y63337D01*
X133361Y63482D01*
X133434Y63699D01*
Y64062D01*
X133361Y64280D01*
X133289Y64425D01*
X133143Y64570D01*
X132998Y64643D01*
X132708D01*
X134986D02*
Y63119D01*
Y64643D02*
X135639D01*
X135857Y64570D01*
X135930Y64498D01*
X136002Y64352D01*
Y64207D01*
X135930Y64062D01*
X135857Y63990D01*
X135639Y63917D01*
X134986D01*
X135494D02*
X136002Y63119D01*
X136488Y64643D02*
X137286D01*
X136851Y64062D01*
X137069D01*
X137214Y63990D01*
X137286Y63917D01*
X137359Y63699D01*
Y63554D01*
X137286Y63337D01*
X137141Y63192D01*
X136924Y63119D01*
X136706D01*
X136488Y63192D01*
X136416Y63264D01*
X136343Y63409D01*
X174498Y70104D02*
Y68580D01*
X173990Y70104D02*
X175006D01*
X175623D02*
X175477Y70031D01*
X175332Y69886D01*
X175260Y69741D01*
X175187Y69523D01*
Y69160D01*
X175260Y68943D01*
X175332Y68798D01*
X175477Y68653D01*
X175623Y68580D01*
X175913D01*
X176058Y68653D01*
X176203Y68798D01*
X176276Y68943D01*
X176348Y69160D01*
Y69523D01*
X176276Y69741D01*
X176203Y69886D01*
X176058Y70031D01*
X175913Y70104D01*
X175623D01*
X176704Y69306D02*
X177357D01*
X177574Y69378D01*
X177647Y69451D01*
X177719Y69596D01*
Y69813D01*
X177647Y69959D01*
X177574Y70031D01*
X177357Y70104D01*
X176704D01*
Y68580D01*
X180273Y69886D02*
X180128Y70031D01*
X179911Y70104D01*
X179620D01*
X179403Y70031D01*
X179258Y69886D01*
Y69741D01*
X179330Y69596D01*
X179403Y69523D01*
X179548Y69451D01*
X179983Y69306D01*
X180128Y69233D01*
X180201Y69160D01*
X180273Y69015D01*
Y68798D01*
X180128Y68653D01*
X179911Y68580D01*
X179620D01*
X179403Y68653D01*
X179258Y68798D01*
X180614Y70104D02*
Y68580D01*
X180934Y70104D02*
Y68580D01*
X181804D01*
X181971Y70104D02*
Y68580D01*
X182987Y70104D02*
X181971Y69088D01*
X182334Y69451D02*
X182987Y68580D01*
X184344Y69886D02*
X184199Y70031D01*
X183981Y70104D01*
X183691D01*
X183473Y70031D01*
X183328Y69886D01*
Y69741D01*
X183400Y69596D01*
X183473Y69523D01*
X183618Y69451D01*
X184053Y69306D01*
X184199Y69233D01*
X184271Y69160D01*
X184344Y69015D01*
Y68798D01*
X184199Y68653D01*
X183981Y68580D01*
X183691D01*
X183473Y68653D01*
X183328Y68798D01*
X185773Y69741D02*
X185701Y69886D01*
X185555Y70031D01*
X185410Y70104D01*
X185120D01*
X184975Y70031D01*
X184830Y69886D01*
X184757Y69741D01*
X184685Y69523D01*
Y69160D01*
X184757Y68943D01*
X184830Y68798D01*
X184975Y68653D01*
X185120Y68580D01*
X185410D01*
X185555Y68653D01*
X185701Y68798D01*
X185773Y68943D01*
X186201Y70104D02*
Y68580D01*
Y70104D02*
X186854D01*
X187072Y70031D01*
X187144Y69959D01*
X187217Y69813D01*
Y69668D01*
X187144Y69523D01*
X187072Y69451D01*
X186854Y69378D01*
X186201D01*
X186709D02*
X187217Y68580D01*
X188501Y70104D02*
X187558D01*
Y68580D01*
X188501D01*
X187558Y69378D02*
X188138D01*
X189698Y70104D02*
X188755D01*
Y68580D01*
X189698D01*
X188755Y69378D02*
X189336D01*
X189952Y70104D02*
Y68580D01*
Y70104D02*
X190968Y68580D01*
Y70104D02*
Y68580D01*
D36*
X140175Y73660D02*
G03*
X140175Y73660I-635J0D01*
G01*
X144272Y70866D02*
G03*
X144272Y70866I-635J0D01*
G01*
X72517Y50673D02*
G03*
X72517Y50673I-635J0D01*
G01*
X114681Y49530D02*
G03*
X114681Y49530I-635J0D01*
G01*
X112903D02*
G03*
X112903Y49530I-635J0D01*
G01*
X141605Y73660D02*
G03*
X141605Y73660I-635J0D01*
G01*
X146812Y70866D02*
G03*
X146812Y70866I-635J0D01*
G01*
X138430Y73660D02*
G03*
X138430Y73660I-635J0D01*
G01*
X116256Y44272D02*
X118821D01*
X116256Y43104D02*
X118821D01*
Y44272D01*
X116256Y43104D02*
Y44272D01*
X124638Y43104D02*
X127203D01*
X124638Y44272D02*
X127203D01*
X124638Y43104D02*
Y44272D01*
X127203Y43104D02*
Y44272D01*
D37*
X94867Y64096D02*
G03*
X94867Y64096I-125J0D01*
G01*
D38*
X109508Y64405D02*
G03*
X109508Y64405I-178J0D01*
G01*
D39*
X96242Y58841D02*
X98042D01*
X96242Y63841D02*
X98042D01*
Y58841D02*
Y63841D01*
X96242Y58841D02*
Y63841D01*
X134398Y43131D02*
Y43731D01*
Y43131D02*
X137098D01*
X134398Y45931D02*
Y46531D01*
X137098D01*
X138298Y44731D02*
Y44931D01*
X101030Y71705D02*
Y77455D01*
X88630D02*
X101030D01*
X88630Y71705D02*
Y77455D01*
Y71705D02*
X101030D01*
X71380Y61705D02*
X78780D01*
X71380D02*
Y67455D01*
X78780D01*
Y61705D02*
Y67455D01*
X86530Y71705D02*
Y77455D01*
X76630D02*
X86530D01*
X76630Y71705D02*
Y77455D01*
Y71705D02*
X86530D01*
X95040Y42837D02*
Y48587D01*
X77640D02*
X95040D01*
X77640Y42837D02*
Y48587D01*
Y42837D02*
X95040D01*
X84580Y68480D02*
X85580D01*
X84680Y67780D02*
X85080Y68480D01*
X85580Y67780D01*
X84680D02*
X85580D01*
X85080Y68480D02*
Y68680D01*
Y67480D02*
Y67780D01*
X81080Y68410D02*
X82080D01*
X81180Y67710D02*
X81580Y68410D01*
X82080Y67710D01*
X81180D02*
X82080D01*
X81580Y68410D02*
Y68610D01*
Y67410D02*
Y67710D01*
X84590Y61068D02*
X85590D01*
X85090D02*
X85490Y61768D01*
X84590D02*
X85090Y61068D01*
X84590Y61768D02*
X85490D01*
X85090Y60868D02*
Y61068D01*
Y61768D02*
Y62068D01*
X87638Y61068D02*
X88638D01*
X88138D02*
X88538Y61768D01*
X87638D02*
X88138Y61068D01*
X87638Y61768D02*
X88538D01*
X88138Y60868D02*
Y61068D01*
Y61768D02*
Y62068D01*
X90686Y61068D02*
X91686D01*
X91186D02*
X91586Y61768D01*
X90686D02*
X91186Y61068D01*
X90686Y61768D02*
X91586D01*
X91186Y60868D02*
Y61068D01*
Y61768D02*
Y62068D01*
X74176Y56534D02*
X75176D01*
X74276Y55834D02*
X74676Y56534D01*
X75176Y55834D01*
X74276D02*
X75176D01*
X74676Y56534D02*
Y56734D01*
Y55534D02*
Y55834D01*
X71382Y56534D02*
X72382D01*
X71482Y55834D02*
X71882Y56534D01*
X72382Y55834D01*
X71482D02*
X72382D01*
X71882Y56534D02*
Y56734D01*
Y55534D02*
Y55834D01*
X96580Y68480D02*
X97580D01*
X96680Y67780D02*
X97080Y68480D01*
X97580Y67780D01*
X96680D02*
X97580D01*
X97080Y68480D02*
Y68680D01*
Y67480D02*
Y67780D01*
X93580Y68480D02*
X94580D01*
X93680Y67780D02*
X94080Y68480D01*
X94580Y67780D01*
X93680D02*
X94580D01*
X94080Y68480D02*
Y68680D01*
Y67480D02*
Y67780D01*
X95040Y52489D02*
Y58239D01*
X77640D02*
X95040D01*
X77640Y52489D02*
Y58239D01*
Y52489D02*
X95040D01*
D40*
X84064Y70366D02*
X84826D01*
Y70493D01*
X84064D02*
X84826D01*
X84064Y70366D02*
Y70493D01*
X86096Y70366D02*
Y70493D01*
X85334D02*
X86096D01*
X85334Y70366D02*
Y70493D01*
Y70366D02*
X86096D01*
X84064Y65667D02*
Y70366D01*
X86096Y65667D02*
Y70366D01*
X84064Y65667D02*
X84405D01*
X85755D02*
X86096D01*
X80888Y60833D02*
X82688D01*
X82288Y59133D02*
X82688D01*
Y62533D01*
X82288D02*
X82688D01*
X80888D02*
X81288D01*
X80888Y59133D02*
Y62533D01*
Y59133D02*
X81288D01*
X138808Y70928D02*
Y71228D01*
Y70928D02*
X141608D01*
Y71228D01*
Y72028D02*
Y72328D01*
X138808D02*
X141608D01*
X138808Y72028D02*
Y72328D01*
X140208Y70928D02*
Y72328D01*
X141478Y45147D02*
Y46547D01*
X142748Y45147D02*
Y45339D01*
X140208Y45147D02*
X142748D01*
X140208D02*
Y45339D01*
Y46355D02*
Y46547D01*
X142748D01*
Y46355D02*
Y46547D01*
X98868Y66932D02*
X99168D01*
X98868Y64132D02*
Y66932D01*
Y64132D02*
X99168D01*
X99968D02*
X100268D01*
Y66932D01*
X99968D02*
X100268D01*
X98868Y65532D02*
X100268D01*
X131080Y72028D02*
Y72328D01*
X128280D02*
X131080D01*
X128280Y72028D02*
Y72328D01*
Y70928D02*
Y71228D01*
Y70928D02*
X131080D01*
Y71228D01*
X129680Y70928D02*
Y72328D01*
X121261Y72028D02*
Y72328D01*
X118461D02*
X121261D01*
X118461Y72028D02*
Y72328D01*
Y70928D02*
Y71228D01*
Y70928D02*
X121261D01*
Y71228D01*
X119861Y70928D02*
Y72328D01*
X80564Y70296D02*
X81326D01*
Y70423D01*
X80564D02*
X81326D01*
X80564Y70296D02*
Y70423D01*
X82596Y70296D02*
Y70423D01*
X81834D02*
X82596D01*
X81834Y70296D02*
Y70423D01*
Y70296D02*
X82596D01*
X80564Y65597D02*
Y70296D01*
X82596Y65597D02*
Y70296D01*
X80564Y65597D02*
X80905D01*
X82255D02*
X82596D01*
X85344Y59182D02*
X86106D01*
X85344Y59055D02*
Y59182D01*
Y59055D02*
X86106D01*
Y59182D01*
X84074Y59055D02*
Y59182D01*
Y59055D02*
X84836D01*
Y59182D01*
X84074D02*
X84836D01*
X86106D02*
Y63881D01*
X84074Y59182D02*
Y63881D01*
X85765D02*
X86106D01*
X84074D02*
X84415D01*
X88392Y59182D02*
X89154D01*
X88392Y59055D02*
Y59182D01*
Y59055D02*
X89154D01*
Y59182D01*
X87122Y59055D02*
Y59182D01*
Y59055D02*
X87884D01*
Y59182D01*
X87122D02*
X87884D01*
X89154D02*
Y63881D01*
X87122Y59182D02*
Y63881D01*
X88813D02*
X89154D01*
X87122D02*
X87463D01*
X91440Y59182D02*
X92202D01*
X91440Y59055D02*
Y59182D01*
Y59055D02*
X92202D01*
Y59182D01*
X90170Y59055D02*
Y59182D01*
Y59055D02*
X90932D01*
Y59182D01*
X90170D02*
X90932D01*
X92202D02*
Y63881D01*
X90170Y59182D02*
Y63881D01*
X91861D02*
X92202D01*
X90170D02*
X90511D01*
X73660Y58420D02*
X74422D01*
Y58547D01*
X73660D02*
X74422D01*
X73660Y58420D02*
Y58547D01*
X75692Y58420D02*
Y58547D01*
X74930D02*
X75692D01*
X74930Y58420D02*
Y58547D01*
Y58420D02*
X75692D01*
X73660Y53721D02*
Y58420D01*
X75692Y53721D02*
Y58420D01*
X73660Y53721D02*
X74001D01*
X75351D02*
X75692D01*
X70866Y58420D02*
X71628D01*
Y58547D01*
X70866D02*
X71628D01*
X70866Y58420D02*
Y58547D01*
X72898Y58420D02*
Y58547D01*
X72136D02*
X72898D01*
X72136Y58420D02*
Y58547D01*
Y58420D02*
X72898D01*
X70866Y53721D02*
Y58420D01*
X72898Y53721D02*
Y58420D01*
X70866Y53721D02*
X71207D01*
X72557D02*
X72898D01*
X96064Y70366D02*
X96826D01*
Y70493D01*
X96064D02*
X96826D01*
X96064Y70366D02*
Y70493D01*
X98096Y70366D02*
Y70493D01*
X97334D02*
X98096D01*
X97334Y70366D02*
Y70493D01*
Y70366D02*
X98096D01*
X96064Y65667D02*
Y70366D01*
X98096Y65667D02*
Y70366D01*
X96064Y65667D02*
X96405D01*
X97755D02*
X98096D01*
X93064Y70366D02*
X93826D01*
Y70493D01*
X93064D02*
X93826D01*
X93064Y70366D02*
Y70493D01*
X95096Y70366D02*
Y70493D01*
X94334D02*
X95096D01*
X94334Y70366D02*
Y70493D01*
Y70366D02*
X95096D01*
X93064Y65667D02*
Y70366D01*
X95096Y65667D02*
Y70366D01*
X93064Y65667D02*
X93405D01*
X94755D02*
X95096D01*
X103236Y70928D02*
Y71120D01*
Y70928D02*
X105776D01*
Y71120D01*
Y72136D02*
Y72328D01*
X103236D02*
X105776D01*
X103236Y72136D02*
Y72328D01*
X104506Y70928D02*
Y72328D01*
X98092Y54174D02*
X98284D01*
Y56714D01*
X98092D02*
X98284D01*
X96884D02*
X97076D01*
X96884Y54174D02*
Y56714D01*
Y54174D02*
X97076D01*
X96884Y55444D02*
X98284D01*
X100092Y54174D02*
X100284D01*
Y56714D01*
X100092D02*
X100284D01*
X98884D02*
X99076D01*
X98884Y54174D02*
Y56714D01*
Y54174D02*
X99076D01*
X98884Y55444D02*
X100284D01*
X112520Y70928D02*
Y71120D01*
Y70928D02*
X115060D01*
Y71120D01*
Y72136D02*
Y72328D01*
X112520D02*
X115060D01*
X112520Y72136D02*
Y72328D01*
X113790Y70928D02*
Y72328D01*
X106553Y70928D02*
Y71120D01*
Y70928D02*
X109093D01*
Y71120D01*
Y72136D02*
Y72328D01*
X106553D02*
X109093D01*
X106553Y72136D02*
Y72328D01*
X107823Y70928D02*
Y72328D01*
X124727Y70928D02*
Y71120D01*
Y70928D02*
X127267D01*
Y71120D01*
Y72136D02*
Y72328D01*
X124727D02*
X127267D01*
X124727Y72136D02*
Y72328D01*
X125997Y70928D02*
Y72328D01*
X113284Y42988D02*
Y43180D01*
Y42988D02*
X115824D01*
Y43180D01*
Y44196D02*
Y44388D01*
X113284D02*
X115824D01*
X113284Y44196D02*
Y44388D01*
X114554Y42988D02*
Y44388D01*
X130190Y44196D02*
Y44388D01*
X127650D02*
X130190D01*
X127650Y44196D02*
Y44388D01*
Y42988D02*
Y43180D01*
Y42988D02*
X130190D01*
Y43180D01*
X128920Y42988D02*
Y44388D01*
X118108Y72136D02*
Y72328D01*
X115568D02*
X118108D01*
X115568Y72136D02*
Y72328D01*
Y70928D02*
Y71120D01*
Y70928D02*
X118108D01*
Y71120D01*
X116838Y70928D02*
Y72328D01*
X124204Y72136D02*
Y72328D01*
X121664D02*
X124204D01*
X121664Y72136D02*
Y72328D01*
Y70928D02*
Y71120D01*
Y70928D02*
X124204D01*
Y71120D01*
X122934Y70928D02*
Y72328D01*
M02*
