G04 Layer_Color=8421504*
%FSLAX43Y43*%
%MOMM*%
G71*
G01*
G75*
%ADD11O,2.200X0.600*%
%ADD12R,1.200X1.200*%
%ADD13R,1.500X1.600*%
%ADD14R,0.500X0.500*%
%ADD15R,0.762X0.762*%
%ADD16R,1.200X1.200*%
%ADD17R,1.400X1.300*%
%ADD18R,0.900X1.000*%
%ADD19R,0.850X0.950*%
%ADD20R,1.000X0.900*%
%ADD21R,0.950X0.850*%
%ADD28C,0.178*%
D11*
X99542Y59436D02*
D03*
Y60706D02*
D03*
Y61976D02*
D03*
Y63246D02*
D03*
X94742Y59436D02*
D03*
Y60706D02*
D03*
Y61976D02*
D03*
Y63246D02*
D03*
D12*
X137948Y45831D02*
D03*
Y43831D02*
D03*
X85080Y69510D02*
D03*
X81580Y69440D02*
D03*
X85090Y60038D02*
D03*
X88138D02*
D03*
X91186D02*
D03*
X74676Y57564D02*
D03*
X71882D02*
D03*
X97080Y69510D02*
D03*
X94080D02*
D03*
D13*
X134748Y44831D02*
D03*
D14*
X88722Y69088D02*
D03*
X90408D02*
D03*
X88738Y65786D02*
D03*
X90424D02*
D03*
D15*
X116840Y43688D02*
D03*
X118237D02*
D03*
X126619D02*
D03*
X125222D02*
D03*
D16*
X85080Y66650D02*
D03*
X81580Y66580D02*
D03*
X85090Y62898D02*
D03*
X88138D02*
D03*
X91186D02*
D03*
X74676Y54704D02*
D03*
X71882D02*
D03*
X97080Y66650D02*
D03*
X94080D02*
D03*
D17*
X81788Y61633D02*
D03*
Y60033D02*
D03*
D18*
X139533Y71628D02*
D03*
X140883D02*
D03*
X130355D02*
D03*
X129005D02*
D03*
X120536D02*
D03*
X119186D02*
D03*
D19*
X142128Y45847D02*
D03*
X140828D02*
D03*
X105156Y71628D02*
D03*
X103856D02*
D03*
X114440D02*
D03*
X113140D02*
D03*
X108473D02*
D03*
X107173D02*
D03*
X126647D02*
D03*
X125347D02*
D03*
X115204Y43688D02*
D03*
X113904D02*
D03*
X128270D02*
D03*
X129570D02*
D03*
X116188Y71628D02*
D03*
X117488D02*
D03*
X122284D02*
D03*
X123584D02*
D03*
D20*
X99568Y66207D02*
D03*
Y64857D02*
D03*
D21*
X97584Y56094D02*
D03*
Y54794D02*
D03*
X99584Y56094D02*
D03*
Y54794D02*
D03*
D28*
X174498Y72644D02*
Y71120D01*
X173990Y72644D02*
X175006D01*
X175623D02*
X175477Y72571D01*
X175332Y72426D01*
X175260Y72281D01*
X175187Y72063D01*
Y71700D01*
X175260Y71483D01*
X175332Y71338D01*
X175477Y71193D01*
X175623Y71120D01*
X175913D01*
X176058Y71193D01*
X176203Y71338D01*
X176276Y71483D01*
X176348Y71700D01*
Y72063D01*
X176276Y72281D01*
X176203Y72426D01*
X176058Y72571D01*
X175913Y72644D01*
X175623D01*
X176704Y71846D02*
X177357D01*
X177574Y71918D01*
X177647Y71991D01*
X177719Y72136D01*
Y72353D01*
X177647Y72499D01*
X177574Y72571D01*
X177357Y72644D01*
X176704D01*
Y71120D01*
X179258Y71846D02*
X179911D01*
X180128Y71918D01*
X180201Y71991D01*
X180273Y72136D01*
Y72353D01*
X180201Y72499D01*
X180128Y72571D01*
X179911Y72644D01*
X179258D01*
Y71120D01*
X181775D02*
X181195Y72644D01*
X180614Y71120D01*
X180832Y71628D02*
X181558D01*
X183147Y72426D02*
X183001Y72571D01*
X182784Y72644D01*
X182494D01*
X182276Y72571D01*
X182131Y72426D01*
Y72281D01*
X182203Y72136D01*
X182276Y72063D01*
X182421Y71991D01*
X182856Y71846D01*
X183001Y71773D01*
X183074Y71700D01*
X183147Y71555D01*
Y71338D01*
X183001Y71193D01*
X182784Y71120D01*
X182494D01*
X182276Y71193D01*
X182131Y71338D01*
X183995Y72644D02*
Y71120D01*
X183488Y72644D02*
X184503D01*
X185628D02*
X184685D01*
Y71120D01*
X185628D01*
X184685Y71918D02*
X185265D01*
M02*
