G04 Layer_Color=32896*
%FSLAX43Y43*%
%MOMM*%
G71*
G01*
G75*
%ADD28C,0.178*%
%ADD36C,0.127*%
D28*
X233045Y20870D02*
Y19685D01*
Y20531D02*
X233299Y20785D01*
X233468Y20870D01*
X233722D01*
X233891Y20785D01*
X233976Y20531D01*
Y19685D01*
Y20531D02*
X234230Y20785D01*
X234399Y20870D01*
X234653D01*
X234823Y20785D01*
X234907Y20531D01*
Y19685D01*
X235635Y21463D02*
X235720Y21378D01*
X235805Y21463D01*
X235720Y21547D01*
X235635Y21463D01*
X235720Y20870D02*
Y19685D01*
X236118Y20870D02*
Y19685D01*
Y20531D02*
X236372Y20785D01*
X236541Y20870D01*
X236795D01*
X236964Y20785D01*
X237049Y20531D01*
Y19685D01*
X237684Y21463D02*
X237768Y21378D01*
X237853Y21463D01*
X237768Y21547D01*
X237684Y21463D01*
X237768Y20870D02*
Y19685D01*
X238166Y19092D02*
X239521D01*
X239749Y21463D02*
Y19685D01*
X241137Y20870D02*
Y19685D01*
Y20616D02*
X240968Y20785D01*
X240799Y20870D01*
X240545D01*
X240376Y20785D01*
X240206Y20616D01*
X240122Y20362D01*
Y20193D01*
X240206Y19939D01*
X240376Y19770D01*
X240545Y19685D01*
X240799D01*
X240968Y19770D01*
X241137Y19939D01*
X241865Y21463D02*
Y20024D01*
X241950Y19770D01*
X242119Y19685D01*
X242289D01*
X241611Y20870D02*
X242204D01*
X242543Y21463D02*
Y19685D01*
Y20531D02*
X242797Y20785D01*
X242966Y20870D01*
X243220D01*
X243389Y20785D01*
X243474Y20531D01*
Y19685D01*
X243939Y20362D02*
X244955D01*
Y20531D01*
X244870Y20701D01*
X244786Y20785D01*
X244616Y20870D01*
X244363D01*
X244193Y20785D01*
X244024Y20616D01*
X243939Y20362D01*
Y20193D01*
X244024Y19939D01*
X244193Y19770D01*
X244363Y19685D01*
X244616D01*
X244786Y19770D01*
X244955Y19939D01*
X245336Y19092D02*
X246690D01*
X246919Y20870D02*
Y19685D01*
Y20531D02*
X247173Y20785D01*
X247342Y20870D01*
X247596D01*
X247765Y20785D01*
X247850Y20531D01*
Y19685D01*
Y20531D02*
X248104Y20785D01*
X248273Y20870D01*
X248527D01*
X248697Y20785D01*
X248781Y20531D01*
Y19685D01*
X249763Y20870D02*
X249594Y20785D01*
X249424Y20616D01*
X249340Y20362D01*
Y20193D01*
X249424Y19939D01*
X249594Y19770D01*
X249763Y19685D01*
X250017D01*
X250186Y19770D01*
X250356Y19939D01*
X250440Y20193D01*
Y20362D01*
X250356Y20616D01*
X250186Y20785D01*
X250017Y20870D01*
X249763D01*
X251084Y21463D02*
Y20024D01*
X251168Y19770D01*
X251338Y19685D01*
X251507D01*
X250830Y20870D02*
X251422D01*
X252184D02*
X252015Y20785D01*
X251845Y20616D01*
X251761Y20362D01*
Y20193D01*
X251845Y19939D01*
X252015Y19770D01*
X252184Y19685D01*
X252438D01*
X252607Y19770D01*
X252777Y19939D01*
X252861Y20193D01*
Y20362D01*
X252777Y20616D01*
X252607Y20785D01*
X252438Y20870D01*
X252184D01*
X253251D02*
Y19685D01*
Y20362D02*
X253335Y20616D01*
X253505Y20785D01*
X253674Y20870D01*
X253928D01*
X254089Y19092D02*
X255443D01*
X255672Y20870D02*
Y19685D01*
Y20531D02*
X255926Y20785D01*
X256095Y20870D01*
X256349D01*
X256518Y20785D01*
X256603Y20531D01*
Y19685D01*
Y20531D02*
X256857Y20785D01*
X257026Y20870D01*
X257280D01*
X257449Y20785D01*
X257534Y20531D01*
Y19685D01*
X258516Y20870D02*
X258346Y20785D01*
X258177Y20616D01*
X258092Y20362D01*
Y20193D01*
X258177Y19939D01*
X258346Y19770D01*
X258516Y19685D01*
X258770D01*
X258939Y19770D01*
X259108Y19939D01*
X259193Y20193D01*
Y20362D01*
X259108Y20616D01*
X258939Y20785D01*
X258770Y20870D01*
X258516D01*
X259582D02*
Y19685D01*
Y20531D02*
X259836Y20785D01*
X260006Y20870D01*
X260259D01*
X260429Y20785D01*
X260513Y20531D01*
Y19685D01*
X261148Y21463D02*
X261233Y21378D01*
X261318Y21463D01*
X261233Y21547D01*
X261148Y21463D01*
X261233Y20870D02*
Y19685D01*
X261885Y21463D02*
Y20024D01*
X261969Y19770D01*
X262139Y19685D01*
X262308D01*
X261631Y20870D02*
X262223D01*
X262985D02*
X262816Y20785D01*
X262647Y20616D01*
X262562Y20362D01*
Y20193D01*
X262647Y19939D01*
X262816Y19770D01*
X262985Y19685D01*
X263239D01*
X263408Y19770D01*
X263578Y19939D01*
X263662Y20193D01*
Y20362D01*
X263578Y20616D01*
X263408Y20785D01*
X263239Y20870D01*
X262985D01*
X264052D02*
Y19685D01*
Y20362D02*
X264136Y20616D01*
X264306Y20785D01*
X264475Y20870D01*
X264729D01*
X309880Y13970D02*
Y12192D01*
Y13970D02*
X311065Y12192D01*
Y13970D02*
Y12192D01*
X311556Y11938D02*
X312741Y13970D01*
X314214Y12192D02*
X313537Y13970D01*
X312860Y12192D01*
X313114Y12785D02*
X313960D01*
X309880Y21590D02*
Y19812D01*
Y21590D02*
X311065Y19812D01*
Y21590D02*
Y19812D01*
X311556Y19558D02*
X312741Y21590D01*
X314214Y19812D02*
X313537Y21590D01*
X312860Y19812D01*
X313114Y20405D02*
X313960D01*
X362034Y19812D02*
X361357Y21590D01*
X360680Y19812D01*
X360934Y20405D02*
X361780D01*
X309880Y36830D02*
Y35052D01*
Y36830D02*
X310557Y35052D01*
X311234Y36830D02*
X310557Y35052D01*
X311234Y36830D02*
Y35052D01*
X312250Y36830D02*
X312081Y36745D01*
X311912Y36576D01*
X311827Y36406D01*
X311742Y36152D01*
Y35729D01*
X311827Y35475D01*
X311912Y35306D01*
X312081Y35137D01*
X312250Y35052D01*
X312589D01*
X312758Y35137D01*
X312927Y35306D01*
X313012Y35475D01*
X313097Y35729D01*
Y36152D01*
X313012Y36406D01*
X312927Y36576D01*
X312758Y36745D01*
X312589Y36830D01*
X312250D01*
X314104D02*
Y35052D01*
X313511Y36830D02*
X314697D01*
X315416D02*
X315247Y36745D01*
X315077Y36576D01*
X314993Y36406D01*
X314908Y36152D01*
Y35729D01*
X314993Y35475D01*
X315077Y35306D01*
X315247Y35137D01*
X315416Y35052D01*
X315755D01*
X315924Y35137D01*
X316093Y35306D01*
X316178Y35475D01*
X316263Y35729D01*
Y36152D01*
X316178Y36406D01*
X316093Y36576D01*
X315924Y36745D01*
X315755Y36830D01*
X315416D01*
X316677D02*
Y35052D01*
Y36830D02*
X317439D01*
X317693Y36745D01*
X317778Y36660D01*
X317862Y36491D01*
Y36322D01*
X317778Y36152D01*
X317693Y36068D01*
X317439Y35983D01*
X316677D01*
X317270D02*
X317862Y35052D01*
X319657Y36830D02*
Y35052D01*
Y36830D02*
X320334Y35052D01*
X321011Y36830D02*
X320334Y35052D01*
X321011Y36830D02*
Y35052D01*
X322027Y36830D02*
X321858Y36745D01*
X321688Y36576D01*
X321604Y36406D01*
X321519Y36152D01*
Y35729D01*
X321604Y35475D01*
X321688Y35306D01*
X321858Y35137D01*
X322027Y35052D01*
X322366D01*
X322535Y35137D01*
X322704Y35306D01*
X322789Y35475D01*
X322874Y35729D01*
Y36152D01*
X322789Y36406D01*
X322704Y36576D01*
X322535Y36745D01*
X322366Y36830D01*
X322027D01*
X323288D02*
Y35052D01*
Y36830D02*
X324473Y35052D01*
Y36830D02*
Y35052D01*
X324964Y36830D02*
Y35052D01*
X325929Y36830D02*
Y35052D01*
X325337Y36830D02*
X326522D01*
X327241D02*
X327072Y36745D01*
X326903Y36576D01*
X326818Y36406D01*
X326734Y36152D01*
Y35729D01*
X326818Y35475D01*
X326903Y35306D01*
X327072Y35137D01*
X327241Y35052D01*
X327580D01*
X327749Y35137D01*
X327919Y35306D01*
X328003Y35475D01*
X328088Y35729D01*
Y36152D01*
X328003Y36406D01*
X327919Y36576D01*
X327749Y36745D01*
X327580Y36830D01*
X327241D01*
X328503D02*
Y35052D01*
Y36830D02*
X329264D01*
X329518Y36745D01*
X329603Y36660D01*
X329688Y36491D01*
Y36322D01*
X329603Y36152D01*
X329518Y36068D01*
X329264Y35983D01*
X328503D01*
X329095D02*
X329688Y35052D01*
X269240Y29210D02*
Y27432D01*
Y29210D02*
X270002D01*
X270256Y29125D01*
X270340Y29040D01*
X270425Y28871D01*
Y28702D01*
X270340Y28532D01*
X270256Y28448D01*
X270002Y28363D01*
X269240D02*
X270002D01*
X270256Y28278D01*
X270340Y28194D01*
X270425Y28025D01*
Y27771D01*
X270340Y27601D01*
X270256Y27517D01*
X270002Y27432D01*
X269240D01*
X270908Y27601D02*
X270823Y27517D01*
X270908Y27432D01*
X270992Y27517D01*
X270908Y27601D01*
X272778Y29210D02*
Y27432D01*
X273963Y29210D02*
X272778Y28025D01*
X273202Y28448D02*
X273963Y27432D01*
X274361Y28617D02*
Y27771D01*
X274446Y27517D01*
X274615Y27432D01*
X274869D01*
X275038Y27517D01*
X275292Y27771D01*
Y28617D02*
Y27432D01*
X276689Y28363D02*
X276604Y28532D01*
X276350Y28617D01*
X276097D01*
X275843Y28532D01*
X275758Y28363D01*
X275843Y28194D01*
X276012Y28109D01*
X276435Y28025D01*
X276604Y27940D01*
X276689Y27771D01*
Y27686D01*
X276604Y27517D01*
X276350Y27432D01*
X276097D01*
X275843Y27517D01*
X275758Y27686D01*
X278077Y28363D02*
X277908Y28532D01*
X277739Y28617D01*
X277485D01*
X277315Y28532D01*
X277146Y28363D01*
X277062Y28109D01*
Y27940D01*
X277146Y27686D01*
X277315Y27517D01*
X277485Y27432D01*
X277739D01*
X277908Y27517D01*
X278077Y27686D01*
X278458Y29210D02*
Y27432D01*
Y28278D02*
X278712Y28532D01*
X278881Y28617D01*
X279135D01*
X279305Y28532D01*
X279389Y28278D01*
Y27432D01*
X280871Y28617D02*
Y27432D01*
Y28363D02*
X280701Y28532D01*
X280532Y28617D01*
X280278D01*
X280109Y28532D01*
X279940Y28363D01*
X279855Y28109D01*
Y27940D01*
X279940Y27686D01*
X280109Y27517D01*
X280278Y27432D01*
X280532D01*
X280701Y27517D01*
X280871Y27686D01*
X281345Y29210D02*
Y27432D01*
X282191Y28617D02*
X281345Y27771D01*
X281683Y28109D02*
X282276Y27432D01*
X269240Y36830D02*
Y35052D01*
Y36830D02*
X270002D01*
X270256Y36745D01*
X270340Y36660D01*
X270425Y36491D01*
Y36322D01*
X270340Y36152D01*
X270256Y36068D01*
X270002Y35983D01*
X269240D02*
X270002D01*
X270256Y35898D01*
X270340Y35814D01*
X270425Y35645D01*
Y35391D01*
X270340Y35221D01*
X270256Y35137D01*
X270002Y35052D01*
X269240D01*
X270908Y35221D02*
X270823Y35137D01*
X270908Y35052D01*
X270992Y35137D01*
X270908Y35221D01*
X272778Y36830D02*
Y35052D01*
X273963Y36830D02*
X272778Y35645D01*
X273202Y36068D02*
X273963Y35052D01*
X274361Y36237D02*
Y35391D01*
X274446Y35137D01*
X274615Y35052D01*
X274869D01*
X275038Y35137D01*
X275292Y35391D01*
Y36237D02*
Y35052D01*
X276689Y35983D02*
X276604Y36152D01*
X276350Y36237D01*
X276097D01*
X275843Y36152D01*
X275758Y35983D01*
X275843Y35814D01*
X276012Y35729D01*
X276435Y35645D01*
X276604Y35560D01*
X276689Y35391D01*
Y35306D01*
X276604Y35137D01*
X276350Y35052D01*
X276097D01*
X275843Y35137D01*
X275758Y35306D01*
X278077Y35983D02*
X277908Y36152D01*
X277739Y36237D01*
X277485D01*
X277315Y36152D01*
X277146Y35983D01*
X277062Y35729D01*
Y35560D01*
X277146Y35306D01*
X277315Y35137D01*
X277485Y35052D01*
X277739D01*
X277908Y35137D01*
X278077Y35306D01*
X278458Y36830D02*
Y35052D01*
Y35898D02*
X278712Y36152D01*
X278881Y36237D01*
X279135D01*
X279305Y36152D01*
X279389Y35898D01*
Y35052D01*
X280871Y36237D02*
Y35052D01*
Y35983D02*
X280701Y36152D01*
X280532Y36237D01*
X280278D01*
X280109Y36152D01*
X279940Y35983D01*
X279855Y35729D01*
Y35560D01*
X279940Y35306D01*
X280109Y35137D01*
X280278Y35052D01*
X280532D01*
X280701Y35137D01*
X280871Y35306D01*
X281345Y36830D02*
Y35052D01*
X282191Y36237D02*
X281345Y35391D01*
X281683Y35729D02*
X282276Y35052D01*
X36356Y244517D02*
X36525Y244602D01*
X36779Y244856D01*
Y243078D01*
X99830Y244432D02*
Y244517D01*
X99915Y244686D01*
X100000Y244771D01*
X100169Y244856D01*
X100508D01*
X100677Y244771D01*
X100762Y244686D01*
X100846Y244517D01*
Y244348D01*
X100762Y244178D01*
X100592Y243924D01*
X99746Y243078D01*
X100931D01*
X163144Y244856D02*
X164076D01*
X163568Y244178D01*
X163822D01*
X163991Y244094D01*
X164076Y244009D01*
X164160Y243755D01*
Y243586D01*
X164076Y243332D01*
X163906Y243163D01*
X163652Y243078D01*
X163398D01*
X163144Y243163D01*
X163060Y243247D01*
X162975Y243417D01*
X227491Y244856D02*
X226644Y243671D01*
X227914D01*
X227491Y244856D02*
Y243078D01*
X291135Y244856D02*
X290288D01*
X290203Y244094D01*
X290288Y244178D01*
X290542Y244263D01*
X290796D01*
X291050Y244178D01*
X291219Y244009D01*
X291304Y243755D01*
Y243586D01*
X291219Y243332D01*
X291050Y243163D01*
X290796Y243078D01*
X290542D01*
X290288Y243163D01*
X290203Y243247D01*
X290119Y243417D01*
X354762Y244602D02*
X354677Y244771D01*
X354423Y244856D01*
X354254D01*
X354000Y244771D01*
X353830Y244517D01*
X353746Y244094D01*
Y243671D01*
X353830Y243332D01*
X354000Y243163D01*
X354254Y243078D01*
X354338D01*
X354592Y243163D01*
X354762Y243332D01*
X354846Y243586D01*
Y243671D01*
X354762Y243924D01*
X354592Y244094D01*
X354338Y244178D01*
X354254D01*
X354000Y244094D01*
X353830Y243924D01*
X353746Y243671D01*
X384259Y214046D02*
X383582Y215823D01*
X382905Y214046D01*
X383159Y214638D02*
X384005D01*
X382905Y155371D02*
Y153594D01*
Y155371D02*
X383667D01*
X383921Y155287D01*
X384005Y155202D01*
X384090Y155033D01*
Y154864D01*
X384005Y154694D01*
X383921Y154610D01*
X383667Y154525D01*
X382905D02*
X383667D01*
X383921Y154440D01*
X384005Y154356D01*
X384090Y154186D01*
Y153932D01*
X384005Y153763D01*
X383921Y153678D01*
X383667Y153594D01*
X382905D01*
X384175Y94623D02*
X384090Y94792D01*
X383921Y94962D01*
X383751Y95046D01*
X383413D01*
X383244Y94962D01*
X383074Y94792D01*
X382990Y94623D01*
X382905Y94369D01*
Y93946D01*
X382990Y93692D01*
X383074Y93523D01*
X383244Y93353D01*
X383413Y93269D01*
X383751D01*
X383921Y93353D01*
X384090Y93523D01*
X384175Y93692D01*
X382905Y34848D02*
Y33071D01*
Y34848D02*
X383498D01*
X383751Y34764D01*
X383921Y34594D01*
X384005Y34425D01*
X384090Y34171D01*
Y33748D01*
X384005Y33494D01*
X383921Y33325D01*
X383751Y33155D01*
X383498Y33071D01*
X382905D01*
X8339Y214046D02*
X7662Y215823D01*
X6985Y214046D01*
X7239Y214638D02*
X8085D01*
X6985Y155371D02*
Y153594D01*
Y155371D02*
X7747D01*
X8001Y155287D01*
X8085Y155202D01*
X8170Y155033D01*
Y154864D01*
X8085Y154694D01*
X8001Y154610D01*
X7747Y154525D01*
X6985D02*
X7747D01*
X8001Y154440D01*
X8085Y154356D01*
X8170Y154186D01*
Y153932D01*
X8085Y153763D01*
X8001Y153678D01*
X7747Y153594D01*
X6985D01*
X8255Y94623D02*
X8170Y94792D01*
X8001Y94962D01*
X7831Y95046D01*
X7493D01*
X7324Y94962D01*
X7154Y94792D01*
X7070Y94623D01*
X6985Y94369D01*
Y93946D01*
X7070Y93692D01*
X7154Y93523D01*
X7324Y93353D01*
X7493Y93269D01*
X7831D01*
X8001Y93353D01*
X8170Y93523D01*
X8255Y93692D01*
X6985Y34848D02*
Y33071D01*
Y34848D02*
X7578D01*
X7831Y34764D01*
X8001Y34594D01*
X8085Y34425D01*
X8170Y34171D01*
Y33748D01*
X8085Y33494D01*
X8001Y33325D01*
X7831Y33155D01*
X7578Y33071D01*
X6985D01*
X36356Y8297D02*
X36525Y8382D01*
X36779Y8636D01*
Y6858D01*
X99830Y8212D02*
Y8297D01*
X99915Y8466D01*
X100000Y8551D01*
X100169Y8636D01*
X100508D01*
X100677Y8551D01*
X100762Y8466D01*
X100846Y8297D01*
Y8128D01*
X100762Y7958D01*
X100592Y7704D01*
X99746Y6858D01*
X100931D01*
X163144Y8636D02*
X164076D01*
X163568Y7958D01*
X163822D01*
X163991Y7874D01*
X164076Y7789D01*
X164160Y7535D01*
Y7366D01*
X164076Y7112D01*
X163906Y6943D01*
X163652Y6858D01*
X163398D01*
X163144Y6943D01*
X163060Y7027D01*
X162975Y7197D01*
X227491Y8636D02*
X226644Y7451D01*
X227914D01*
X227491Y8636D02*
Y6858D01*
X291135Y8636D02*
X290288D01*
X290203Y7874D01*
X290288Y7958D01*
X290542Y8043D01*
X290796D01*
X291050Y7958D01*
X291219Y7789D01*
X291304Y7535D01*
Y7366D01*
X291219Y7112D01*
X291050Y6943D01*
X290796Y6858D01*
X290542D01*
X290288Y6943D01*
X290203Y7027D01*
X290119Y7197D01*
X354762Y8382D02*
X354677Y8551D01*
X354423Y8636D01*
X354254D01*
X354000Y8551D01*
X353830Y8297D01*
X353746Y7874D01*
Y7451D01*
X353830Y7112D01*
X354000Y6943D01*
X354254Y6858D01*
X354338D01*
X354592Y6943D01*
X354762Y7112D01*
X354846Y7366D01*
Y7451D01*
X354762Y7704D01*
X354592Y7874D01*
X354338Y7958D01*
X354254D01*
X354000Y7874D01*
X353830Y7704D01*
X353746Y7451D01*
X269240Y21251D02*
X269409Y21336D01*
X269663Y21590D01*
Y19812D01*
X270544Y19558D02*
X271729Y21590D01*
X271932Y21166D02*
Y21251D01*
X272016Y21420D01*
X272101Y21505D01*
X272270Y21590D01*
X272609D01*
X272778Y21505D01*
X272863Y21420D01*
X272948Y21251D01*
Y21082D01*
X272863Y20912D01*
X272694Y20658D01*
X271847Y19812D01*
X273032D01*
X273853Y21590D02*
X273599Y21505D01*
X273515Y21336D01*
Y21166D01*
X273599Y20997D01*
X273769Y20912D01*
X274107Y20828D01*
X274361Y20743D01*
X274531Y20574D01*
X274615Y20405D01*
Y20151D01*
X274531Y19981D01*
X274446Y19897D01*
X274192Y19812D01*
X273853D01*
X273599Y19897D01*
X273515Y19981D01*
X273430Y20151D01*
Y20405D01*
X273515Y20574D01*
X273684Y20743D01*
X273938Y20828D01*
X274277Y20912D01*
X274446Y20997D01*
X274531Y21166D01*
Y21336D01*
X274446Y21505D01*
X274192Y21590D01*
X273853D01*
X275013Y19558D02*
X276198Y21590D01*
X276401Y21166D02*
Y21251D01*
X276486Y21420D01*
X276571Y21505D01*
X276740Y21590D01*
X277078D01*
X277248Y21505D01*
X277332Y21420D01*
X277417Y21251D01*
Y21082D01*
X277332Y20912D01*
X277163Y20658D01*
X276317Y19812D01*
X277502D01*
X278407Y21590D02*
X278154Y21505D01*
X277984Y21251D01*
X277900Y20828D01*
Y20574D01*
X277984Y20151D01*
X278154Y19897D01*
X278407Y19812D01*
X278577D01*
X278831Y19897D01*
X279000Y20151D01*
X279085Y20574D01*
Y20828D01*
X279000Y21251D01*
X278831Y21505D01*
X278577Y21590D01*
X278407D01*
X279482Y21251D02*
X279652Y21336D01*
X279906Y21590D01*
Y19812D01*
X281209Y21590D02*
X280955Y21505D01*
X280871Y21336D01*
Y21166D01*
X280955Y20997D01*
X281125Y20912D01*
X281463Y20828D01*
X281717Y20743D01*
X281887Y20574D01*
X281971Y20405D01*
Y20151D01*
X281887Y19981D01*
X281802Y19897D01*
X281548Y19812D01*
X281209D01*
X280955Y19897D01*
X280871Y19981D01*
X280786Y20151D01*
Y20405D01*
X280871Y20574D01*
X281040Y20743D01*
X281294Y20828D01*
X281633Y20912D01*
X281802Y20997D01*
X281887Y21166D01*
Y21336D01*
X281802Y21505D01*
X281548Y21590D01*
X281209D01*
X269240Y13377D02*
Y12192D01*
Y13038D02*
X269494Y13292D01*
X269663Y13377D01*
X269917D01*
X270086Y13292D01*
X270171Y13038D01*
Y12192D01*
Y13038D02*
X270425Y13292D01*
X270594Y13377D01*
X270848D01*
X271018Y13292D01*
X271102Y13038D01*
Y12192D01*
X271830Y13970D02*
X271915Y13885D01*
X272000Y13970D01*
X271915Y14054D01*
X271830Y13970D01*
X271915Y13377D02*
Y12192D01*
X272313Y13377D02*
Y12192D01*
Y13038D02*
X272567Y13292D01*
X272736Y13377D01*
X272990D01*
X273159Y13292D01*
X273244Y13038D01*
Y12192D01*
X273879Y13970D02*
X273963Y13885D01*
X274048Y13970D01*
X273963Y14054D01*
X273879Y13970D01*
X273963Y13377D02*
Y12192D01*
X274361Y11599D02*
X275716D01*
X275944Y13970D02*
Y12192D01*
X277332Y13377D02*
Y12192D01*
Y13123D02*
X277163Y13292D01*
X276994Y13377D01*
X276740D01*
X276571Y13292D01*
X276401Y13123D01*
X276317Y12869D01*
Y12700D01*
X276401Y12446D01*
X276571Y12277D01*
X276740Y12192D01*
X276994D01*
X277163Y12277D01*
X277332Y12446D01*
X278060Y13970D02*
Y12531D01*
X278145Y12277D01*
X278314Y12192D01*
X278484D01*
X277806Y13377D02*
X278399D01*
X278738Y13970D02*
Y12192D01*
Y13038D02*
X278992Y13292D01*
X279161Y13377D01*
X279415D01*
X279584Y13292D01*
X279669Y13038D01*
Y12192D01*
X280134Y12869D02*
X281150D01*
Y13038D01*
X281065Y13208D01*
X280981Y13292D01*
X280811Y13377D01*
X280557D01*
X280388Y13292D01*
X280219Y13123D01*
X280134Y12869D01*
Y12700D01*
X280219Y12446D01*
X280388Y12277D01*
X280557Y12192D01*
X280811D01*
X280981Y12277D01*
X281150Y12446D01*
X281531Y11599D02*
X282885D01*
X283114Y13377D02*
Y12192D01*
Y13038D02*
X283368Y13292D01*
X283537Y13377D01*
X283791D01*
X283960Y13292D01*
X284045Y13038D01*
Y12192D01*
Y13038D02*
X284299Y13292D01*
X284468Y13377D01*
X284722D01*
X284892Y13292D01*
X284976Y13038D01*
Y12192D01*
X285958Y13377D02*
X285789Y13292D01*
X285619Y13123D01*
X285535Y12869D01*
Y12700D01*
X285619Y12446D01*
X285789Y12277D01*
X285958Y12192D01*
X286212D01*
X286381Y12277D01*
X286551Y12446D01*
X286635Y12700D01*
Y12869D01*
X286551Y13123D01*
X286381Y13292D01*
X286212Y13377D01*
X285958D01*
X287279Y13970D02*
Y12531D01*
X287363Y12277D01*
X287533Y12192D01*
X287702D01*
X287025Y13377D02*
X287617D01*
X288379D02*
X288210Y13292D01*
X288040Y13123D01*
X287956Y12869D01*
Y12700D01*
X288040Y12446D01*
X288210Y12277D01*
X288379Y12192D01*
X288633D01*
X288802Y12277D01*
X288972Y12446D01*
X289056Y12700D01*
Y12869D01*
X288972Y13123D01*
X288802Y13292D01*
X288633Y13377D01*
X288379D01*
X289446D02*
Y12192D01*
Y12869D02*
X289530Y13123D01*
X289700Y13292D01*
X289869Y13377D01*
X290123D01*
X290284Y11599D02*
X291638D01*
X291867Y13377D02*
Y12192D01*
Y13038D02*
X292121Y13292D01*
X292290Y13377D01*
X292544D01*
X292713Y13292D01*
X292798Y13038D01*
Y12192D01*
Y13038D02*
X293052Y13292D01*
X293221Y13377D01*
X293475D01*
X293644Y13292D01*
X293729Y13038D01*
Y12192D01*
X294711Y13377D02*
X294541Y13292D01*
X294372Y13123D01*
X294288Y12869D01*
Y12700D01*
X294372Y12446D01*
X294541Y12277D01*
X294711Y12192D01*
X294965D01*
X295134Y12277D01*
X295303Y12446D01*
X295388Y12700D01*
Y12869D01*
X295303Y13123D01*
X295134Y13292D01*
X294965Y13377D01*
X294711D01*
X295777D02*
Y12192D01*
Y13038D02*
X296031Y13292D01*
X296201Y13377D01*
X296454D01*
X296624Y13292D01*
X296708Y13038D01*
Y12192D01*
X297343Y13970D02*
X297428Y13885D01*
X297513Y13970D01*
X297428Y14054D01*
X297343Y13970D01*
X297428Y13377D02*
Y12192D01*
X298080Y13970D02*
Y12531D01*
X298164Y12277D01*
X298334Y12192D01*
X298503D01*
X297826Y13377D02*
X298418D01*
X299180D02*
X299011Y13292D01*
X298842Y13123D01*
X298757Y12869D01*
Y12700D01*
X298842Y12446D01*
X299011Y12277D01*
X299180Y12192D01*
X299434D01*
X299603Y12277D01*
X299773Y12446D01*
X299857Y12700D01*
Y12869D01*
X299773Y13123D01*
X299603Y13292D01*
X299434Y13377D01*
X299180D01*
X300247D02*
Y12192D01*
Y12869D02*
X300331Y13123D01*
X300501Y13292D01*
X300670Y13377D01*
X300924D01*
X301169Y12361D02*
X301085Y12277D01*
X301169Y12192D01*
X301254Y12277D01*
X301169Y12361D01*
X301643Y13038D02*
X302405D01*
X302659Y13123D01*
X302744Y13208D01*
X302829Y13377D01*
Y13631D01*
X302744Y13800D01*
X302659Y13885D01*
X302405Y13970D01*
X301643D01*
Y12192D01*
X304242Y13123D02*
X304073Y13292D01*
X303904Y13377D01*
X303650D01*
X303480Y13292D01*
X303311Y13123D01*
X303226Y12869D01*
Y12700D01*
X303311Y12446D01*
X303480Y12277D01*
X303650Y12192D01*
X303904D01*
X304073Y12277D01*
X304242Y12446D01*
X304623Y13970D02*
Y12192D01*
Y13123D02*
X304792Y13292D01*
X304962Y13377D01*
X305216D01*
X305385Y13292D01*
X305554Y13123D01*
X305639Y12869D01*
Y12700D01*
X305554Y12446D01*
X305385Y12277D01*
X305216Y12192D01*
X304962D01*
X304792Y12277D01*
X304623Y12446D01*
X306020Y13970D02*
Y12192D01*
Y13970D02*
X306612D01*
X306866Y13885D01*
X307036Y13716D01*
X307120Y13546D01*
X307205Y13292D01*
Y12869D01*
X307120Y12615D01*
X307036Y12446D01*
X306866Y12277D01*
X306612Y12192D01*
X306020D01*
X308026Y13377D02*
X307857Y13292D01*
X307687Y13123D01*
X307603Y12869D01*
Y12700D01*
X307687Y12446D01*
X307857Y12277D01*
X308026Y12192D01*
X308280D01*
X308449Y12277D01*
X308618Y12446D01*
X308703Y12700D01*
Y12869D01*
X308618Y13123D01*
X308449Y13292D01*
X308280Y13377D01*
X308026D01*
X310108Y13123D02*
X309939Y13292D01*
X309770Y13377D01*
X309516D01*
X309346Y13292D01*
X309177Y13123D01*
X309093Y12869D01*
Y12700D01*
X309177Y12446D01*
X309346Y12277D01*
X309516Y12192D01*
X309770D01*
X309939Y12277D01*
X310108Y12446D01*
X233045Y27813D02*
Y26035D01*
Y26881D02*
X233299Y27135D01*
X233468Y27220D01*
X233722D01*
X233891Y27135D01*
X233976Y26881D01*
Y26035D01*
X234696Y27813D02*
Y26374D01*
X234780Y26120D01*
X234950Y26035D01*
X235119D01*
X234442Y27220D02*
X235034D01*
X235627Y27813D02*
Y26374D01*
X235711Y26120D01*
X235881Y26035D01*
X236050D01*
X235373Y27220D02*
X235965D01*
X236304D02*
Y25442D01*
Y26966D02*
X236473Y27135D01*
X236643Y27220D01*
X236897D01*
X237066Y27135D01*
X237235Y26966D01*
X237320Y26712D01*
Y26543D01*
X237235Y26289D01*
X237066Y26120D01*
X236897Y26035D01*
X236643D01*
X236473Y26120D01*
X236304Y26289D01*
X238632Y26966D02*
X238547Y27135D01*
X238293Y27220D01*
X238039D01*
X237785Y27135D01*
X237701Y26966D01*
X237785Y26797D01*
X237955Y26712D01*
X238378Y26628D01*
X238547Y26543D01*
X238632Y26374D01*
Y26289D01*
X238547Y26120D01*
X238293Y26035D01*
X238039D01*
X237785Y26120D01*
X237701Y26289D01*
X239089Y27220D02*
X239004Y27135D01*
X239089Y27051D01*
X239174Y27135D01*
X239089Y27220D01*
Y26204D02*
X239004Y26120D01*
X239089Y26035D01*
X239174Y26120D01*
X239089Y26204D01*
X239563Y25781D02*
X240748Y27813D01*
X240867Y25781D02*
X242052Y27813D01*
X243186Y27220D02*
Y25866D01*
X243101Y25612D01*
X243017Y25527D01*
X242847Y25442D01*
X242593D01*
X242424Y25527D01*
X243186Y26966D02*
X243017Y27135D01*
X242847Y27220D01*
X242593D01*
X242424Y27135D01*
X242255Y26966D01*
X242170Y26712D01*
Y26543D01*
X242255Y26289D01*
X242424Y26120D01*
X242593Y26035D01*
X242847D01*
X243017Y26120D01*
X243186Y26289D01*
X243829Y27813D02*
X243914Y27728D01*
X243999Y27813D01*
X243914Y27897D01*
X243829Y27813D01*
X243914Y27220D02*
Y26035D01*
X244566Y27813D02*
Y26374D01*
X244650Y26120D01*
X244820Y26035D01*
X244989D01*
X244312Y27220D02*
X244904D01*
X245243Y27813D02*
Y26035D01*
Y26881D02*
X245497Y27135D01*
X245666Y27220D01*
X245920D01*
X246089Y27135D01*
X246174Y26881D01*
Y26035D01*
X246640Y27220D02*
Y26374D01*
X246724Y26120D01*
X246893Y26035D01*
X247147D01*
X247317Y26120D01*
X247571Y26374D01*
Y27220D02*
Y26035D01*
X248036Y27813D02*
Y26035D01*
Y26966D02*
X248206Y27135D01*
X248375Y27220D01*
X248629D01*
X248798Y27135D01*
X248967Y26966D01*
X249052Y26712D01*
Y26543D01*
X248967Y26289D01*
X248798Y26120D01*
X248629Y26035D01*
X248375D01*
X248206Y26120D01*
X248036Y26289D01*
X249518Y26204D02*
X249433Y26120D01*
X249518Y26035D01*
X249602Y26120D01*
X249518Y26204D01*
X251007Y26966D02*
X250838Y27135D01*
X250669Y27220D01*
X250415D01*
X250246Y27135D01*
X250076Y26966D01*
X249992Y26712D01*
Y26543D01*
X250076Y26289D01*
X250246Y26120D01*
X250415Y26035D01*
X250669D01*
X250838Y26120D01*
X251007Y26289D01*
X251812Y27220D02*
X251642Y27135D01*
X251473Y26966D01*
X251388Y26712D01*
Y26543D01*
X251473Y26289D01*
X251642Y26120D01*
X251812Y26035D01*
X252066D01*
X252235Y26120D01*
X252404Y26289D01*
X252489Y26543D01*
Y26712D01*
X252404Y26966D01*
X252235Y27135D01*
X252066Y27220D01*
X251812D01*
X252878D02*
Y26035D01*
Y26881D02*
X253132Y27135D01*
X253301Y27220D01*
X253555D01*
X253725Y27135D01*
X253809Y26881D01*
Y26035D01*
Y26881D02*
X254063Y27135D01*
X254233Y27220D01*
X254486D01*
X254656Y27135D01*
X254740Y26881D01*
Y26035D01*
X255299Y25781D02*
X256484Y27813D01*
X233045Y24638D02*
Y22860D01*
Y23791D02*
X233214Y23960D01*
X233384Y24045D01*
X233638D01*
X233807Y23960D01*
X233976Y23791D01*
X234061Y23537D01*
Y23368D01*
X233976Y23114D01*
X233807Y22945D01*
X233638Y22860D01*
X233384D01*
X233214Y22945D01*
X233045Y23114D01*
X234442Y24638D02*
Y22860D01*
X235288Y24045D02*
X234442Y23199D01*
X234780Y23537D02*
X235373Y22860D01*
X235652Y24045D02*
Y23199D01*
X235737Y22945D01*
X235906Y22860D01*
X236160D01*
X236329Y22945D01*
X236583Y23199D01*
Y24045D02*
Y22860D01*
X237980Y23791D02*
X237895Y23960D01*
X237641Y24045D01*
X237387D01*
X237134Y23960D01*
X237049Y23791D01*
X237134Y23622D01*
X237303Y23537D01*
X237726Y23453D01*
X237895Y23368D01*
X237980Y23199D01*
Y23114D01*
X237895Y22945D01*
X237641Y22860D01*
X237387D01*
X237134Y22945D01*
X237049Y23114D01*
X239368Y23791D02*
X239199Y23960D01*
X239030Y24045D01*
X238776D01*
X238606Y23960D01*
X238437Y23791D01*
X238352Y23537D01*
Y23368D01*
X238437Y23114D01*
X238606Y22945D01*
X238776Y22860D01*
X239030D01*
X239199Y22945D01*
X239368Y23114D01*
X239749Y24638D02*
Y22860D01*
Y23706D02*
X240003Y23960D01*
X240172Y24045D01*
X240426D01*
X240596Y23960D01*
X240680Y23706D01*
Y22860D01*
X242162Y24045D02*
Y22860D01*
Y23791D02*
X241992Y23960D01*
X241823Y24045D01*
X241569D01*
X241400Y23960D01*
X241231Y23791D01*
X241146Y23537D01*
Y23368D01*
X241231Y23114D01*
X241400Y22945D01*
X241569Y22860D01*
X241823D01*
X241992Y22945D01*
X242162Y23114D01*
X242636Y24638D02*
Y22860D01*
X243482Y24045D02*
X242636Y23199D01*
X242974Y23537D02*
X243567Y22860D01*
X243846Y22606D02*
X245031Y24638D01*
D36*
X322580Y241300D02*
Y246380D01*
X259080Y241300D02*
Y246380D01*
X195580Y241300D02*
Y246380D01*
X132080Y241300D02*
Y246380D01*
X10160Y241300D02*
X381000D01*
X5080Y246380D02*
X386080D01*
X68580Y241300D02*
Y246380D01*
X381000Y10160D02*
Y241300D01*
X386080Y5080D02*
Y246380D01*
X381000Y186055D02*
X386080D01*
X381000Y125730D02*
X386080D01*
X381000Y65405D02*
X386080D01*
X322580Y5080D02*
Y10160D01*
X259080Y5080D02*
Y10160D01*
X195580Y5080D02*
Y10160D01*
X132080Y5080D02*
Y10160D01*
X381000D02*
Y40640D01*
X5080Y5080D02*
Y246380D01*
Y5080D02*
X386080D01*
X10160Y10160D02*
Y241300D01*
Y10160D02*
X381000D01*
X5080Y186055D02*
X10160D01*
X5080Y125730D02*
X10160D01*
X5080Y65405D02*
X10160D01*
X68580Y5080D02*
Y10160D01*
X231140D02*
X266700D01*
X231140D02*
Y40640D01*
X266700D01*
Y33020D02*
X304800D01*
X266700Y10160D02*
X381000D01*
X266700Y17780D02*
X381000D01*
X266700Y25400D02*
X381000D01*
X266700Y40640D02*
X304800D01*
Y25400D02*
Y40640D01*
X381000D01*
X266700Y10160D02*
Y40640D01*
X358140Y10160D02*
Y25400D01*
X304800Y10160D02*
Y25400D01*
X267970Y24003D02*
Y22860D01*
Y24003D02*
X268351D01*
X268514Y23948D01*
X268623Y23840D01*
X268677Y23731D01*
X268732Y23567D01*
Y23295D01*
X268677Y23132D01*
X268623Y23023D01*
X268514Y22914D01*
X268351Y22860D01*
X267970D01*
X269858D02*
X269423Y24003D01*
X268988Y22860D01*
X269151Y23241D02*
X269695D01*
X270506Y24003D02*
Y22860D01*
X270125Y24003D02*
X270887D01*
X271730D02*
X271023D01*
Y22860D01*
X271730D01*
X271023Y23459D02*
X271458D01*
X271975Y23622D02*
X271921Y23567D01*
X271975Y23513D01*
X272030Y23567D01*
X271975Y23622D01*
Y22969D02*
X271921Y22914D01*
X271975Y22860D01*
X272030Y22914D01*
X271975Y22969D01*
X359410Y24003D02*
Y22860D01*
Y24003D02*
X359900D01*
X360063Y23948D01*
X360117Y23894D01*
X360172Y23785D01*
Y23676D01*
X360117Y23567D01*
X360063Y23513D01*
X359900Y23459D01*
X359410D01*
X359791D02*
X360172Y22860D01*
X361135Y24003D02*
X360428D01*
Y22860D01*
X361135D01*
X360428Y23459D02*
X360863D01*
X361325Y24003D02*
X361761Y22860D01*
X362196Y24003D02*
X361761Y22860D01*
X362397Y23622D02*
X362343Y23567D01*
X362397Y23513D01*
X362452Y23567D01*
X362397Y23622D01*
Y22969D02*
X362343Y22914D01*
X362397Y22860D01*
X362452Y22914D01*
X362397Y22969D01*
X306070Y16383D02*
Y15240D01*
Y16383D02*
X306451D01*
X306614Y16328D01*
X306723Y16220D01*
X306777Y16111D01*
X306832Y15947D01*
Y15675D01*
X306777Y15512D01*
X306723Y15403D01*
X306614Y15294D01*
X306451Y15240D01*
X306070D01*
X307088Y16383D02*
X307360Y15240D01*
X307632Y16383D02*
X307360Y15240D01*
X307632Y16383D02*
X307904Y15240D01*
X308176Y16383D02*
X307904Y15240D01*
X309221Y16111D02*
X309166Y16220D01*
X309057Y16328D01*
X308949Y16383D01*
X308731D01*
X308622Y16328D01*
X308513Y16220D01*
X308459Y16111D01*
X308404Y15947D01*
Y15675D01*
X308459Y15512D01*
X308513Y15403D01*
X308622Y15294D01*
X308731Y15240D01*
X308949D01*
X309057Y15294D01*
X309166Y15403D01*
X309221Y15512D01*
Y15675D01*
X308949D02*
X309221D01*
X310380Y16383D02*
Y15240D01*
Y16383D02*
X311142Y15240D01*
Y16383D02*
Y15240D01*
X311784Y16383D02*
X311675Y16328D01*
X311566Y16220D01*
X311512Y16111D01*
X311457Y15947D01*
Y15675D01*
X311512Y15512D01*
X311566Y15403D01*
X311675Y15294D01*
X311784Y15240D01*
X312001D01*
X312110Y15294D01*
X312219Y15403D01*
X312274Y15512D01*
X312328Y15675D01*
Y15947D01*
X312274Y16111D01*
X312219Y16220D01*
X312110Y16328D01*
X312001Y16383D01*
X311784D01*
X312649Y16002D02*
X312595Y15947D01*
X312649Y15893D01*
X312703Y15947D01*
X312649Y16002D01*
Y15349D02*
X312595Y15294D01*
X312649Y15240D01*
X312703Y15294D01*
X312649Y15349D01*
X268677Y39243D02*
X267970D01*
Y38100D01*
X268677D01*
X267970Y38699D02*
X268405D01*
X268868Y39243D02*
Y38100D01*
Y39243D02*
X269630Y38100D01*
Y39243D02*
Y38100D01*
X270762Y38971D02*
X270707Y39080D01*
X270598Y39188D01*
X270490Y39243D01*
X270272D01*
X270163Y39188D01*
X270054Y39080D01*
X270000Y38971D01*
X269945Y38807D01*
Y38535D01*
X270000Y38372D01*
X270054Y38263D01*
X270163Y38154D01*
X270272Y38100D01*
X270490D01*
X270598Y38154D01*
X270707Y38263D01*
X270762Y38372D01*
Y38535D01*
X270490D02*
X270762D01*
X271023Y39243D02*
Y38100D01*
X271262Y39243D02*
Y38100D01*
Y39243D02*
X272024Y38100D01*
Y39243D02*
Y38100D01*
X273047Y39243D02*
X272340D01*
Y38100D01*
X273047D01*
X272340Y38699D02*
X272775D01*
X273945Y39243D02*
X273238D01*
Y38100D01*
X273945D01*
X273238Y38699D02*
X273673D01*
X274135Y39243D02*
Y38100D01*
Y39243D02*
X274625D01*
X274788Y39188D01*
X274843Y39134D01*
X274897Y39025D01*
Y38916D01*
X274843Y38807D01*
X274788Y38753D01*
X274625Y38699D01*
X274135D01*
X274516D02*
X274897Y38100D01*
X275207Y38862D02*
X275153Y38807D01*
X275207Y38753D01*
X275262Y38807D01*
X275207Y38862D01*
Y38209D02*
X275153Y38154D01*
X275207Y38100D01*
X275262Y38154D01*
X275207Y38209D01*
X306070Y23404D02*
X306560D01*
X306723Y23459D01*
X306777Y23513D01*
X306832Y23622D01*
Y23785D01*
X306777Y23894D01*
X306723Y23948D01*
X306560Y24003D01*
X306070D01*
Y22860D01*
X307958D02*
X307523Y24003D01*
X307088Y22860D01*
X307251Y23241D02*
X307795D01*
X308225Y24003D02*
Y22860D01*
Y24003D02*
X308715D01*
X308878Y23948D01*
X308932Y23894D01*
X308987Y23785D01*
Y23676D01*
X308932Y23567D01*
X308878Y23513D01*
X308715Y23459D01*
X308225D01*
X308606D02*
X308987Y22860D01*
X309623Y24003D02*
Y22860D01*
X309242Y24003D02*
X310004D01*
X311038D02*
Y22860D01*
Y24003D02*
X311800Y22860D01*
Y24003D02*
Y22860D01*
X312442Y24003D02*
X312333Y23948D01*
X312225Y23840D01*
X312170Y23731D01*
X312116Y23567D01*
Y23295D01*
X312170Y23132D01*
X312225Y23023D01*
X312333Y22914D01*
X312442Y22860D01*
X312660D01*
X312769Y22914D01*
X312878Y23023D01*
X312932Y23132D01*
X312986Y23295D01*
Y23567D01*
X312932Y23731D01*
X312878Y23840D01*
X312769Y23948D01*
X312660Y24003D01*
X312442D01*
X313307Y22969D02*
X313253Y22914D01*
X313307Y22860D01*
X313362Y22914D01*
X313307Y22969D01*
X313667Y23622D02*
X313612Y23567D01*
X313667Y23513D01*
X313721Y23567D01*
X313667Y23622D01*
Y22969D02*
X313612Y22914D01*
X313667Y22860D01*
X313721Y22914D01*
X313667Y22969D01*
X306451Y39243D02*
Y38100D01*
X306070Y39243D02*
X306832D01*
X306968D02*
Y38100D01*
X307588Y39243D02*
Y38100D01*
X307207Y39243D02*
X307969D01*
X308105D02*
Y38100D01*
X308758D01*
X309591Y39243D02*
X308883D01*
Y38100D01*
X309591D01*
X308883Y38699D02*
X309319D01*
X309836Y38862D02*
X309781Y38807D01*
X309836Y38753D01*
X309890Y38807D01*
X309836Y38862D01*
Y38209D02*
X309781Y38154D01*
X309836Y38100D01*
X309890Y38154D01*
X309836Y38209D01*
X267970Y31151D02*
X268460D01*
X268623Y31206D01*
X268677Y31260D01*
X268732Y31369D01*
Y31532D01*
X268677Y31641D01*
X268623Y31695D01*
X268460Y31750D01*
X267970D01*
Y30607D01*
X269804Y31478D02*
X269749Y31587D01*
X269641Y31695D01*
X269532Y31750D01*
X269314D01*
X269205Y31695D01*
X269096Y31587D01*
X269042Y31478D01*
X268988Y31314D01*
Y31042D01*
X269042Y30879D01*
X269096Y30770D01*
X269205Y30661D01*
X269314Y30607D01*
X269532D01*
X269641Y30661D01*
X269749Y30770D01*
X269804Y30879D01*
X270125Y31750D02*
Y30607D01*
Y31750D02*
X270615D01*
X270778Y31695D01*
X270832Y31641D01*
X270887Y31532D01*
Y31423D01*
X270832Y31314D01*
X270778Y31260D01*
X270615Y31206D01*
X270125D02*
X270615D01*
X270778Y31151D01*
X270832Y31097D01*
X270887Y30988D01*
Y30825D01*
X270832Y30716D01*
X270778Y30661D01*
X270615Y30607D01*
X270125D01*
X272040Y31750D02*
Y30607D01*
Y31750D02*
X272421D01*
X272585Y31695D01*
X272693Y31587D01*
X272748Y31478D01*
X272802Y31314D01*
Y31042D01*
X272748Y30879D01*
X272693Y30770D01*
X272585Y30661D01*
X272421Y30607D01*
X272040D01*
X273765Y31750D02*
X273058D01*
Y30607D01*
X273765D01*
X273058Y31206D02*
X273493D01*
X274718Y31587D02*
X274609Y31695D01*
X274446Y31750D01*
X274228D01*
X274065Y31695D01*
X273956Y31587D01*
Y31478D01*
X274010Y31369D01*
X274065Y31314D01*
X274174Y31260D01*
X274500Y31151D01*
X274609Y31097D01*
X274663Y31042D01*
X274718Y30934D01*
Y30770D01*
X274609Y30661D01*
X274446Y30607D01*
X274228D01*
X274065Y30661D01*
X273956Y30770D01*
X274973Y31750D02*
Y30607D01*
X276029Y31478D02*
X275975Y31587D01*
X275866Y31695D01*
X275757Y31750D01*
X275539D01*
X275431Y31695D01*
X275322Y31587D01*
X275267Y31478D01*
X275213Y31314D01*
Y31042D01*
X275267Y30879D01*
X275322Y30770D01*
X275431Y30661D01*
X275539Y30607D01*
X275757D01*
X275866Y30661D01*
X275975Y30770D01*
X276029Y30879D01*
Y31042D01*
X275757D02*
X276029D01*
X276290Y31750D02*
Y30607D01*
Y31750D02*
X277052Y30607D01*
Y31750D02*
Y30607D01*
X278075Y31750D02*
X277368D01*
Y30607D01*
X278075D01*
X277368Y31206D02*
X277803D01*
X278266Y31750D02*
Y30607D01*
Y31750D02*
X278755D01*
X278919Y31695D01*
X278973Y31641D01*
X279028Y31532D01*
Y31423D01*
X278973Y31314D01*
X278919Y31260D01*
X278755Y31206D01*
X278266D01*
X278647D02*
X279028Y30607D01*
X279338Y31369D02*
X279283Y31314D01*
X279338Y31260D01*
X279392Y31314D01*
X279338Y31369D01*
Y30716D02*
X279283Y30661D01*
X279338Y30607D01*
X279392Y30661D01*
X279338Y30716D01*
X267970Y16383D02*
Y15240D01*
Y16383D02*
X268677D01*
X267970Y15839D02*
X268405D01*
X268808Y16383D02*
Y15240D01*
X269047Y16383D02*
Y15240D01*
X269700D01*
X270533Y16383D02*
X269826D01*
Y15240D01*
X270533D01*
X269826Y15839D02*
X270261D01*
X271621Y16383D02*
Y15240D01*
Y16383D02*
X272383Y15240D01*
Y16383D02*
Y15240D01*
X273569D02*
X273134Y16383D01*
X272699Y15240D01*
X272862Y15621D02*
X273406D01*
X273836Y16383D02*
Y15240D01*
Y16383D02*
X274271Y15240D01*
X274707Y16383D02*
X274271Y15240D01*
X274707Y16383D02*
Y15240D01*
X275741Y16383D02*
X275033D01*
Y15240D01*
X275741D01*
X275033Y15839D02*
X275469D01*
X275986Y16002D02*
X275931Y15947D01*
X275986Y15893D01*
X276040Y15947D01*
X275986Y16002D01*
Y15349D02*
X275931Y15294D01*
X275986Y15240D01*
X276040Y15294D01*
X275986Y15349D01*
X360172Y16220D02*
X360063Y16328D01*
X359900Y16383D01*
X359682D01*
X359519Y16328D01*
X359410Y16220D01*
Y16111D01*
X359464Y16002D01*
X359519Y15947D01*
X359628Y15893D01*
X359954Y15784D01*
X360063Y15730D01*
X360117Y15675D01*
X360172Y15566D01*
Y15403D01*
X360063Y15294D01*
X359900Y15240D01*
X359682D01*
X359519Y15294D01*
X359410Y15403D01*
X361244Y16111D02*
X361189Y16220D01*
X361081Y16328D01*
X360972Y16383D01*
X360754D01*
X360645Y16328D01*
X360536Y16220D01*
X360482Y16111D01*
X360428Y15947D01*
Y15675D01*
X360482Y15512D01*
X360536Y15403D01*
X360645Y15294D01*
X360754Y15240D01*
X360972D01*
X361081Y15294D01*
X361189Y15403D01*
X361244Y15512D01*
X362436Y15240D02*
X362000Y16383D01*
X361565Y15240D01*
X361728Y15621D02*
X362272D01*
X362702Y16383D02*
Y15240D01*
X363355D01*
X364188Y16383D02*
X363480D01*
Y15240D01*
X364188D01*
X363480Y15839D02*
X363916D01*
X364433Y16002D02*
X364378Y15947D01*
X364433Y15893D01*
X364487Y15947D01*
X364433Y16002D01*
Y15349D02*
X364378Y15294D01*
X364433Y15240D01*
X364487Y15294D01*
X364433Y15349D01*
M02*
