G04 Layer_Physical_Order=1*
G04 Layer_Color=255*
%FSLAX43Y43*%
%MOMM*%
G71*
G01*
G75*
%ADD10C,0.762*%
%ADD11O,2.200X0.600*%
%ADD12R,1.200X1.200*%
%ADD13R,1.500X1.600*%
%ADD14R,0.500X0.500*%
%ADD15R,0.762X0.762*%
%ADD16R,1.200X1.200*%
%ADD17R,1.400X1.300*%
%ADD18R,0.900X1.000*%
%ADD19R,0.850X0.950*%
%ADD20R,1.000X0.900*%
%ADD21R,0.950X0.850*%
%ADD22C,0.508*%
%ADD23C,0.254*%
%ADD24C,1.143*%
%ADD25C,0.381*%
%ADD26C,1.016*%
%ADD27C,0.762*%
%ADD28C,0.178*%
%ADD29C,1.800*%
%ADD30R,1.800X1.800*%
%ADD31C,5.000*%
%ADD32O,1.750X2.500*%
%ADD33R,1.651X1.651*%
%ADD34C,1.651*%
%ADD35C,0.660*%
G36*
X89246Y65786D02*
X89746Y65286D01*
X88246D01*
Y66286D01*
X89746D01*
X89246Y65786D01*
D02*
G37*
G36*
X149562Y42598D02*
X137183D01*
X137136Y42661D01*
X137070Y42852D01*
X137073Y42857D01*
X137087Y42926D01*
Y44834D01*
X137170Y45053D01*
X137341Y45053D01*
X138726D01*
Y45075D01*
X139557D01*
X139753Y45101D01*
X139935Y45176D01*
X139971Y45204D01*
X140225Y45194D01*
Y45194D01*
X141271D01*
X141431Y45194D01*
X141685Y45194D01*
X142731D01*
Y46500D01*
X142439D01*
Y46876D01*
X143766Y48203D01*
X146431D01*
X146550Y48227D01*
X146651Y48294D01*
X148683Y50326D01*
X148750Y50427D01*
X148774Y50546D01*
Y53594D01*
X148750Y53713D01*
X148683Y53814D01*
X142043Y60454D01*
Y65347D01*
X142043Y65348D01*
X142678Y65983D01*
X142774Y66126D01*
X142807Y66294D01*
X142774Y66462D01*
X142820Y66631D01*
X143081Y66729D01*
X143114Y66704D01*
X143358Y66603D01*
X143620Y66568D01*
X143882Y66603D01*
X144126Y66704D01*
X144336Y66864D01*
X144496Y67074D01*
X144597Y67318D01*
X144632Y67580D01*
X144597Y67842D01*
X144496Y68086D01*
X144336Y68296D01*
X144126Y68456D01*
X143948Y68530D01*
Y70402D01*
X144040Y70463D01*
X144163Y70648D01*
X144207Y70866D01*
X144163Y71084D01*
X144040Y71269D01*
X143855Y71392D01*
X143637Y71436D01*
X143419Y71392D01*
X143234Y71269D01*
X143111Y71084D01*
X143067Y70866D01*
X143111Y70648D01*
X143234Y70463D01*
X143326Y70402D01*
Y68544D01*
X143114Y68456D01*
X142997Y68366D01*
X142972Y68378D01*
X142774Y68539D01*
X142807Y68707D01*
Y71389D01*
X142774Y71557D01*
X142678Y71700D01*
X142366Y72012D01*
X142223Y72108D01*
X142055Y72141D01*
X141511D01*
Y72306D01*
X141410D01*
Y73313D01*
X141496Y73442D01*
X141540Y73660D01*
X141496Y73878D01*
X141410Y74007D01*
Y74788D01*
X141625Y75002D01*
X143158D01*
Y77158D01*
X141002D01*
Y75625D01*
X140659Y75281D01*
X140563Y75138D01*
X140530Y74970D01*
Y74007D01*
X140444Y73878D01*
X140400Y73660D01*
X140444Y73442D01*
X140530Y73313D01*
Y72306D01*
X140255D01*
Y70950D01*
X141511D01*
Y71261D01*
X141873D01*
X141927Y71207D01*
Y68707D01*
X141960Y68539D01*
X141778Y68354D01*
X141737Y68340D01*
X141586Y68456D01*
X141342Y68557D01*
X141080Y68592D01*
X140818Y68557D01*
X140574Y68456D01*
X140364Y68296D01*
X140204Y68086D01*
X140103Y67842D01*
X140068Y67580D01*
X140103Y67318D01*
X140204Y67074D01*
X140364Y66864D01*
X140574Y66704D01*
X140818Y66603D01*
X141080Y66568D01*
X141342Y66603D01*
X141586Y66704D01*
X141675Y66772D01*
X141930Y66685D01*
X141932Y66680D01*
X141930Y66480D01*
X141550Y66099D01*
X118660D01*
Y66676D01*
X118726Y66704D01*
X118936Y66864D01*
X119096Y67074D01*
X119197Y67318D01*
X119232Y67580D01*
X119197Y67842D01*
X119096Y68086D01*
X118936Y68296D01*
X118726Y68456D01*
X118482Y68557D01*
X118220Y68592D01*
X117958Y68557D01*
X117892Y68530D01*
X116515Y69907D01*
X116372Y70003D01*
X116204Y70036D01*
X113974D01*
X113580Y70430D01*
Y70789D01*
X113743Y70975D01*
X113837D01*
Y70975D01*
X115043D01*
Y71317D01*
X115585D01*
Y70975D01*
X116370D01*
X117461Y69884D01*
X117562Y69817D01*
X117681Y69793D01*
X117834D01*
X117871Y69738D01*
X118039Y69625D01*
X118237Y69586D01*
X118435Y69625D01*
X118603Y69738D01*
X118716Y69906D01*
X118755Y70104D01*
X118716Y70302D01*
X118603Y70470D01*
X118435Y70583D01*
X118237Y70622D01*
X118039Y70583D01*
X117871Y70470D01*
X117641Y70584D01*
X117484Y70741D01*
X117581Y70975D01*
X118091D01*
Y71317D01*
X118558D01*
Y70950D01*
X118875D01*
Y70933D01*
X118899Y70814D01*
X118966Y70713D01*
X120303Y69376D01*
X120404Y69309D01*
X120523Y69285D01*
X125474D01*
X125529Y69230D01*
Y68537D01*
X125334Y68456D01*
X125124Y68296D01*
X124964Y68086D01*
X124863Y67842D01*
X124828Y67580D01*
X124863Y67318D01*
X124964Y67074D01*
X125124Y66864D01*
X125334Y66704D01*
X125578Y66603D01*
X125840Y66568D01*
X126102Y66603D01*
X126346Y66704D01*
X126556Y66864D01*
X126716Y67074D01*
X126817Y67318D01*
X126852Y67580D01*
X126817Y67842D01*
X126716Y68086D01*
X126556Y68296D01*
X126346Y68456D01*
X126151Y68537D01*
Y69011D01*
X126405Y69116D01*
X127483Y68037D01*
X127403Y67842D01*
X127368Y67580D01*
X127403Y67318D01*
X127504Y67074D01*
X127664Y66864D01*
X127874Y66704D01*
X128118Y66603D01*
X128380Y66568D01*
X128642Y66603D01*
X128886Y66704D01*
X129096Y66864D01*
X129256Y67074D01*
X129357Y67318D01*
X129392Y67580D01*
X129357Y67842D01*
X129256Y68086D01*
X129096Y68296D01*
X128886Y68456D01*
X128642Y68557D01*
X128380Y68592D01*
X128118Y68557D01*
X127923Y68477D01*
X126076Y70324D01*
X125975Y70391D01*
X125856Y70415D01*
X120919D01*
X120847Y70487D01*
Y70950D01*
X121164D01*
Y71317D01*
X121681D01*
Y70975D01*
X122887D01*
X122887Y70975D01*
X122981D01*
Y70975D01*
X123141Y70975D01*
X124187D01*
Y71317D01*
X124744D01*
Y70975D01*
X125950D01*
Y72170D01*
X126113Y72333D01*
X128014D01*
X128377Y71970D01*
Y70950D01*
X129633D01*
Y72306D01*
X128921D01*
X128363Y72864D01*
X128262Y72931D01*
X128143Y72955D01*
X125984D01*
X125865Y72931D01*
X125764Y72864D01*
X125181Y72281D01*
X124744D01*
Y71939D01*
X124187D01*
Y72281D01*
X123402D01*
X122692Y72991D01*
X122591Y73058D01*
X122472Y73082D01*
X121815D01*
X121778Y73137D01*
X121610Y73250D01*
X121412Y73289D01*
X121214Y73250D01*
X121046Y73137D01*
X120933Y72969D01*
X120894Y72771D01*
X120914Y72673D01*
X120768Y72450D01*
X120729Y72422D01*
X120580Y72404D01*
X119740Y73245D01*
X119639Y73312D01*
X119520Y73336D01*
X112268D01*
X112149Y73312D01*
X112048Y73245D01*
X109091Y70288D01*
X102593D01*
X101022Y71859D01*
Y75311D01*
X100998Y75430D01*
X100931Y75531D01*
X99483Y76979D01*
X99382Y77046D01*
X99263Y77070D01*
X78283D01*
X78164Y77046D01*
X78063Y76979D01*
X76488Y75404D01*
X76421Y75303D01*
X76397Y75184D01*
Y70741D01*
X74710Y69054D01*
X74643Y68953D01*
X74619Y68834D01*
Y65497D01*
X74365Y65371D01*
X74361Y65375D01*
X74105Y65481D01*
X73830Y65517D01*
X73555Y65481D01*
X73299Y65375D01*
X73079Y65206D01*
X72910Y64986D01*
X72804Y64730D01*
X72768Y64455D01*
Y63705D01*
X72804Y63430D01*
X72910Y63174D01*
X73079Y62954D01*
X73299Y62785D01*
X73519Y62694D01*
Y59641D01*
X72220Y58342D01*
X71104D01*
Y56786D01*
X72660D01*
Y57902D01*
X74050Y59292D01*
X74117Y59393D01*
X74141Y59512D01*
Y62694D01*
X74361Y62785D01*
X74581Y62954D01*
X74750Y63174D01*
X74856Y63430D01*
X74892Y63705D01*
Y64455D01*
X74865Y64661D01*
X74910Y64708D01*
X75234Y64695D01*
X75291Y64628D01*
X75268Y64455D01*
Y63705D01*
X75304Y63430D01*
X75410Y63174D01*
X75579Y62954D01*
X75799Y62785D01*
X76019Y62694D01*
Y59347D01*
X75014Y58342D01*
X73898D01*
Y56786D01*
X75454D01*
Y57902D01*
X76550Y58998D01*
X76617Y59099D01*
X76641Y59218D01*
Y62694D01*
X76861Y62785D01*
X77081Y62954D01*
X77250Y63174D01*
X77356Y63430D01*
X77392Y63705D01*
Y64455D01*
X77356Y64730D01*
X77250Y64986D01*
X77081Y65206D01*
X76861Y65375D01*
X76605Y65481D01*
X76330Y65517D01*
X76055Y65481D01*
X75927Y65427D01*
X75673Y65580D01*
Y68526D01*
X77360Y70213D01*
X77427Y70314D01*
X77451Y70433D01*
Y74876D01*
X78590Y76016D01*
X98956D01*
X99968Y75003D01*
Y71552D01*
X99992Y71433D01*
X100059Y71332D01*
X102066Y69325D01*
X102167Y69258D01*
X102286Y69234D01*
X109399D01*
X109518Y69258D01*
X109619Y69325D01*
X112303Y72009D01*
X112537Y71912D01*
Y70975D01*
X112700D01*
Y70248D01*
X112733Y70080D01*
X112829Y69937D01*
X113481Y69285D01*
X113624Y69189D01*
X113792Y69156D01*
X116022D01*
X117270Y67908D01*
X117243Y67842D01*
X117208Y67580D01*
X117243Y67318D01*
X117344Y67074D01*
X117504Y66864D01*
X117714Y66704D01*
X117780Y66676D01*
Y66099D01*
X103691D01*
Y67056D01*
X103658Y67224D01*
X103562Y67367D01*
X99020Y71909D01*
Y72748D01*
X99111Y72785D01*
X99331Y72954D01*
X99500Y73174D01*
X99606Y73430D01*
X99642Y73705D01*
Y74455D01*
X99606Y74730D01*
X99500Y74986D01*
X99331Y75206D01*
X99111Y75375D01*
X98855Y75481D01*
X98580Y75517D01*
X98305Y75481D01*
X98049Y75375D01*
X97829Y75206D01*
X97660Y74986D01*
X97554Y74730D01*
X97518Y74455D01*
Y73705D01*
X97554Y73430D01*
X97660Y73174D01*
X97829Y72954D01*
X98049Y72785D01*
X98140Y72748D01*
Y71727D01*
X98173Y71559D01*
X98269Y71416D01*
X99708Y69976D01*
X99546Y69779D01*
X99519Y69797D01*
X99400Y69821D01*
X97858D01*
Y70288D01*
X96742D01*
X96391Y70639D01*
Y72694D01*
X96611Y72785D01*
X96831Y72954D01*
X97000Y73174D01*
X97106Y73430D01*
X97142Y73705D01*
Y74455D01*
X97106Y74730D01*
X97000Y74986D01*
X96831Y75206D01*
X96611Y75375D01*
X96355Y75481D01*
X96080Y75517D01*
X95805Y75481D01*
X95549Y75375D01*
X95329Y75206D01*
X95160Y74986D01*
X95054Y74730D01*
X95018Y74455D01*
Y73705D01*
X95054Y73430D01*
X95160Y73174D01*
X95329Y72954D01*
X95549Y72785D01*
X95769Y72694D01*
Y70510D01*
X95793Y70391D01*
X95860Y70290D01*
X96302Y69848D01*
Y68732D01*
X97858D01*
Y69199D01*
X99271D01*
X101924Y66546D01*
Y59946D01*
X101725Y59747D01*
X100709D01*
X100686Y59780D01*
X100528Y59886D01*
X100342Y59923D01*
X98742D01*
X98556Y59886D01*
X98398Y59780D01*
X98292Y59622D01*
X98255Y59436D01*
X98292Y59250D01*
X98398Y59092D01*
X98556Y58986D01*
X98742Y58949D01*
X99169D01*
Y57807D01*
X99114Y57770D01*
X99001Y57602D01*
X98962Y57404D01*
X99001Y57206D01*
X99114Y57038D01*
X99169Y57001D01*
Y56697D01*
X98931D01*
X98931Y55414D01*
X98752Y55234D01*
X98399D01*
X98237Y55397D01*
X98237Y55651D01*
Y56697D01*
X97895D01*
Y57001D01*
X97950Y57038D01*
X98063Y57206D01*
X98102Y57404D01*
X98063Y57602D01*
X97950Y57770D01*
X97895Y57807D01*
Y60117D01*
X98142Y60364D01*
X98398Y60362D01*
X98556Y60256D01*
X98742Y60219D01*
X100342D01*
X100528Y60256D01*
X100686Y60362D01*
X100709Y60395D01*
X100838D01*
X100957Y60419D01*
X101058Y60486D01*
X101566Y60994D01*
X101633Y61095D01*
X101657Y61214D01*
Y66294D01*
X101633Y66413D01*
X101566Y66514D01*
X99788Y68292D01*
X99687Y68359D01*
X99568Y68383D01*
X95647D01*
X94858Y69172D01*
Y70288D01*
X93891D01*
Y72694D01*
X94111Y72785D01*
X94331Y72954D01*
X94500Y73174D01*
X94606Y73430D01*
X94642Y73705D01*
Y74455D01*
X94606Y74730D01*
X94500Y74986D01*
X94331Y75206D01*
X94111Y75375D01*
X93855Y75481D01*
X93580Y75517D01*
X93305Y75481D01*
X93049Y75375D01*
X92829Y75206D01*
X92660Y74986D01*
X92554Y74730D01*
X92518Y74455D01*
Y73705D01*
X92554Y73430D01*
X92660Y73174D01*
X92829Y72954D01*
X93049Y72785D01*
X93269Y72694D01*
Y70010D01*
X93293Y69891D01*
X93302Y69877D01*
Y68732D01*
X94418D01*
X95298Y67852D01*
X95399Y67785D01*
X95518Y67761D01*
X99439D01*
X101035Y66165D01*
Y63588D01*
X100800Y63446D01*
X100781Y63449D01*
X100686Y63590D01*
X100528Y63696D01*
X100342Y63733D01*
X100008D01*
Y64229D01*
X100246D01*
Y65485D01*
X98890D01*
Y64229D01*
X99128D01*
Y63733D01*
X98742D01*
X98556Y63696D01*
X98541Y63686D01*
X97663D01*
X97495Y63653D01*
X97352Y63557D01*
X96336Y62541D01*
X96240Y62398D01*
X96212Y62258D01*
X96109Y62227D01*
X95953Y62221D01*
X95886Y62320D01*
X95728Y62426D01*
X95542Y62463D01*
X93942D01*
X93756Y62426D01*
X93598Y62320D01*
X93375Y62431D01*
X93275Y62526D01*
Y62948D01*
X93529Y63004D01*
X93598Y62902D01*
X93756Y62796D01*
X93942Y62759D01*
X95542D01*
X95728Y62796D01*
X95886Y62902D01*
X95992Y63060D01*
X96029Y63246D01*
X95992Y63432D01*
X95886Y63590D01*
X95728Y63696D01*
X95542Y63733D01*
X94694D01*
X92383Y66045D01*
Y68710D01*
X92359Y68829D01*
X92292Y68930D01*
X91914Y69308D01*
X91813Y69375D01*
X91694Y69399D01*
X91114D01*
Y69588D01*
X91100Y69657D01*
X91061Y69716D01*
X91002Y69755D01*
X90933Y69769D01*
X90008D01*
X89939Y69755D01*
X89869Y69721D01*
X89800Y69755D01*
X89730Y69769D01*
X88230D01*
X88161Y69755D01*
X88102Y69716D01*
X88063Y69657D01*
X88049Y69588D01*
Y69528D01*
X87884D01*
X87716Y69495D01*
X87573Y69399D01*
X86557Y68383D01*
X86461Y68240D01*
X86428Y68072D01*
Y65786D01*
Y61908D01*
X82666D01*
Y62461D01*
X80910D01*
Y62073D01*
X80556D01*
X80388Y62040D01*
X80245Y61944D01*
X79769Y61468D01*
X79673Y61325D01*
X79640Y61157D01*
Y56192D01*
X79559Y56159D01*
X79339Y55990D01*
X79170Y55770D01*
X79064Y55514D01*
X79028Y55239D01*
Y54489D01*
X79064Y54214D01*
X79170Y53958D01*
X79339Y53738D01*
X79559Y53569D01*
X79815Y53463D01*
X80090Y53427D01*
X80365Y53463D01*
X80621Y53569D01*
X80841Y53738D01*
X81010Y53958D01*
X81116Y54214D01*
X81152Y54489D01*
Y55239D01*
X81116Y55514D01*
X81010Y55770D01*
X80841Y55990D01*
X80621Y56159D01*
X80520Y56200D01*
Y60915D01*
X80666Y61029D01*
X80910Y60920D01*
Y60805D01*
X82666D01*
Y61028D01*
X84211D01*
X84312Y60816D01*
X84312Y60774D01*
Y59260D01*
X84779D01*
Y58674D01*
X84803Y58555D01*
X84870Y58454D01*
X86952Y56373D01*
X86916Y56049D01*
X86839Y55990D01*
X86670Y55770D01*
X86564Y55514D01*
X86528Y55239D01*
Y54489D01*
X86564Y54214D01*
X86670Y53958D01*
X86839Y53738D01*
X87059Y53569D01*
X87269Y53482D01*
Y53136D01*
X87293Y53017D01*
X87360Y52916D01*
X88680Y51596D01*
X88781Y51529D01*
X88900Y51505D01*
X102108D01*
X102227Y51529D01*
X102328Y51596D01*
X104777Y54045D01*
X133855D01*
X135103Y52797D01*
X135023Y52602D01*
X134988Y52340D01*
X135023Y52078D01*
X135124Y51834D01*
X135284Y51624D01*
X135494Y51464D01*
X135738Y51363D01*
X136000Y51328D01*
X136262Y51363D01*
X136506Y51464D01*
X136716Y51624D01*
X136876Y51834D01*
X136977Y52078D01*
X137012Y52340D01*
X136977Y52602D01*
X136876Y52846D01*
X136716Y53056D01*
X136506Y53216D01*
X136262Y53317D01*
X136000Y53352D01*
X135738Y53317D01*
X135543Y53237D01*
X134226Y54553D01*
X134238Y54648D01*
X134314Y54807D01*
X135633D01*
X137643Y52797D01*
X137563Y52602D01*
X137528Y52340D01*
X137563Y52078D01*
X137664Y51834D01*
X137824Y51624D01*
X138034Y51464D01*
X138278Y51363D01*
X138540Y51328D01*
X138802Y51363D01*
X139046Y51464D01*
X139256Y51624D01*
X139416Y51834D01*
X139517Y52078D01*
X139552Y52340D01*
X139517Y52602D01*
X139416Y52846D01*
X139256Y53056D01*
X139046Y53216D01*
X138802Y53317D01*
X138540Y53352D01*
X138278Y53317D01*
X138083Y53237D01*
X136004Y55315D01*
X136016Y55410D01*
X136092Y55569D01*
X137411D01*
X140183Y52797D01*
X140103Y52602D01*
X140068Y52340D01*
X140103Y52078D01*
X140204Y51834D01*
X140364Y51624D01*
X140574Y51464D01*
X140818Y51363D01*
X141080Y51328D01*
X141342Y51363D01*
X141586Y51464D01*
X141796Y51624D01*
X141956Y51834D01*
X142057Y52078D01*
X142092Y52340D01*
X142057Y52602D01*
X141956Y52846D01*
X141796Y53056D01*
X141586Y53216D01*
X141342Y53317D01*
X141080Y53352D01*
X140818Y53317D01*
X140623Y53237D01*
X137760Y56100D01*
X137659Y56167D01*
X137540Y56191D01*
X103380D01*
X103261Y56167D01*
X103160Y56100D01*
X100951Y53891D01*
X94209D01*
X93647Y54452D01*
X93652Y54489D01*
Y55239D01*
X93616Y55514D01*
X93510Y55770D01*
X93341Y55990D01*
X93121Y56159D01*
X92891Y56254D01*
Y57026D01*
X92867Y57145D01*
X92800Y57246D01*
X91497Y58549D01*
Y59260D01*
X91964D01*
Y60470D01*
X92218Y60576D01*
X92399Y60395D01*
X92542Y60299D01*
X92708Y60266D01*
X92766Y60227D01*
X92964Y60188D01*
X93162Y60227D01*
X93219Y60266D01*
X93741D01*
X93756Y60256D01*
X93942Y60219D01*
X95542D01*
X95728Y60256D01*
X95743Y60266D01*
X96207D01*
Y58348D01*
X95955Y58096D01*
X95859Y57953D01*
X95826Y57785D01*
Y54864D01*
X95859Y54696D01*
X95955Y54553D01*
X96025Y54483D01*
X96168Y54387D01*
X96336Y54354D01*
X96931D01*
Y54191D01*
X98237D01*
Y54354D01*
X98931D01*
Y54191D01*
X100237D01*
Y54354D01*
X100641D01*
X100809Y54387D01*
X100952Y54483D01*
X103562Y57093D01*
X103658Y57236D01*
X103691Y57404D01*
Y65219D01*
X111379D01*
X111440Y65128D01*
X111491Y64965D01*
X111408Y64841D01*
X111369Y64643D01*
X111408Y64445D01*
X111521Y64277D01*
X111689Y64164D01*
X111887Y64125D01*
X111952Y64138D01*
X119033Y57057D01*
X119134Y56990D01*
X119253Y56966D01*
X127994D01*
X128031Y56911D01*
X128199Y56798D01*
X128397Y56759D01*
X128595Y56798D01*
X128763Y56911D01*
X128876Y57079D01*
X128915Y57277D01*
X128876Y57475D01*
X128763Y57643D01*
X128595Y57756D01*
X128397Y57795D01*
X128199Y57756D01*
X128031Y57643D01*
X127994Y57588D01*
X119382D01*
X112392Y64578D01*
X112405Y64643D01*
X112366Y64841D01*
X112283Y64965D01*
X112334Y65128D01*
X112396Y65219D01*
X113919D01*
X113980Y65128D01*
X114031Y64965D01*
X113948Y64841D01*
X113909Y64643D01*
X113948Y64445D01*
X114061Y64277D01*
X114229Y64164D01*
X114427Y64125D01*
X114492Y64138D01*
X120430Y58200D01*
X120531Y58133D01*
X120650Y58109D01*
X125454D01*
X125491Y58054D01*
X125659Y57941D01*
X125857Y57902D01*
X126055Y57941D01*
X126223Y58054D01*
X126336Y58222D01*
X126375Y58420D01*
X126336Y58618D01*
X126223Y58786D01*
X126055Y58899D01*
X125857Y58938D01*
X125659Y58899D01*
X125491Y58786D01*
X125454Y58731D01*
X120779D01*
X114932Y64578D01*
X114945Y64643D01*
X114906Y64841D01*
X114823Y64965D01*
X114874Y65128D01*
X114936Y65219D01*
X141421D01*
Y60325D01*
X141445Y60206D01*
X141512Y60105D01*
X147995Y53623D01*
X147995Y53591D01*
X147759Y53495D01*
X147727Y53499D01*
X140138Y61089D01*
Y63859D01*
X140193Y63896D01*
X140306Y64064D01*
X140345Y64262D01*
X140306Y64460D01*
X140193Y64628D01*
X140025Y64741D01*
X139827Y64780D01*
X139629Y64741D01*
X139461Y64628D01*
X139348Y64460D01*
X139309Y64262D01*
X139348Y64064D01*
X139461Y63896D01*
X139516Y63859D01*
Y60960D01*
X139540Y60841D01*
X139607Y60740D01*
X147390Y52957D01*
Y52628D01*
X147137Y52602D01*
X147036Y52846D01*
X146876Y53056D01*
X146666Y53216D01*
X146422Y53317D01*
X146160Y53352D01*
X145898Y53317D01*
X145654Y53216D01*
X145444Y53056D01*
X145284Y52846D01*
X145183Y52602D01*
X145148Y52340D01*
X145183Y52078D01*
X145263Y51883D01*
X143983Y50603D01*
X142748D01*
X142629Y50838D01*
X142623Y50904D01*
X143163Y51443D01*
X143358Y51363D01*
X143620Y51328D01*
X143882Y51363D01*
X144126Y51464D01*
X144336Y51624D01*
X144496Y51834D01*
X144597Y52078D01*
X144632Y52340D01*
X144597Y52602D01*
X144496Y52846D01*
X144336Y53056D01*
X144126Y53216D01*
X143882Y53317D01*
X143620Y53352D01*
X143358Y53317D01*
X143114Y53216D01*
X142904Y53056D01*
X142744Y52846D01*
X142643Y52602D01*
X142608Y52340D01*
X142643Y52078D01*
X142723Y51883D01*
X140935Y50095D01*
X133096D01*
X132977Y50071D01*
X132876Y50004D01*
X127887Y45015D01*
X119711D01*
X119634Y45174D01*
X119622Y45269D01*
X122176Y47822D01*
X129540D01*
X129659Y47846D01*
X129760Y47913D01*
X133208Y51361D01*
X133460Y51328D01*
X133722Y51363D01*
X133966Y51464D01*
X134176Y51624D01*
X134336Y51834D01*
X134437Y52078D01*
X134472Y52340D01*
X134437Y52602D01*
X134336Y52846D01*
X134176Y53056D01*
X133966Y53216D01*
X133722Y53317D01*
X133460Y53352D01*
X133198Y53317D01*
X132954Y53216D01*
X132744Y53056D01*
X132584Y52846D01*
X132483Y52602D01*
X132448Y52340D01*
X132483Y52078D01*
X132584Y51834D01*
X132678Y51711D01*
X129411Y48444D01*
X122282D01*
X122138Y48698D01*
X122146Y48711D01*
X127602D01*
X127721Y48735D01*
X127822Y48802D01*
X130463Y51443D01*
X130658Y51363D01*
X130920Y51328D01*
X131182Y51363D01*
X131426Y51464D01*
X131636Y51624D01*
X131796Y51834D01*
X131897Y52078D01*
X131932Y52340D01*
X131897Y52602D01*
X131796Y52846D01*
X131636Y53056D01*
X131426Y53216D01*
X131182Y53317D01*
X130920Y53352D01*
X130658Y53317D01*
X130414Y53216D01*
X130204Y53056D01*
X130044Y52846D01*
X129943Y52602D01*
X129908Y52340D01*
X129943Y52078D01*
X130023Y51883D01*
X127473Y49333D01*
X121793D01*
X121674Y49309D01*
X121573Y49242D01*
X118870Y46539D01*
X98046D01*
X94327Y50258D01*
X94226Y50325D01*
X94107Y50349D01*
X81282D01*
X78670Y52961D01*
Y61085D01*
X80901Y63316D01*
X82550D01*
X82669Y63340D01*
X82770Y63407D01*
X83659Y64296D01*
X83726Y64397D01*
X83750Y64516D01*
Y67740D01*
X84742Y68732D01*
X85858D01*
Y70288D01*
X84742D01*
X84391Y70639D01*
Y72694D01*
X84611Y72785D01*
X84831Y72954D01*
X85000Y73174D01*
X85106Y73430D01*
X85142Y73705D01*
Y74455D01*
X85106Y74730D01*
X85000Y74986D01*
X84831Y75206D01*
X84611Y75375D01*
X84355Y75481D01*
X84080Y75517D01*
X83805Y75481D01*
X83549Y75375D01*
X83329Y75206D01*
X83160Y74986D01*
X83054Y74730D01*
X83018Y74455D01*
Y73705D01*
X83054Y73430D01*
X83160Y73174D01*
X83329Y72954D01*
X83549Y72785D01*
X83769Y72694D01*
Y70510D01*
X83793Y70391D01*
X83860Y70290D01*
X84302Y69848D01*
Y69172D01*
X83219Y68089D01*
X83152Y67988D01*
X83128Y67869D01*
Y64645D01*
X82421Y63938D01*
X80781D01*
X80767Y63943D01*
X80580Y64130D01*
X80575Y64144D01*
Y67995D01*
X81242Y68662D01*
X82358D01*
Y70218D01*
X81242D01*
X79391Y72069D01*
Y72694D01*
X79611Y72785D01*
X79831Y72954D01*
X80000Y73174D01*
X80106Y73430D01*
X80142Y73705D01*
Y74455D01*
X80106Y74730D01*
X80000Y74986D01*
X79831Y75206D01*
X79611Y75375D01*
X79355Y75481D01*
X79080Y75517D01*
X78805Y75481D01*
X78549Y75375D01*
X78329Y75206D01*
X78160Y74986D01*
X78054Y74730D01*
X78018Y74455D01*
Y73705D01*
X78054Y73430D01*
X78160Y73174D01*
X78329Y72954D01*
X78549Y72785D01*
X78769Y72694D01*
Y71940D01*
X78793Y71821D01*
X78860Y71720D01*
X80802Y69778D01*
Y69102D01*
X80044Y68344D01*
X79977Y68243D01*
X79953Y68124D01*
Y64264D01*
X77504Y61815D01*
X77437Y61714D01*
X77413Y61595D01*
Y52578D01*
X77437Y52459D01*
X77504Y52358D01*
X80806Y49056D01*
X80907Y48989D01*
X81026Y48965D01*
X93343D01*
X97062Y45246D01*
X97163Y45179D01*
X97282Y45155D01*
X113969D01*
X114046Y44996D01*
X114058Y44901D01*
X113684Y44528D01*
X113617Y44427D01*
X113600Y44341D01*
X113301D01*
Y43035D01*
X114347D01*
X114507Y43035D01*
X114761Y43035D01*
X115807D01*
Y43118D01*
X116840D01*
X116895Y43129D01*
X117399D01*
Y43633D01*
X117410Y43688D01*
X117399Y43743D01*
X117399Y44247D01*
X117592Y44393D01*
X125867D01*
X126060Y44247D01*
X126060Y44139D01*
Y43743D01*
X126049Y43688D01*
X126060Y43633D01*
Y43129D01*
X126564D01*
X126619Y43118D01*
X127667D01*
Y43035D01*
X128713D01*
X128873Y43035D01*
X129127Y43035D01*
X130173D01*
Y44341D01*
X129881D01*
Y45113D01*
X131645Y46877D01*
X131899Y46772D01*
X131899Y42926D01*
X131913Y42857D01*
X131916Y42852D01*
X131850Y42661D01*
X131803Y42598D01*
X70598D01*
Y77562D01*
X99682D01*
X99743Y77522D01*
X99885Y77353D01*
X99885Y77353D01*
X99899Y77283D01*
X99938Y77224D01*
X101292Y75871D01*
X101292Y72517D01*
X101306Y72448D01*
X101345Y72389D01*
X101404Y72350D01*
X101473Y72336D01*
X102212D01*
X102289Y72082D01*
X102213Y72031D01*
X102090Y71846D01*
X102046Y71628D01*
X102090Y71410D01*
X102213Y71225D01*
X102398Y71102D01*
X102616Y71058D01*
X103253D01*
Y70975D01*
X104340Y70975D01*
X104594Y70777D01*
Y70739D01*
X104608Y70670D01*
X104647Y70611D01*
X104706Y70572D01*
X104775Y70558D01*
X107569D01*
X107638Y70572D01*
X107697Y70611D01*
X107736Y70670D01*
X107750Y70739D01*
Y70771D01*
X107870Y70975D01*
X108030Y70975D01*
X109076D01*
Y72281D01*
X109043D01*
Y73137D01*
X108999Y73355D01*
X108876Y73540D01*
X107277Y75138D01*
X107289Y75311D01*
X107461Y75536D01*
X107570Y75799D01*
X107607Y76080D01*
X107570Y76361D01*
X107461Y76624D01*
X107289Y76849D01*
X107064Y77021D01*
X106801Y77130D01*
X106520Y77167D01*
X106239Y77130D01*
X105976Y77021D01*
X105751Y76849D01*
X105579Y76624D01*
X105470Y76361D01*
X105433Y76080D01*
X105470Y75799D01*
X105579Y75536D01*
X105751Y75311D01*
X105769Y75298D01*
X105790Y75215D01*
X105699Y75047D01*
X105652Y74984D01*
X102797D01*
Y77470D01*
X103038Y77562D01*
X149562D01*
Y42598D01*
D02*
G37*
G36*
X90933Y68588D02*
X90008Y68588D01*
X89508Y69088D01*
X90008Y69588D01*
X90933D01*
Y68588D01*
D02*
G37*
G36*
X89230Y69088D02*
X89730Y68588D01*
X88230D01*
Y69588D01*
X89730D01*
X89230Y69088D01*
D02*
G37*
G36*
X88065Y65286D02*
X88079Y65217D01*
X88118Y65158D01*
X88177Y65119D01*
X88246Y65105D01*
X89746D01*
X89816Y65119D01*
X89885Y65153D01*
X89955Y65118D01*
X89955D01*
X89955Y65118D01*
X89999Y65110D01*
X90024Y65105D01*
X90949Y65105D01*
X91018Y65119D01*
X91077Y65158D01*
X91077Y65158D01*
X91265Y65185D01*
X91278Y65184D01*
X91366Y65167D01*
X92653Y63879D01*
Y62230D01*
X92677Y62111D01*
X92744Y62010D01*
X92998Y61756D01*
X93099Y61689D01*
X93218Y61665D01*
X93575D01*
X93598Y61632D01*
X93756Y61526D01*
X93942Y61489D01*
X95542D01*
X95728Y61526D01*
X95886Y61632D01*
X95953Y61731D01*
X96207Y61666D01*
Y61146D01*
X95743D01*
X95728Y61156D01*
X95542Y61193D01*
X93942D01*
X93756Y61156D01*
X93741Y61146D01*
X93219D01*
X93162Y61185D01*
X92964Y61224D01*
X92839Y61199D01*
X92259Y61779D01*
X92116Y61875D01*
X91948Y61908D01*
X87308D01*
Y65346D01*
X88065D01*
Y65286D01*
D02*
G37*
G36*
X136906Y46990D02*
X136906Y42926D01*
X132080Y42926D01*
X132080Y46990D01*
X136906Y46990D01*
D02*
G37*
G36*
X102616Y74803D02*
X105664D01*
X107569Y72898D01*
X107569Y72009D01*
X107569Y70739D01*
X104775D01*
X104775Y72517D01*
X101473Y72517D01*
X101473Y75946D01*
X100066Y77353D01*
X100115Y77470D01*
X102616D01*
Y74803D01*
D02*
G37*
G36*
X90949Y65286D02*
X90024Y65286D01*
X89524Y65786D01*
X90024Y66286D01*
X90949D01*
Y65286D01*
D02*
G37*
%LPC*%
G36*
X123300Y53352D02*
X123038Y53317D01*
X122794Y53216D01*
X122584Y53056D01*
X122424Y52846D01*
X122323Y52602D01*
X122288Y52340D01*
X122323Y52078D01*
X122403Y51883D01*
X118456Y47936D01*
X117154D01*
X117049Y48190D01*
X120303Y51443D01*
X120498Y51363D01*
X120760Y51328D01*
X121022Y51363D01*
X121266Y51464D01*
X121476Y51624D01*
X121636Y51834D01*
X121737Y52078D01*
X121772Y52340D01*
X121737Y52602D01*
X121636Y52846D01*
X121476Y53056D01*
X121266Y53216D01*
X121022Y53317D01*
X120760Y53352D01*
X120498Y53317D01*
X120254Y53216D01*
X120044Y53056D01*
X119884Y52846D01*
X119783Y52602D01*
X119748Y52340D01*
X119783Y52078D01*
X119863Y51883D01*
X116551Y48571D01*
X101856D01*
X99946Y50481D01*
X99959Y50546D01*
X99920Y50744D01*
X99807Y50912D01*
X99639Y51025D01*
X99441Y51064D01*
X99243Y51025D01*
X99075Y50912D01*
X98962Y50744D01*
X98923Y50546D01*
X98962Y50348D01*
X99075Y50180D01*
X99243Y50067D01*
X99441Y50028D01*
X99506Y50041D01*
X101358Y48190D01*
X101253Y47936D01*
X100332D01*
X98041Y50227D01*
X98054Y50292D01*
X98015Y50490D01*
X97902Y50658D01*
X97734Y50771D01*
X97536Y50810D01*
X97338Y50771D01*
X97170Y50658D01*
X97057Y50490D01*
X97018Y50292D01*
X97057Y50094D01*
X97170Y49926D01*
X97338Y49813D01*
X97536Y49774D01*
X97601Y49787D01*
X99983Y47405D01*
X100084Y47338D01*
X100203Y47314D01*
X118585D01*
X118704Y47338D01*
X118805Y47405D01*
X122843Y51443D01*
X123038Y51363D01*
X123300Y51328D01*
X123562Y51363D01*
X123806Y51464D01*
X124016Y51624D01*
X124176Y51834D01*
X124277Y52078D01*
X124312Y52340D01*
X124277Y52602D01*
X124176Y52846D01*
X124016Y53056D01*
X123806Y53216D01*
X123562Y53317D01*
X123300Y53352D01*
D02*
G37*
G36*
X115680D02*
X115418Y53317D01*
X115174Y53216D01*
X114964Y53056D01*
X114804Y52846D01*
X114703Y52602D01*
X114668Y52340D01*
X114703Y52078D01*
X114804Y51834D01*
X114964Y51624D01*
X115174Y51464D01*
X115418Y51363D01*
X115680Y51328D01*
X115942Y51363D01*
X116186Y51464D01*
X116396Y51624D01*
X116556Y51834D01*
X116657Y52078D01*
X116692Y52340D01*
X116657Y52602D01*
X116556Y52846D01*
X116396Y53056D01*
X116186Y53216D01*
X115942Y53317D01*
X115680Y53352D01*
D02*
G37*
G36*
X128380D02*
X128118Y53317D01*
X127874Y53216D01*
X127664Y53056D01*
X127504Y52846D01*
X127403Y52602D01*
X127368Y52340D01*
X127403Y52078D01*
X127504Y51834D01*
X127664Y51624D01*
X127874Y51464D01*
X128118Y51363D01*
X128380Y51328D01*
X128642Y51363D01*
X128886Y51464D01*
X129096Y51624D01*
X129256Y51834D01*
X129357Y52078D01*
X129392Y52340D01*
X129357Y52602D01*
X129256Y52846D01*
X129096Y53056D01*
X128886Y53216D01*
X128642Y53317D01*
X128380Y53352D01*
D02*
G37*
G36*
X125840D02*
X125578Y53317D01*
X125334Y53216D01*
X125124Y53056D01*
X124964Y52846D01*
X124863Y52602D01*
X124828Y52340D01*
X124863Y52078D01*
X124964Y51834D01*
X125124Y51624D01*
X125334Y51464D01*
X125578Y51363D01*
X125840Y51328D01*
X126102Y51363D01*
X126346Y51464D01*
X126556Y51624D01*
X126716Y51834D01*
X126817Y52078D01*
X126852Y52340D01*
X126817Y52602D01*
X126716Y52846D01*
X126556Y53056D01*
X126346Y53216D01*
X126102Y53317D01*
X125840Y53352D01*
D02*
G37*
G36*
X90090Y46649D02*
X89815Y46613D01*
X89559Y46507D01*
X89339Y46338D01*
X89170Y46118D01*
X89064Y45862D01*
X89028Y45587D01*
Y44837D01*
X89064Y44562D01*
X89170Y44306D01*
X89339Y44086D01*
X89559Y43917D01*
X89815Y43811D01*
X90090Y43775D01*
X90365Y43811D01*
X90621Y43917D01*
X90841Y44086D01*
X91010Y44306D01*
X91116Y44562D01*
X91152Y44837D01*
Y45587D01*
X91116Y45862D01*
X91010Y46118D01*
X90841Y46338D01*
X90621Y46507D01*
X90365Y46613D01*
X90090Y46649D01*
D02*
G37*
G36*
X87590D02*
X87315Y46613D01*
X87059Y46507D01*
X86839Y46338D01*
X86670Y46118D01*
X86564Y45862D01*
X86528Y45587D01*
Y44837D01*
X86564Y44562D01*
X86670Y44306D01*
X86839Y44086D01*
X87059Y43917D01*
X87315Y43811D01*
X87590Y43775D01*
X87865Y43811D01*
X88121Y43917D01*
X88341Y44086D01*
X88510Y44306D01*
X88616Y44562D01*
X88652Y44837D01*
Y45587D01*
X88616Y45862D01*
X88510Y46118D01*
X88341Y46338D01*
X88121Y46507D01*
X87865Y46613D01*
X87590Y46649D01*
D02*
G37*
G36*
X80090D02*
X79815Y46613D01*
X79559Y46507D01*
X79339Y46338D01*
X79170Y46118D01*
X79064Y45862D01*
X79028Y45587D01*
Y44837D01*
X79064Y44562D01*
X79170Y44306D01*
X79339Y44086D01*
X79559Y43917D01*
X79815Y43811D01*
X80090Y43775D01*
X80365Y43811D01*
X80621Y43917D01*
X80841Y44086D01*
X81010Y44306D01*
X81116Y44562D01*
X81152Y44837D01*
Y45587D01*
X81116Y45862D01*
X81010Y46118D01*
X80841Y46338D01*
X80621Y46507D01*
X80365Y46613D01*
X80090Y46649D01*
D02*
G37*
G36*
X92590D02*
X92315Y46613D01*
X92059Y46507D01*
X91839Y46338D01*
X91670Y46118D01*
X91564Y45862D01*
X91528Y45587D01*
Y44837D01*
X91564Y44562D01*
X91670Y44306D01*
X91839Y44086D01*
X92059Y43917D01*
X92315Y43811D01*
X92590Y43775D01*
X92865Y43811D01*
X93121Y43917D01*
X93341Y44086D01*
X93510Y44306D01*
X93616Y44562D01*
X93652Y44837D01*
Y45587D01*
X93616Y45862D01*
X93510Y46118D01*
X93341Y46338D01*
X93121Y46507D01*
X92865Y46613D01*
X92590Y46649D01*
D02*
G37*
G36*
X108060Y53352D02*
X107798Y53317D01*
X107554Y53216D01*
X107344Y53056D01*
X107184Y52846D01*
X107083Y52602D01*
X107048Y52340D01*
X107083Y52078D01*
X107184Y51834D01*
X107344Y51624D01*
X107554Y51464D01*
X107798Y51363D01*
X108060Y51328D01*
X108322Y51363D01*
X108566Y51464D01*
X108776Y51624D01*
X108936Y51834D01*
X109037Y52078D01*
X109072Y52340D01*
X109037Y52602D01*
X108936Y52846D01*
X108776Y53056D01*
X108566Y53216D01*
X108322Y53317D01*
X108060Y53352D01*
D02*
G37*
G36*
X113140D02*
X112878Y53317D01*
X112634Y53216D01*
X112424Y53056D01*
X112264Y52846D01*
X112163Y52602D01*
X112128Y52340D01*
X112163Y52078D01*
X112264Y51834D01*
X112424Y51624D01*
X112634Y51464D01*
X112878Y51363D01*
X112998Y51347D01*
X113517Y49736D01*
X113476Y49530D01*
X113520Y49312D01*
X113643Y49127D01*
X113828Y49004D01*
X114046Y48960D01*
X114264Y49004D01*
X114449Y49127D01*
X114572Y49312D01*
X114616Y49530D01*
X114572Y49748D01*
X114449Y49933D01*
X114359Y49993D01*
X113838Y51611D01*
X113856Y51624D01*
X114016Y51834D01*
X114117Y52078D01*
X114152Y52340D01*
X114117Y52602D01*
X114016Y52846D01*
X113856Y53056D01*
X113646Y53216D01*
X113402Y53317D01*
X113140Y53352D01*
D02*
G37*
G36*
X110600D02*
X110338Y53317D01*
X110094Y53216D01*
X109884Y53056D01*
X109724Y52846D01*
X109623Y52602D01*
X109588Y52340D01*
X109623Y52078D01*
X109724Y51834D01*
X109884Y51624D01*
X110094Y51464D01*
X110338Y51363D01*
X110600Y51328D01*
X110682Y51339D01*
X111713Y49603D01*
X111698Y49530D01*
X111742Y49312D01*
X111865Y49127D01*
X112050Y49004D01*
X112268Y48960D01*
X112486Y49004D01*
X112671Y49127D01*
X112794Y49312D01*
X112838Y49530D01*
X112794Y49748D01*
X112671Y49933D01*
X112486Y50056D01*
X112465Y50061D01*
X111440Y51787D01*
X111476Y51834D01*
X111577Y52078D01*
X111612Y52340D01*
X111577Y52602D01*
X111476Y52846D01*
X111316Y53056D01*
X111106Y53216D01*
X110862Y53317D01*
X110600Y53352D01*
D02*
G37*
G36*
X106523Y53343D02*
X104517D01*
Y51337D01*
X106523D01*
Y53343D01*
D02*
G37*
G36*
X137000Y77167D02*
X136719Y77130D01*
X136456Y77021D01*
X136231Y76849D01*
X136059Y76624D01*
X135950Y76361D01*
X135913Y76080D01*
X135950Y75799D01*
X136059Y75536D01*
X136231Y75311D01*
X136456Y75139D01*
X136719Y75030D01*
X137000Y74993D01*
X137230Y75023D01*
X137484Y74880D01*
Y74124D01*
X137392Y74063D01*
X137269Y73878D01*
X137225Y73660D01*
X137269Y73442D01*
X137392Y73257D01*
X137484Y73196D01*
Y70485D01*
X137508Y70366D01*
X137575Y70265D01*
X138210Y69630D01*
X138311Y69563D01*
X138430Y69539D01*
X139043D01*
X139080Y69484D01*
X139248Y69371D01*
X139446Y69332D01*
X139644Y69371D01*
X139812Y69484D01*
X139925Y69652D01*
X139964Y69850D01*
X139925Y70048D01*
X139812Y70216D01*
X139644Y70329D01*
X139446Y70368D01*
X139248Y70329D01*
X139080Y70216D01*
X139043Y70161D01*
X138559D01*
X138106Y70614D01*
Y73196D01*
X138198Y73257D01*
X138321Y73442D01*
X138365Y73660D01*
X138321Y73878D01*
X138198Y74063D01*
X138106Y74124D01*
Y75285D01*
X138082Y75404D01*
X138015Y75505D01*
X137954Y75566D01*
X138050Y75799D01*
X138087Y76080D01*
X138050Y76361D01*
X137941Y76624D01*
X137769Y76849D01*
X137544Y77021D01*
X137281Y77130D01*
X137000Y77167D01*
D02*
G37*
G36*
X146177Y71436D02*
X145959Y71392D01*
X145774Y71269D01*
X145651Y71084D01*
X145607Y70866D01*
X145651Y70648D01*
X145774Y70463D01*
X145866Y70402D01*
Y68544D01*
X145654Y68456D01*
X145444Y68296D01*
X145284Y68086D01*
X145183Y67842D01*
X145148Y67580D01*
X145183Y67318D01*
X145284Y67074D01*
X145444Y66864D01*
X145654Y66704D01*
X145898Y66603D01*
X146160Y66568D01*
X146422Y66603D01*
X146666Y66704D01*
X146876Y66864D01*
X147036Y67074D01*
X147137Y67318D01*
X147172Y67580D01*
X147137Y67842D01*
X147036Y68086D01*
X146876Y68296D01*
X146666Y68456D01*
X146488Y68530D01*
Y70402D01*
X146580Y70463D01*
X146703Y70648D01*
X146747Y70866D01*
X146703Y71084D01*
X146580Y71269D01*
X146395Y71392D01*
X146177Y71436D01*
D02*
G37*
G36*
X134460Y77167D02*
X134179Y77130D01*
X133916Y77021D01*
X133691Y76849D01*
X133519Y76624D01*
X133410Y76361D01*
X133373Y76080D01*
X133410Y75799D01*
X133519Y75536D01*
X133691Y75311D01*
X133916Y75139D01*
X134179Y75030D01*
X134460Y74993D01*
X134741Y75030D01*
X134974Y75126D01*
X136087Y74013D01*
Y69722D01*
X136111Y69603D01*
X136178Y69502D01*
X137643Y68037D01*
X137563Y67842D01*
X137528Y67580D01*
X137563Y67318D01*
X137664Y67074D01*
X137824Y66864D01*
X138034Y66704D01*
X138278Y66603D01*
X138540Y66568D01*
X138802Y66603D01*
X139046Y66704D01*
X139256Y66864D01*
X139416Y67074D01*
X139517Y67318D01*
X139552Y67580D01*
X139517Y67842D01*
X139416Y68086D01*
X139256Y68296D01*
X139046Y68456D01*
X138802Y68557D01*
X138540Y68592D01*
X138278Y68557D01*
X138083Y68477D01*
X136709Y69851D01*
Y74142D01*
X136685Y74261D01*
X136618Y74362D01*
X135414Y75566D01*
X135510Y75799D01*
X135547Y76080D01*
X135510Y76361D01*
X135401Y76624D01*
X135229Y76849D01*
X135004Y77021D01*
X134741Y77130D01*
X134460Y77167D01*
D02*
G37*
G36*
X111600D02*
X111319Y77130D01*
X111056Y77021D01*
X110831Y76849D01*
X110659Y76624D01*
X110550Y76361D01*
X110513Y76080D01*
X110550Y75799D01*
X110659Y75536D01*
X110831Y75311D01*
X111056Y75139D01*
X111319Y75030D01*
X111600Y74993D01*
X111881Y75030D01*
X112144Y75139D01*
X112369Y75311D01*
X112541Y75536D01*
X112650Y75799D01*
X112687Y76080D01*
X112650Y76361D01*
X112541Y76624D01*
X112369Y76849D01*
X112144Y77021D01*
X111881Y77130D01*
X111600Y77167D01*
D02*
G37*
G36*
X109060D02*
X108779Y77130D01*
X108516Y77021D01*
X108291Y76849D01*
X108119Y76624D01*
X108010Y76361D01*
X107973Y76080D01*
X108010Y75799D01*
X108119Y75536D01*
X108291Y75311D01*
X108516Y75139D01*
X108779Y75030D01*
X109060Y74993D01*
X109341Y75030D01*
X109604Y75139D01*
X109829Y75311D01*
X110001Y75536D01*
X110110Y75799D01*
X110147Y76080D01*
X110110Y76361D01*
X110001Y76624D01*
X109829Y76849D01*
X109604Y77021D01*
X109341Y77130D01*
X109060Y77167D01*
D02*
G37*
G36*
X129380D02*
X129099Y77130D01*
X128836Y77021D01*
X128611Y76849D01*
X128439Y76624D01*
X128330Y76361D01*
X128293Y76080D01*
X128330Y75799D01*
X128439Y75536D01*
X128611Y75311D01*
X128703Y75241D01*
X128617Y74987D01*
X127603D01*
X127517Y75241D01*
X127609Y75311D01*
X127781Y75536D01*
X127890Y75799D01*
X127927Y76080D01*
X127890Y76361D01*
X127781Y76624D01*
X127609Y76849D01*
X127384Y77021D01*
X127121Y77130D01*
X126840Y77167D01*
X126559Y77130D01*
X126296Y77021D01*
X126071Y76849D01*
X125899Y76624D01*
X125790Y76361D01*
X125753Y76080D01*
X125790Y75799D01*
X125899Y75536D01*
X126071Y75311D01*
X126163Y75241D01*
X126077Y74987D01*
X125063D01*
X124977Y75241D01*
X125069Y75311D01*
X125241Y75536D01*
X125350Y75799D01*
X125387Y76080D01*
X125350Y76361D01*
X125241Y76624D01*
X125069Y76849D01*
X124844Y77021D01*
X124581Y77130D01*
X124300Y77167D01*
X124019Y77130D01*
X123756Y77021D01*
X123531Y76849D01*
X123359Y76624D01*
X123250Y76361D01*
X123213Y76080D01*
X123250Y75799D01*
X123359Y75536D01*
X123531Y75311D01*
X123623Y75241D01*
X123537Y74987D01*
X122523D01*
X122437Y75241D01*
X122529Y75311D01*
X122701Y75536D01*
X122810Y75799D01*
X122847Y76080D01*
X122810Y76361D01*
X122701Y76624D01*
X122529Y76849D01*
X122304Y77021D01*
X122041Y77130D01*
X121760Y77167D01*
X121479Y77130D01*
X121216Y77021D01*
X120991Y76849D01*
X120819Y76624D01*
X120710Y76361D01*
X120673Y76080D01*
X120710Y75799D01*
X120819Y75536D01*
X120991Y75311D01*
X121083Y75241D01*
X120997Y74987D01*
X119983D01*
X119897Y75241D01*
X119989Y75311D01*
X120161Y75536D01*
X120270Y75799D01*
X120307Y76080D01*
X120270Y76361D01*
X120161Y76624D01*
X119989Y76849D01*
X119764Y77021D01*
X119501Y77130D01*
X119220Y77167D01*
X118939Y77130D01*
X118676Y77021D01*
X118451Y76849D01*
X118279Y76624D01*
X118170Y76361D01*
X118133Y76080D01*
X118170Y75799D01*
X118279Y75536D01*
X118451Y75311D01*
X118543Y75241D01*
X118457Y74987D01*
X118213D01*
X117634Y75566D01*
X117730Y75799D01*
X117767Y76080D01*
X117730Y76361D01*
X117621Y76624D01*
X117449Y76849D01*
X117224Y77021D01*
X116961Y77130D01*
X116680Y77167D01*
X116399Y77130D01*
X116136Y77021D01*
X115911Y76849D01*
X115739Y76624D01*
X115630Y76361D01*
X115593Y76080D01*
X115630Y75799D01*
X115739Y75536D01*
X115911Y75311D01*
X116136Y75139D01*
X116196Y75114D01*
X116146Y74860D01*
X115800D01*
X115094Y75566D01*
X115190Y75799D01*
X115227Y76080D01*
X115190Y76361D01*
X115081Y76624D01*
X114909Y76849D01*
X114684Y77021D01*
X114421Y77130D01*
X114140Y77167D01*
X113859Y77130D01*
X113596Y77021D01*
X113371Y76849D01*
X113199Y76624D01*
X113090Y76361D01*
X113053Y76080D01*
X113090Y75799D01*
X113199Y75536D01*
X113371Y75311D01*
X113596Y75139D01*
X113859Y75030D01*
X114140Y74993D01*
X114421Y75030D01*
X114654Y75126D01*
X115451Y74329D01*
X115552Y74262D01*
X115671Y74238D01*
X117092D01*
X117509Y73821D01*
X117610Y73754D01*
X117729Y73730D01*
X129157D01*
X129955Y72932D01*
X130056Y72865D01*
X130175Y72841D01*
X131697D01*
X132023Y72515D01*
Y69123D01*
X131377Y68477D01*
X131182Y68557D01*
X130920Y68592D01*
X130658Y68557D01*
X130414Y68456D01*
X130204Y68296D01*
X130044Y68086D01*
X129943Y67842D01*
X129908Y67580D01*
X129943Y67318D01*
X130044Y67074D01*
X130204Y66864D01*
X130414Y66704D01*
X130658Y66603D01*
X130920Y66568D01*
X131182Y66603D01*
X131426Y66704D01*
X131636Y66864D01*
X131796Y67074D01*
X131897Y67318D01*
X131932Y67580D01*
X131897Y67842D01*
X131817Y68037D01*
X132554Y68774D01*
X132621Y68875D01*
X132645Y68994D01*
Y72644D01*
X132621Y72763D01*
X132554Y72864D01*
X132305Y73112D01*
X132396Y73381D01*
X132535Y73400D01*
X133149Y72786D01*
Y68537D01*
X132954Y68456D01*
X132744Y68296D01*
X132584Y68086D01*
X132483Y67842D01*
X132448Y67580D01*
X132483Y67318D01*
X132584Y67074D01*
X132744Y66864D01*
X132954Y66704D01*
X133198Y66603D01*
X133460Y66568D01*
X133722Y66603D01*
X133966Y66704D01*
X134176Y66864D01*
X134336Y67074D01*
X134437Y67318D01*
X134472Y67580D01*
X134437Y67842D01*
X134336Y68086D01*
X134176Y68296D01*
X133966Y68456D01*
X133771Y68537D01*
Y72915D01*
X133747Y73034D01*
X133680Y73135D01*
X132830Y73984D01*
X132842Y74079D01*
X132919Y74238D01*
X133475D01*
X134690Y73023D01*
Y68579D01*
X134714Y68460D01*
X134781Y68359D01*
X135103Y68037D01*
X135023Y67842D01*
X134988Y67580D01*
X135023Y67318D01*
X135124Y67074D01*
X135284Y66864D01*
X135494Y66704D01*
X135738Y66603D01*
X136000Y66568D01*
X136262Y66603D01*
X136506Y66704D01*
X136716Y66864D01*
X136876Y67074D01*
X136977Y67318D01*
X137012Y67580D01*
X136977Y67842D01*
X136876Y68086D01*
X136716Y68296D01*
X136506Y68456D01*
X136262Y68557D01*
X136000Y68592D01*
X135738Y68557D01*
X135543Y68477D01*
X135312Y68708D01*
Y73152D01*
X135288Y73271D01*
X135221Y73372D01*
X133824Y74769D01*
X133723Y74836D01*
X133604Y74860D01*
X131040D01*
X130334Y75566D01*
X130430Y75799D01*
X130467Y76080D01*
X130430Y76361D01*
X130321Y76624D01*
X130149Y76849D01*
X129924Y77021D01*
X129661Y77130D01*
X129380Y77167D01*
D02*
G37*
G36*
X110600Y68592D02*
X110338Y68557D01*
X110094Y68456D01*
X109884Y68296D01*
X109724Y68086D01*
X109623Y67842D01*
X109588Y67580D01*
X109623Y67318D01*
X109724Y67074D01*
X109884Y66864D01*
X110094Y66704D01*
X110338Y66603D01*
X110600Y66568D01*
X110862Y66603D01*
X111106Y66704D01*
X111316Y66864D01*
X111476Y67074D01*
X111577Y67318D01*
X111612Y67580D01*
X111577Y67842D01*
X111476Y68086D01*
X111316Y68296D01*
X111106Y68456D01*
X110862Y68557D01*
X110600Y68592D01*
D02*
G37*
G36*
X108060D02*
X107798Y68557D01*
X107554Y68456D01*
X107344Y68296D01*
X107184Y68086D01*
X107083Y67842D01*
X107048Y67580D01*
X107083Y67318D01*
X107184Y67074D01*
X107344Y66864D01*
X107554Y66704D01*
X107798Y66603D01*
X108060Y66568D01*
X108322Y66603D01*
X108566Y66704D01*
X108776Y66864D01*
X108936Y67074D01*
X109037Y67318D01*
X109072Y67580D01*
X109037Y67842D01*
X108936Y68086D01*
X108776Y68296D01*
X108566Y68456D01*
X108322Y68557D01*
X108060Y68592D01*
D02*
G37*
G36*
X105520D02*
X105258Y68557D01*
X105014Y68456D01*
X104804Y68296D01*
X104644Y68086D01*
X104543Y67842D01*
X104508Y67580D01*
X104543Y67318D01*
X104644Y67074D01*
X104804Y66864D01*
X105014Y66704D01*
X105258Y66603D01*
X105520Y66568D01*
X105782Y66603D01*
X106026Y66704D01*
X106236Y66864D01*
X106396Y67074D01*
X106497Y67318D01*
X106532Y67580D01*
X106497Y67842D01*
X106396Y68086D01*
X106236Y68296D01*
X106026Y68456D01*
X105782Y68557D01*
X105520Y68592D01*
D02*
G37*
G36*
X123300D02*
X123038Y68557D01*
X122794Y68456D01*
X122584Y68296D01*
X122424Y68086D01*
X122323Y67842D01*
X122288Y67580D01*
X122323Y67318D01*
X122424Y67074D01*
X122584Y66864D01*
X122794Y66704D01*
X123038Y66603D01*
X123300Y66568D01*
X123562Y66603D01*
X123806Y66704D01*
X124016Y66864D01*
X124176Y67074D01*
X124277Y67318D01*
X124312Y67580D01*
X124277Y67842D01*
X124176Y68086D01*
X124016Y68296D01*
X123806Y68456D01*
X123562Y68557D01*
X123300Y68592D01*
D02*
G37*
G36*
X120760D02*
X120498Y68557D01*
X120254Y68456D01*
X120044Y68296D01*
X119884Y68086D01*
X119783Y67842D01*
X119748Y67580D01*
X119783Y67318D01*
X119884Y67074D01*
X120044Y66864D01*
X120254Y66704D01*
X120498Y66603D01*
X120760Y66568D01*
X121022Y66603D01*
X121266Y66704D01*
X121476Y66864D01*
X121636Y67074D01*
X121737Y67318D01*
X121772Y67580D01*
X121737Y67842D01*
X121636Y68086D01*
X121476Y68296D01*
X121266Y68456D01*
X121022Y68557D01*
X120760Y68592D01*
D02*
G37*
G36*
X115680D02*
X115418Y68557D01*
X115174Y68456D01*
X114964Y68296D01*
X114804Y68086D01*
X114703Y67842D01*
X114668Y67580D01*
X114703Y67318D01*
X114804Y67074D01*
X114964Y66864D01*
X115174Y66704D01*
X115418Y66603D01*
X115680Y66568D01*
X115942Y66603D01*
X116186Y66704D01*
X116396Y66864D01*
X116556Y67074D01*
X116657Y67318D01*
X116692Y67580D01*
X116657Y67842D01*
X116556Y68086D01*
X116396Y68296D01*
X116186Y68456D01*
X115942Y68557D01*
X115680Y68592D01*
D02*
G37*
%LPD*%
D10*
X139540Y73660D02*
D03*
X143637Y70866D02*
D03*
X71882Y50673D02*
D03*
X114046Y49530D02*
D03*
X112268D02*
D03*
X140970Y73660D02*
D03*
X146177Y70866D02*
D03*
X137795Y73660D02*
D03*
D11*
X99542Y59436D02*
D03*
Y60706D02*
D03*
Y61976D02*
D03*
Y63246D02*
D03*
X94742Y59436D02*
D03*
Y60706D02*
D03*
Y61976D02*
D03*
Y63246D02*
D03*
D12*
X137948Y45831D02*
D03*
Y43831D02*
D03*
X85080Y69510D02*
D03*
X81580Y69440D02*
D03*
X85090Y60038D02*
D03*
X88138D02*
D03*
X91186D02*
D03*
X74676Y57564D02*
D03*
X71882D02*
D03*
X97080Y69510D02*
D03*
X94080D02*
D03*
D13*
X134748Y44831D02*
D03*
D14*
X88722Y69088D02*
D03*
X90408D02*
D03*
X88738Y65786D02*
D03*
X90424D02*
D03*
D15*
X116840Y43688D02*
D03*
X118237D02*
D03*
X126619D02*
D03*
X125222D02*
D03*
D16*
X85080Y66650D02*
D03*
X81580Y66580D02*
D03*
X85090Y62898D02*
D03*
X88138D02*
D03*
X91186D02*
D03*
X74676Y54704D02*
D03*
X71882D02*
D03*
X97080Y66650D02*
D03*
X94080D02*
D03*
D17*
X81788Y61633D02*
D03*
Y60033D02*
D03*
D18*
X139533Y71628D02*
D03*
X140883D02*
D03*
X130355D02*
D03*
X129005D02*
D03*
X120536D02*
D03*
X119186D02*
D03*
D19*
X142128Y45847D02*
D03*
X140828D02*
D03*
X105156Y71628D02*
D03*
X103856D02*
D03*
X114440D02*
D03*
X113140D02*
D03*
X108473D02*
D03*
X107173D02*
D03*
X126647D02*
D03*
X125347D02*
D03*
X115204Y43688D02*
D03*
X113904D02*
D03*
X128270D02*
D03*
X129570D02*
D03*
X116188Y71628D02*
D03*
X117488D02*
D03*
X122284D02*
D03*
X123584D02*
D03*
D20*
X99568Y66207D02*
D03*
Y64857D02*
D03*
D21*
X97584Y56094D02*
D03*
Y54794D02*
D03*
X99584Y56094D02*
D03*
Y54794D02*
D03*
D22*
X140810Y71701D02*
X142055D01*
X140810D02*
X140970Y71861D01*
X99568Y63246D02*
Y64857D01*
X81534Y60033D02*
X82580Y58987D01*
X103251Y65659D02*
X118220D01*
X142055Y71701D02*
X142367Y71389D01*
Y68707D02*
Y71389D01*
X140970Y73660D02*
Y74970D01*
Y71861D02*
Y73660D01*
Y74970D02*
X142080Y76080D01*
X118220Y65659D02*
X141732D01*
X118220D02*
Y67580D01*
X141732Y65659D02*
X142367Y66294D01*
X103251Y65659D02*
Y67056D01*
Y57404D02*
Y65659D01*
X98580Y71727D02*
X103251Y67056D01*
X98580Y71727D02*
Y74080D01*
X100641Y54794D02*
X103251Y57404D01*
X99584Y54794D02*
X100641D01*
X96336D02*
X97584D01*
X96266Y54864D02*
X96336Y54794D01*
X96647Y58166D02*
Y60706D01*
X86868Y65786D02*
Y68072D01*
Y61468D02*
Y65786D01*
Y61468D02*
X91948D01*
X81953D02*
X86868D01*
X96266Y54864D02*
Y57785D01*
X96647Y58166D01*
X81788Y61633D02*
X81953Y61468D01*
X116204Y69596D02*
X118220Y67580D01*
X113792Y69596D02*
X116204D01*
X125840Y52340D02*
X125984Y52324D01*
X113140Y52340D02*
X114046Y49530D01*
X118237Y43688D02*
X119380D01*
X80080Y61157D02*
X80556Y61633D01*
X81534D01*
X113140Y70248D02*
X113792Y69596D01*
X113140Y70248D02*
Y71628D01*
X86868Y65786D02*
X88738D01*
X97584Y54794D02*
X99584D01*
X110600Y52340D02*
X112268Y49530D01*
X86868Y68072D02*
X87884Y69088D01*
X88722D01*
X88738D01*
X82580Y55080D02*
Y58987D01*
X80080Y55080D02*
Y61157D01*
X96647Y60706D02*
Y62230D01*
X94742Y60706D02*
X96647D01*
X91948Y61468D02*
X92710Y60706D01*
X92964D01*
X94742D01*
X92964Y59436D02*
X94419D01*
X96647Y62230D02*
X97663Y63246D01*
X99542D01*
X99568D01*
D23*
X92580Y55080D02*
X94080Y53580D01*
X90170Y68834D02*
X90424Y69088D01*
X87580Y53136D02*
Y56184D01*
X90080Y54580D02*
Y56732D01*
X99480Y57404D02*
Y59436D01*
X133604Y45847D02*
Y46482D01*
Y45847D02*
X134620Y44831D01*
X133604Y43687D02*
X134748Y44831D01*
X133604Y43434D02*
Y43687D01*
X137795Y73660D02*
Y75285D01*
Y70485D02*
Y73660D01*
X82550Y63627D02*
X83439Y64516D01*
X80772Y63627D02*
X82550D01*
X83439Y64516D02*
Y67869D01*
X77724Y61595D02*
X80264Y64135D01*
Y68124D01*
X134620Y44831D02*
X134748D01*
X101727Y48260D02*
X116680D01*
X99441Y50546D02*
X101727Y48260D01*
X116680D02*
X120760Y52340D01*
X118585Y47625D02*
X123300Y52340D01*
X100203Y47625D02*
X118585D01*
X97536Y50292D02*
X100203Y47625D01*
X129286Y74041D02*
X130175Y73152D01*
X133984Y54356D02*
X136000Y52340D01*
X104648Y54356D02*
X133984D01*
X102108Y51816D02*
X104648Y54356D01*
X137540Y55880D02*
X141080Y52340D01*
X103380Y55880D02*
X137540D01*
X101080Y53580D02*
X103380Y55880D01*
X139827Y60960D02*
X147701Y53086D01*
X139827Y60960D02*
Y64262D01*
X141478Y49022D02*
X142748Y50292D01*
X144112D01*
X133460Y67580D02*
Y72915D01*
X116188Y71597D02*
X117681Y70104D01*
X118237D01*
X121412Y72771D02*
X122472D01*
X123584Y71659D01*
Y71628D02*
Y71659D01*
X116188Y71597D02*
Y71628D01*
X118936Y72593D02*
X119186Y72343D01*
X112447Y72593D02*
X118936D01*
X109399Y69545D02*
X112447Y72593D01*
X119520Y73025D02*
X120536Y72009D01*
X112268Y73025D02*
X119520D01*
X109220Y69977D02*
X112268Y73025D01*
X102286Y69545D02*
X109399D01*
X102465Y69977D02*
X109220D01*
X100279Y71552D02*
X102286Y69545D01*
X100711Y71731D02*
X102465Y69977D01*
X100711Y71731D02*
Y75311D01*
X100279Y71552D02*
Y75132D01*
X99084Y76327D02*
X100279Y75132D01*
X99263Y76759D02*
X100711Y75311D01*
X78462Y76327D02*
X99084D01*
X78283Y76759D02*
X99263D01*
X77140Y75005D02*
X78462Y76327D01*
X76708Y75184D02*
X78283Y76759D01*
X77140Y70433D02*
Y75005D01*
X76708Y70612D02*
Y75184D01*
X75362Y68655D02*
X77140Y70433D01*
X74930Y68834D02*
X76708Y70612D01*
X75362Y65048D02*
Y68655D01*
X74930Y65180D02*
Y68834D01*
X73830Y64080D02*
X74930Y65180D01*
X75362Y65048D02*
X76330Y64080D01*
X99568Y68072D02*
X101346Y66294D01*
X95518Y68072D02*
X99568D01*
X94080Y69510D02*
X95518Y68072D01*
X119253Y57277D02*
X128397D01*
X111887Y64643D02*
X119253Y57277D01*
X120650Y58420D02*
X125857D01*
X114427Y64643D02*
X120650Y58420D01*
X103886Y55118D02*
X135762D01*
X101348Y52580D02*
X103886Y55118D01*
X94080Y53580D02*
X101080D01*
X92080Y52580D02*
X101348D01*
X102235Y59817D02*
Y66675D01*
X99400Y69510D02*
X102235Y66675D01*
X97080Y69510D02*
X99400D01*
X85090Y58674D02*
X87580Y56184D01*
X85090Y58674D02*
Y60038D01*
X88138Y58674D02*
X90080Y56732D01*
X88138Y58674D02*
Y60038D01*
X78359Y52832D02*
Y61214D01*
X77724Y52578D02*
Y61595D01*
X73830Y59512D02*
Y64080D01*
X71882Y57564D02*
X73830Y59512D01*
X78359Y52832D02*
X81153Y50038D01*
X88900Y51816D02*
X102108D01*
X87580Y53136D02*
X88900Y51816D01*
X113904Y44308D02*
X114300Y44704D01*
X144112Y50292D02*
X146160Y52340D01*
X113904Y43688D02*
Y44308D01*
X122047Y48133D02*
X129540D01*
X119380Y45466D02*
X122047Y48133D01*
X97282Y45466D02*
X119380D01*
X93472Y49276D02*
X97282Y45466D01*
X118999Y46228D02*
X121793Y49022D01*
X97917Y46228D02*
X118999D01*
X94107Y50038D02*
X97917Y46228D01*
X121793Y49022D02*
X127602D01*
X129540Y48133D02*
X133460Y52053D01*
X127602Y49022D02*
X130920Y52340D01*
X141064Y49784D02*
X143620Y52340D01*
X81153Y50038D02*
X94107D01*
X78359Y61214D02*
X80772Y63627D01*
X80264Y68124D02*
X81580Y69440D01*
X81026Y49276D02*
X93472D01*
X77724Y52578D02*
X81026Y49276D01*
X133460Y52053D02*
Y52340D01*
X83439Y67869D02*
X85080Y69510D01*
X135762Y55118D02*
X138540Y52340D01*
X131826Y73152D02*
X132334Y72644D01*
Y68994D02*
Y72644D01*
X130920Y67580D02*
X132334Y68994D01*
X130175Y73152D02*
X131826D01*
X130556Y73787D02*
X132588D01*
X129667Y74676D02*
X130556Y73787D01*
X118084Y74676D02*
X129667D01*
X115671Y74549D02*
X117221D01*
X114140Y76080D02*
X115671Y74549D01*
X130911D02*
X133604D01*
X132588Y73787D02*
X133460Y72915D01*
X116680Y76080D02*
X118084Y74676D01*
X129380Y76080D02*
X130911Y74549D01*
X128143Y72644D02*
X129005Y71782D01*
X125984Y72644D02*
X128143D01*
X125347Y72007D02*
X125984Y72644D01*
X125347Y71628D02*
Y72007D01*
X129005Y71628D02*
Y71782D01*
X120536Y70358D02*
Y71628D01*
Y72009D01*
X119186Y71628D02*
Y72343D01*
X125347Y71628D02*
X125449D01*
X123584D02*
X125347D01*
X76330Y59218D02*
Y64080D01*
X74676Y57564D02*
X76330Y59218D01*
X79080Y71940D02*
X81580Y69440D01*
X79080Y71940D02*
Y74080D01*
X84080Y70510D02*
Y74080D01*
Y70510D02*
X85080Y69510D01*
X114440Y71628D02*
X116188D01*
X120536D02*
X122284D01*
X117488D02*
X119186D01*
X99480Y56198D02*
Y57404D01*
Y56198D02*
X99584Y56094D01*
X97584D02*
Y57404D01*
X91186Y58420D02*
X92580Y57026D01*
X91186Y58420D02*
Y60038D01*
X93580Y70010D02*
Y74080D01*
Y70010D02*
X94080Y69510D01*
X96080Y70510D02*
Y74080D01*
Y70510D02*
X97080Y69510D01*
X97294Y56384D02*
X97584Y56094D01*
X134748Y46610D02*
X135890Y47752D01*
X128016Y44704D02*
X133096Y49784D01*
X141064D01*
X129570Y45242D02*
X133350Y49022D01*
X141478D01*
X135890Y47752D02*
X141732D01*
X147701Y50800D02*
Y53086D01*
X141732Y60325D02*
Y65659D01*
Y60325D02*
X148463Y53594D01*
Y50546D02*
Y53594D01*
X137000Y76080D02*
X137795Y75285D01*
Y70485D02*
X138430Y69850D01*
X139446D01*
X136398Y69722D02*
X138540Y67580D01*
X136398Y69722D02*
Y74142D01*
X134460Y76080D02*
X136398Y74142D01*
X135001Y68579D02*
X136000Y67580D01*
X135001Y68579D02*
Y73152D01*
X133604Y74549D02*
X135001Y73152D01*
X146177Y67597D02*
Y70866D01*
X146160Y67580D02*
X146177Y67597D01*
X143637D02*
Y70866D01*
X143620Y67580D02*
X143637Y67597D01*
X117221Y74549D02*
X117729Y74041D01*
X129286D01*
X119186Y70933D02*
Y71628D01*
X125856Y70104D02*
X128380Y67580D01*
X120536Y70358D02*
X120790Y70104D01*
X125856D01*
X119186Y70933D02*
X120523Y69596D01*
X125603D01*
X125840Y69359D01*
Y67580D02*
Y69359D01*
X141732Y47752D02*
X143129Y49149D01*
X146050D01*
X147701Y50800D01*
X142128Y47005D02*
X143637Y48514D01*
X146431D01*
X148463Y50546D01*
X129570Y43434D02*
Y43688D01*
Y45242D01*
X114300Y44704D02*
X128016D01*
X134748Y44831D02*
Y46610D01*
X142128Y45593D02*
Y45847D01*
Y47005D01*
X92580Y55080D02*
Y57026D01*
X90080Y54580D02*
X92080Y52580D01*
X94742Y63246D02*
X94869Y63119D01*
X93218Y61976D02*
X94419D01*
X92964Y62230D02*
X93218Y61976D01*
X101854Y59436D02*
X102235Y59817D01*
X99480Y59436D02*
X99542D01*
X101854D01*
X99542Y60706D02*
X100838D01*
X101346Y61214D01*
Y66294D01*
X97584Y57404D02*
Y60246D01*
X98044Y60706D01*
X99542D01*
X92964Y62230D02*
Y64008D01*
X90424Y65786D02*
X91186D01*
X92964Y64008D01*
X92072Y65916D02*
X94742Y63246D01*
X90424Y69088D02*
X91694D01*
X92072Y68710D01*
Y65916D02*
Y68710D01*
D24*
X137948Y45831D02*
X139557D01*
D25*
X139540Y73660D02*
Y76080D01*
Y72484D02*
Y73660D01*
X139533Y72477D02*
X139540Y72484D01*
X139533Y71628D02*
Y72477D01*
X142367Y66294D02*
Y68707D01*
X98425Y66167D02*
X99528D01*
X99568Y66207D01*
X73279Y54704D02*
X74676D01*
X71882D02*
X73279D01*
X130355Y70398D02*
Y71628D01*
X126647D02*
X127775D01*
X91186Y62898D02*
Y64262D01*
X88138Y62898D02*
Y64262D01*
X85090Y62898D02*
Y64262D01*
X81580Y65324D02*
Y66580D01*
X85080Y65288D02*
Y66650D01*
X94080Y65378D02*
Y66650D01*
X97080Y65330D02*
Y66650D01*
D26*
X137948Y43831D02*
X139557D01*
Y45831D02*
X139573Y45847D01*
D27*
X124206Y43688D02*
X125222D01*
X126619D02*
X128270D01*
X115204D02*
X116840D01*
X108473Y71628D02*
Y73137D01*
X106520Y75090D02*
X108473Y73137D01*
X106520Y75090D02*
Y76080D01*
X105156Y71628D02*
X107173D01*
X102616D02*
X103856D01*
X139573Y45847D02*
X140828D01*
X71882Y51308D02*
Y54704D01*
D28*
X173990Y64733D02*
X174135Y64806D01*
X174353Y65024D01*
Y63500D01*
X175107Y62992D02*
X176268D01*
X176972Y65024D02*
Y63500D01*
X176464Y65024D02*
X177480D01*
X178097D02*
X177952Y64951D01*
X177806Y64806D01*
X177734Y64661D01*
X177661Y64443D01*
Y64080D01*
X177734Y63863D01*
X177806Y63718D01*
X177952Y63573D01*
X178097Y63500D01*
X178387D01*
X178532Y63573D01*
X178677Y63718D01*
X178750Y63863D01*
X178822Y64080D01*
Y64443D01*
X178750Y64661D01*
X178677Y64806D01*
X178532Y64951D01*
X178387Y65024D01*
X178097D01*
X179178Y64226D02*
X179831D01*
X180048Y64298D01*
X180121Y64371D01*
X180194Y64516D01*
Y64733D01*
X180121Y64879D01*
X180048Y64951D01*
X179831Y65024D01*
X179178D01*
Y63500D01*
D29*
X103980Y76080D02*
D03*
X106520D02*
D03*
X109060D02*
D03*
X111600D02*
D03*
X114140D02*
D03*
X116680D02*
D03*
X119220D02*
D03*
X121760D02*
D03*
X124300D02*
D03*
X126840D02*
D03*
X129380D02*
D03*
X131920D02*
D03*
X134460D02*
D03*
X137000D02*
D03*
X139540D02*
D03*
D30*
X142080D02*
D03*
D31*
X147580Y75580D02*
D03*
Y44580D02*
D03*
X72580D02*
D03*
Y75580D02*
D03*
D32*
X91080Y74080D02*
D03*
X96080D02*
D03*
X98580D02*
D03*
X93580D02*
D03*
X76330Y64080D02*
D03*
X73830D02*
D03*
X81580Y74080D02*
D03*
X84080D02*
D03*
X79080D02*
D03*
X80090Y45212D02*
D03*
X82590D02*
D03*
X85090D02*
D03*
X90090D02*
D03*
X92590D02*
D03*
X87590D02*
D03*
X80090Y54864D02*
D03*
X82590D02*
D03*
X85090D02*
D03*
X90090D02*
D03*
X92590D02*
D03*
X87590D02*
D03*
D33*
X105520Y52340D02*
D03*
D34*
X108060D02*
D03*
X110600D02*
D03*
X113140D02*
D03*
X115680D02*
D03*
X118220D02*
D03*
X120760D02*
D03*
X123300D02*
D03*
X125840D02*
D03*
X128380D02*
D03*
X130920D02*
D03*
X133460D02*
D03*
X136000D02*
D03*
X138540D02*
D03*
X141080D02*
D03*
X143620D02*
D03*
X146160D02*
D03*
Y67580D02*
D03*
X143620D02*
D03*
X141080D02*
D03*
X138540D02*
D03*
X136000D02*
D03*
X133460D02*
D03*
X130920D02*
D03*
X128380D02*
D03*
X125840D02*
D03*
X123300D02*
D03*
X120760D02*
D03*
X118220D02*
D03*
X115680D02*
D03*
X113140D02*
D03*
X110600D02*
D03*
X108060D02*
D03*
X105520D02*
D03*
D35*
X133604Y46482D02*
D03*
Y43434D02*
D03*
X140970Y73660D02*
D03*
X139540D02*
D03*
X137795D02*
D03*
X78080Y67080D02*
D03*
X145580Y62580D02*
D03*
X135580D02*
D03*
X130580D02*
D03*
X125580D02*
D03*
X120580D02*
D03*
X135580Y57580D02*
D03*
X130580D02*
D03*
X115580D02*
D03*
X110580D02*
D03*
Y62580D02*
D03*
X105580D02*
D03*
Y57580D02*
D03*
X141080Y55080D02*
D03*
X123317Y46228D02*
D03*
X103505Y50292D02*
D03*
X123317Y50038D02*
D03*
X119456Y69240D02*
D03*
X124080Y73080D02*
D03*
X110580D02*
D03*
X95580Y43580D02*
D03*
X71882Y50673D02*
D03*
X78080Y43580D02*
D03*
X71580Y70080D02*
D03*
Y65080D02*
D03*
X71628Y59436D02*
D03*
X148580Y49080D02*
D03*
Y55080D02*
D03*
Y65080D02*
D03*
Y60080D02*
D03*
X139573Y45847D02*
D03*
X139827Y64262D02*
D03*
X139446Y69850D02*
D03*
X118237Y70104D02*
D03*
X121412Y72771D02*
D03*
X114427Y64643D02*
D03*
X111887D02*
D03*
X98425Y66167D02*
D03*
X99441Y50546D02*
D03*
X128397Y57277D02*
D03*
X125857Y58420D02*
D03*
X139557Y43831D02*
D03*
X124206Y43688D02*
D03*
X119380D02*
D03*
X73279Y54704D02*
D03*
X130355Y70398D02*
D03*
X127775Y71628D02*
D03*
X99480Y57404D02*
D03*
X97584D02*
D03*
X97536Y50292D02*
D03*
X91186Y64262D02*
D03*
X88138D02*
D03*
X85090D02*
D03*
X81580Y65324D02*
D03*
X85080Y65288D02*
D03*
X94080Y65378D02*
D03*
X97080Y65330D02*
D03*
X102616Y71628D02*
D03*
X92964Y60706D02*
D03*
Y59436D02*
D03*
M02*
